<mxfile host="app.diagrams.net" modified="2021-07-09T06:59:02.724Z" agent="5.0 (Windows NT 10.0; WOW64) AppleWebKit/537.36 (KHTML, like Gecko) Chrome/72.0.3626.121 Safari/537.36" etag="8bq_rCf17tnV-ymDdH8C" version="14.8.5" type="github">
  <diagram name="Page-1" id="efa7a0a1-bf9b-a30e-e6df-94a7791c09e9">
    <mxGraphModel dx="2062" dy="1122" grid="1" gridSize="10" guides="1" tooltips="1" connect="1" arrows="1" fold="1" page="1" pageScale="1" pageWidth="2339" pageHeight="3300" background="none" math="0" shadow="0">
      <root>
        <mxCell id="0" />
        <mxCell id="1" parent="0" />
        <mxCell id="DroHx0XE8zM4UCk5UBcj-114" value="FA_CARD（卡片主表）" style="swimlane;fontStyle=0;childLayout=stackLayout;horizontal=1;startSize=26;horizontalStack=0;resizeParent=1;resizeParentMax=0;resizeLast=0;collapsible=1;marginBottom=0;" vertex="1" parent="1">
          <mxGeometry x="1060" y="150" width="200" height="234" as="geometry" />
        </mxCell>
        <mxCell id="DroHx0XE8zM4UCk5UBcj-115" value="PK_CARD（主键）" style="text;strokeColor=none;fillColor=none;align=left;verticalAlign=top;spacingLeft=4;spacingRight=4;overflow=hidden;rotatable=0;points=[[0,0.5],[1,0.5]];portConstraint=eastwest;" vertex="1" parent="DroHx0XE8zM4UCk5UBcj-114">
          <mxGeometry y="26" width="200" height="26" as="geometry" />
        </mxCell>
        <mxCell id="DroHx0XE8zM4UCk5UBcj-129" value="ASSET_CODE（资产编码）" style="text;strokeColor=none;fillColor=none;align=left;verticalAlign=top;spacingLeft=4;spacingRight=4;overflow=hidden;rotatable=0;points=[[0,0.5],[1,0.5]];portConstraint=eastwest;" vertex="1" parent="DroHx0XE8zM4UCk5UBcj-114">
          <mxGeometry y="52" width="200" height="26" as="geometry" />
        </mxCell>
        <mxCell id="DroHx0XE8zM4UCk5UBcj-116" value="ASSET_NAME（资产名称）" style="text;strokeColor=none;fillColor=none;align=left;verticalAlign=top;spacingLeft=4;spacingRight=4;overflow=hidden;rotatable=0;points=[[0,0.5],[1,0.5]];portConstraint=eastwest;" vertex="1" parent="DroHx0XE8zM4UCk5UBcj-114">
          <mxGeometry y="78" width="200" height="26" as="geometry" />
        </mxCell>
        <mxCell id="DroHx0XE8zM4UCk5UBcj-119" value="BAR_CODE（条形码）" style="text;strokeColor=none;fillColor=none;align=left;verticalAlign=top;spacingLeft=4;spacingRight=4;overflow=hidden;rotatable=0;points=[[0,0.5],[1,0.5]];portConstraint=eastwest;" vertex="1" parent="DroHx0XE8zM4UCk5UBcj-114">
          <mxGeometry y="104" width="200" height="26" as="geometry" />
        </mxCell>
        <mxCell id="DroHx0XE8zM4UCk5UBcj-118" value="CARD_CODE（卡片编码）" style="text;strokeColor=none;fillColor=none;align=left;verticalAlign=top;spacingLeft=4;spacingRight=4;overflow=hidden;rotatable=0;points=[[0,0.5],[1,0.5]];portConstraint=eastwest;" vertex="1" parent="DroHx0XE8zM4UCk5UBcj-114">
          <mxGeometry y="130" width="200" height="26" as="geometry" />
        </mxCell>
        <mxCell id="DroHx0XE8zM4UCk5UBcj-117" value="ASSETSUIT_CODE（资产套号）" style="text;strokeColor=none;fillColor=none;align=left;verticalAlign=top;spacingLeft=4;spacingRight=4;overflow=hidden;rotatable=0;points=[[0,0.5],[1,0.5]];portConstraint=eastwest;" vertex="1" parent="DroHx0XE8zM4UCk5UBcj-114">
          <mxGeometry y="156" width="200" height="26" as="geometry" />
        </mxCell>
        <mxCell id="DroHx0XE8zM4UCk5UBcj-127" value="BEGINDATE（开始使用日期）" style="text;strokeColor=none;fillColor=none;align=left;verticalAlign=top;spacingLeft=4;spacingRight=4;overflow=hidden;rotatable=0;points=[[0,0.5],[1,0.5]];portConstraint=eastwest;" vertex="1" parent="DroHx0XE8zM4UCk5UBcj-114">
          <mxGeometry y="182" width="200" height="26" as="geometry" />
        </mxCell>
        <mxCell id="DroHx0XE8zM4UCk5UBcj-128" value="PK_CORP（单位主键）" style="text;strokeColor=none;fillColor=none;align=left;verticalAlign=top;spacingLeft=4;spacingRight=4;overflow=hidden;rotatable=0;points=[[0,0.5],[1,0.5]];portConstraint=eastwest;" vertex="1" parent="DroHx0XE8zM4UCk5UBcj-114">
          <mxGeometry y="208" width="200" height="26" as="geometry" />
        </mxCell>
        <mxCell id="DroHx0XE8zM4UCk5UBcj-131" value="FA_CATEGORY（资产类别）" style="swimlane;fontStyle=0;childLayout=stackLayout;horizontal=1;startSize=26;horizontalStack=0;resizeParent=1;resizeParentMax=0;resizeLast=0;collapsible=1;marginBottom=0;" vertex="1" parent="1">
          <mxGeometry x="400" y="150" width="200" height="104" as="geometry" />
        </mxCell>
        <mxCell id="DroHx0XE8zM4UCk5UBcj-132" value="PK_CATEGORY（主键）" style="text;strokeColor=none;fillColor=none;align=left;verticalAlign=top;spacingLeft=4;spacingRight=4;overflow=hidden;rotatable=0;points=[[0,0.5],[1,0.5]];portConstraint=eastwest;" vertex="1" parent="DroHx0XE8zM4UCk5UBcj-131">
          <mxGeometry y="26" width="200" height="26" as="geometry" />
        </mxCell>
        <mxCell id="DroHx0XE8zM4UCk5UBcj-171" value="CATE_CODE（类别代码）" style="text;strokeColor=none;fillColor=none;align=left;verticalAlign=top;spacingLeft=4;spacingRight=4;overflow=hidden;rotatable=0;points=[[0,0.5],[1,0.5]];portConstraint=eastwest;" vertex="1" parent="DroHx0XE8zM4UCk5UBcj-131">
          <mxGeometry y="52" width="200" height="26" as="geometry" />
        </mxCell>
        <mxCell id="DroHx0XE8zM4UCk5UBcj-141" value="CATE_NAME（类别名称）" style="text;strokeColor=none;fillColor=none;align=left;verticalAlign=top;spacingLeft=4;spacingRight=4;overflow=hidden;rotatable=0;points=[[0,0.5],[1,0.5]];portConstraint=eastwest;" vertex="1" parent="DroHx0XE8zM4UCk5UBcj-131">
          <mxGeometry y="78" width="200" height="26" as="geometry" />
        </mxCell>
        <mxCell id="DroHx0XE8zM4UCk5UBcj-142" value="FA_CARDHISTORY（卡片子表）" style="swimlane;fontStyle=0;childLayout=stackLayout;horizontal=1;startSize=26;horizontalStack=0;resizeParent=1;resizeParentMax=0;resizeLast=0;collapsible=1;marginBottom=0;" vertex="1" parent="1">
          <mxGeometry x="700" y="150" width="210" height="442" as="geometry" />
        </mxCell>
        <mxCell id="DroHx0XE8zM4UCk5UBcj-143" value="PK_CARDHISTORY（主键）" style="text;strokeColor=none;fillColor=none;align=left;verticalAlign=top;spacingLeft=4;spacingRight=4;overflow=hidden;rotatable=0;points=[[0,0.5],[1,0.5]];portConstraint=eastwest;" vertex="1" parent="DroHx0XE8zM4UCk5UBcj-142">
          <mxGeometry y="26" width="210" height="26" as="geometry" />
        </mxCell>
        <mxCell id="DroHx0XE8zM4UCk5UBcj-154" value="ACCYEAR（会计年度）" style="text;strokeColor=none;fillColor=none;align=left;verticalAlign=top;spacingLeft=4;spacingRight=4;overflow=hidden;rotatable=0;points=[[0,0.5],[1,0.5]];portConstraint=eastwest;" vertex="1" parent="DroHx0XE8zM4UCk5UBcj-142">
          <mxGeometry y="52" width="210" height="26" as="geometry" />
        </mxCell>
        <mxCell id="DroHx0XE8zM4UCk5UBcj-155" value="PERIOD（会计期间）" style="text;strokeColor=none;fillColor=none;align=left;verticalAlign=top;spacingLeft=4;spacingRight=4;overflow=hidden;rotatable=0;points=[[0,0.5],[1,0.5]];portConstraint=eastwest;" vertex="1" parent="DroHx0XE8zM4UCk5UBcj-142">
          <mxGeometry y="78" width="210" height="26" as="geometry" />
        </mxCell>
        <mxCell id="DroHx0XE8zM4UCk5UBcj-156" value="SERVICEMONTH（使用期限、月）" style="text;strokeColor=none;fillColor=none;align=left;verticalAlign=top;spacingLeft=4;spacingRight=4;overflow=hidden;rotatable=0;points=[[0,0.5],[1,0.5]];portConstraint=eastwest;" vertex="1" parent="DroHx0XE8zM4UCk5UBcj-142">
          <mxGeometry y="104" width="210" height="26" as="geometry" />
        </mxCell>
        <mxCell id="DroHx0XE8zM4UCk5UBcj-160" value="PREDEVALUATE（减值准备）" style="text;strokeColor=none;fillColor=none;align=left;verticalAlign=top;spacingLeft=4;spacingRight=4;overflow=hidden;rotatable=0;points=[[0,0.5],[1,0.5]];portConstraint=eastwest;" vertex="1" parent="DroHx0XE8zM4UCk5UBcj-142">
          <mxGeometry y="130" width="210" height="26" as="geometry" />
        </mxCell>
        <mxCell id="DroHx0XE8zM4UCk5UBcj-157" value="USEDMONTH（已使用月份）" style="text;strokeColor=none;fillColor=none;align=left;verticalAlign=top;spacingLeft=4;spacingRight=4;overflow=hidden;rotatable=0;points=[[0,0.5],[1,0.5]];portConstraint=eastwest;" vertex="1" parent="DroHx0XE8zM4UCk5UBcj-142">
          <mxGeometry y="156" width="210" height="26" as="geometry" />
        </mxCell>
        <mxCell id="DroHx0XE8zM4UCk5UBcj-158" value="LOCALORIGINVALUE（本币原值）" style="text;strokeColor=none;fillColor=none;align=left;verticalAlign=top;spacingLeft=4;spacingRight=4;overflow=hidden;rotatable=0;points=[[0,0.5],[1,0.5]];portConstraint=eastwest;" vertex="1" parent="DroHx0XE8zM4UCk5UBcj-142">
          <mxGeometry y="182" width="210" height="26" as="geometry" />
        </mxCell>
        <mxCell id="DroHx0XE8zM4UCk5UBcj-159" value="SALVAGERATE（净残值率）" style="text;strokeColor=none;fillColor=none;align=left;verticalAlign=top;spacingLeft=4;spacingRight=4;overflow=hidden;rotatable=0;points=[[0,0.5],[1,0.5]];portConstraint=eastwest;" vertex="1" parent="DroHx0XE8zM4UCk5UBcj-142">
          <mxGeometry y="208" width="210" height="26" as="geometry" />
        </mxCell>
        <mxCell id="DroHx0XE8zM4UCk5UBcj-161" value="ACCUDEP（累计折旧）" style="text;strokeColor=none;fillColor=none;align=left;verticalAlign=top;spacingLeft=4;spacingRight=4;overflow=hidden;rotatable=0;points=[[0,0.5],[1,0.5]];portConstraint=eastwest;" vertex="1" parent="DroHx0XE8zM4UCk5UBcj-142">
          <mxGeometry y="234" width="210" height="26" as="geometry" />
        </mxCell>
        <mxCell id="DroHx0XE8zM4UCk5UBcj-162" value="DEPAMOUNT（月折旧额）" style="text;strokeColor=none;fillColor=none;align=left;verticalAlign=top;spacingLeft=4;spacingRight=4;overflow=hidden;rotatable=0;points=[[0,0.5],[1,0.5]];portConstraint=eastwest;" vertex="1" parent="DroHx0XE8zM4UCk5UBcj-142">
          <mxGeometry y="260" width="210" height="26" as="geometry" />
        </mxCell>
        <mxCell id="DroHx0XE8zM4UCk5UBcj-163" value="FK_CATEGORY（资产类别外键）" style="text;strokeColor=none;fillColor=none;align=left;verticalAlign=top;spacingLeft=4;spacingRight=4;overflow=hidden;rotatable=0;points=[[0,0.5],[1,0.5]];portConstraint=eastwest;" vertex="1" parent="DroHx0XE8zM4UCk5UBcj-142">
          <mxGeometry y="286" width="210" height="26" as="geometry" />
        </mxCell>
        <mxCell id="DroHx0XE8zM4UCk5UBcj-164" value="FK_CARD（卡片主表外键）" style="text;strokeColor=none;fillColor=none;align=left;verticalAlign=top;spacingLeft=4;spacingRight=4;overflow=hidden;rotatable=0;points=[[0,0.5],[1,0.5]];portConstraint=eastwest;" vertex="1" parent="DroHx0XE8zM4UCk5UBcj-142">
          <mxGeometry y="312" width="210" height="26" as="geometry" />
        </mxCell>
        <mxCell id="DroHx0XE8zM4UCk5UBcj-165" value="FK_USINGSTATUS（使用状况外键）" style="text;strokeColor=none;fillColor=none;align=left;verticalAlign=top;spacingLeft=4;spacingRight=4;overflow=hidden;rotatable=0;points=[[0,0.5],[1,0.5]];portConstraint=eastwest;" vertex="1" parent="DroHx0XE8zM4UCk5UBcj-142">
          <mxGeometry y="338" width="210" height="26" as="geometry" />
        </mxCell>
        <mxCell id="DroHx0XE8zM4UCk5UBcj-166" value="FK_MANDEPT（管理部门外籍）" style="text;strokeColor=none;fillColor=none;align=left;verticalAlign=top;spacingLeft=4;spacingRight=4;overflow=hidden;rotatable=0;points=[[0,0.5],[1,0.5]];portConstraint=eastwest;" vertex="1" parent="DroHx0XE8zM4UCk5UBcj-142">
          <mxGeometry y="364" width="210" height="26" as="geometry" />
        </mxCell>
        <mxCell id="DroHx0XE8zM4UCk5UBcj-167" value="LASTSTATE_FLAG（是否最新状态）" style="text;strokeColor=none;fillColor=none;align=left;verticalAlign=top;spacingLeft=4;spacingRight=4;overflow=hidden;rotatable=0;points=[[0,0.5],[1,0.5]];portConstraint=eastwest;" vertex="1" parent="DroHx0XE8zM4UCk5UBcj-142">
          <mxGeometry y="390" width="210" height="26" as="geometry" />
        </mxCell>
        <mxCell id="DroHx0XE8zM4UCk5UBcj-148" value="REDUCE_FLAG（减少标志）" style="text;strokeColor=none;fillColor=none;align=left;verticalAlign=top;spacingLeft=4;spacingRight=4;overflow=hidden;rotatable=0;points=[[0,0.5],[1,0.5]];portConstraint=eastwest;" vertex="1" parent="DroHx0XE8zM4UCk5UBcj-142">
          <mxGeometry y="416" width="210" height="26" as="geometry" />
        </mxCell>
        <mxCell id="DroHx0XE8zM4UCk5UBcj-168" value="N:1" style="edgeStyle=orthogonalEdgeStyle;rounded=0;orthogonalLoop=1;jettySize=auto;html=1;endArrow=block;endFill=0;" edge="1" parent="1" source="DroHx0XE8zM4UCk5UBcj-164" target="DroHx0XE8zM4UCk5UBcj-115">
          <mxGeometry relative="1" as="geometry" />
        </mxCell>
        <mxCell id="DroHx0XE8zM4UCk5UBcj-169" style="rounded=0;orthogonalLoop=1;jettySize=auto;html=1;entryX=1;entryY=0.5;entryDx=0;entryDy=0;endArrow=block;endFill=0;edgeStyle=elbowEdgeStyle;" edge="1" parent="1" source="DroHx0XE8zM4UCk5UBcj-163" target="DroHx0XE8zM4UCk5UBcj-132">
          <mxGeometry relative="1" as="geometry" />
        </mxCell>
        <mxCell id="DroHx0XE8zM4UCk5UBcj-170" value="N:1" style="edgeLabel;html=1;align=center;verticalAlign=middle;resizable=0;points=[];" vertex="1" connectable="0" parent="DroHx0XE8zM4UCk5UBcj-169">
          <mxGeometry x="-0.0308" y="1" relative="1" as="geometry">
            <mxPoint as="offset" />
          </mxGeometry>
        </mxCell>
        <mxCell id="DroHx0XE8zM4UCk5UBcj-174" value="FA_USINGSTATUS（使用状况表）" style="swimlane;fontStyle=0;childLayout=stackLayout;horizontal=1;startSize=26;horizontalStack=0;resizeParent=1;resizeParentMax=0;resizeLast=0;collapsible=1;marginBottom=0;" vertex="1" parent="1">
          <mxGeometry x="330" y="430" width="210" height="104" as="geometry" />
        </mxCell>
        <mxCell id="DroHx0XE8zM4UCk5UBcj-175" value="PK_USINGSTATUS（主键）" style="text;strokeColor=none;fillColor=none;align=left;verticalAlign=top;spacingLeft=4;spacingRight=4;overflow=hidden;rotatable=0;points=[[0,0.5],[1,0.5]];portConstraint=eastwest;" vertex="1" parent="DroHx0XE8zM4UCk5UBcj-174">
          <mxGeometry y="26" width="210" height="26" as="geometry" />
        </mxCell>
        <mxCell id="DroHx0XE8zM4UCk5UBcj-176" value="STATUS_CODE（使用状况代码）" style="text;strokeColor=none;fillColor=none;align=left;verticalAlign=top;spacingLeft=4;spacingRight=4;overflow=hidden;rotatable=0;points=[[0,0.5],[1,0.5]];portConstraint=eastwest;" vertex="1" parent="DroHx0XE8zM4UCk5UBcj-174">
          <mxGeometry y="52" width="210" height="26" as="geometry" />
        </mxCell>
        <mxCell id="DroHx0XE8zM4UCk5UBcj-177" value="STATUS_NAME（使用状况名称）" style="text;strokeColor=none;fillColor=none;align=left;verticalAlign=top;spacingLeft=4;spacingRight=4;overflow=hidden;rotatable=0;points=[[0,0.5],[1,0.5]];portConstraint=eastwest;" vertex="1" parent="DroHx0XE8zM4UCk5UBcj-174">
          <mxGeometry y="78" width="210" height="26" as="geometry" />
        </mxCell>
        <mxCell id="DroHx0XE8zM4UCk5UBcj-178" value="N:1" style="edgeStyle=elbowEdgeStyle;rounded=0;orthogonalLoop=1;jettySize=auto;html=1;endArrow=block;endFill=0;" edge="1" parent="1" source="DroHx0XE8zM4UCk5UBcj-165" target="DroHx0XE8zM4UCk5UBcj-175">
          <mxGeometry relative="1" as="geometry" />
        </mxCell>
        <mxCell id="DroHx0XE8zM4UCk5UBcj-179" value="BD_DEPTDOC（部门档案）" style="swimlane;fontStyle=0;childLayout=stackLayout;horizontal=1;startSize=26;horizontalStack=0;resizeParent=1;resizeParentMax=0;resizeLast=0;collapsible=1;marginBottom=0;" vertex="1" parent="1">
          <mxGeometry x="340" y="580" width="200" height="104" as="geometry" />
        </mxCell>
        <mxCell id="DroHx0XE8zM4UCk5UBcj-192" value="PK_DEPTDOC（主键）" style="text;strokeColor=none;fillColor=none;align=left;verticalAlign=top;spacingLeft=4;spacingRight=4;overflow=hidden;rotatable=0;points=[[0,0.5],[1,0.5]];portConstraint=eastwest;" vertex="1" parent="DroHx0XE8zM4UCk5UBcj-179">
          <mxGeometry y="26" width="200" height="26" as="geometry" />
        </mxCell>
        <mxCell id="DroHx0XE8zM4UCk5UBcj-193" value="DEPTCODE（部门编码）" style="text;strokeColor=none;fillColor=none;align=left;verticalAlign=top;spacingLeft=4;spacingRight=4;overflow=hidden;rotatable=0;points=[[0,0.5],[1,0.5]];portConstraint=eastwest;" vertex="1" parent="DroHx0XE8zM4UCk5UBcj-179">
          <mxGeometry y="52" width="200" height="26" as="geometry" />
        </mxCell>
        <mxCell id="DroHx0XE8zM4UCk5UBcj-180" value="DEPTNAME（部门名称）" style="text;strokeColor=none;fillColor=none;align=left;verticalAlign=top;spacingLeft=4;spacingRight=4;overflow=hidden;rotatable=0;points=[[0,0.5],[1,0.5]];portConstraint=eastwest;" vertex="1" parent="DroHx0XE8zM4UCk5UBcj-179">
          <mxGeometry y="78" width="200" height="26" as="geometry" />
        </mxCell>
        <mxCell id="DroHx0XE8zM4UCk5UBcj-194" value="N:1" style="edgeStyle=elbowEdgeStyle;rounded=0;orthogonalLoop=1;jettySize=auto;html=1;entryX=1;entryY=0.5;entryDx=0;entryDy=0;endArrow=block;endFill=0;" edge="1" parent="1" source="DroHx0XE8zM4UCk5UBcj-166" target="DroHx0XE8zM4UCk5UBcj-192">
          <mxGeometry relative="1" as="geometry" />
        </mxCell>
        <mxCell id="DroHx0XE8zM4UCk5UBcj-195" value="BD_CORP（公司目录）" style="swimlane;fontStyle=0;childLayout=stackLayout;horizontal=1;startSize=26;horizontalStack=0;resizeParent=1;resizeParentMax=0;resizeLast=0;collapsible=1;marginBottom=0;" vertex="1" parent="1">
          <mxGeometry x="1320" y="150" width="200" height="104" as="geometry" />
        </mxCell>
        <mxCell id="DroHx0XE8zM4UCk5UBcj-196" value="PK_CORP（主键）" style="text;strokeColor=none;fillColor=none;align=left;verticalAlign=top;spacingLeft=4;spacingRight=4;overflow=hidden;rotatable=0;points=[[0,0.5],[1,0.5]];portConstraint=eastwest;" vertex="1" parent="DroHx0XE8zM4UCk5UBcj-195">
          <mxGeometry y="26" width="200" height="26" as="geometry" />
        </mxCell>
        <mxCell id="DroHx0XE8zM4UCk5UBcj-197" value="UNITCODE（公司编码）" style="text;strokeColor=none;fillColor=none;align=left;verticalAlign=top;spacingLeft=4;spacingRight=4;overflow=hidden;rotatable=0;points=[[0,0.5],[1,0.5]];portConstraint=eastwest;" vertex="1" parent="DroHx0XE8zM4UCk5UBcj-195">
          <mxGeometry y="52" width="200" height="26" as="geometry" />
        </mxCell>
        <mxCell id="DroHx0XE8zM4UCk5UBcj-198" value="UNITNAME（公司名称）" style="text;strokeColor=none;fillColor=none;align=left;verticalAlign=top;spacingLeft=4;spacingRight=4;overflow=hidden;rotatable=0;points=[[0,0.5],[1,0.5]];portConstraint=eastwest;" vertex="1" parent="DroHx0XE8zM4UCk5UBcj-195">
          <mxGeometry y="78" width="200" height="26" as="geometry" />
        </mxCell>
        <mxCell id="DroHx0XE8zM4UCk5UBcj-199" value="N:1" style="edgeStyle=elbowEdgeStyle;rounded=0;orthogonalLoop=1;jettySize=auto;html=1;endArrow=block;endFill=0;" edge="1" parent="1" source="DroHx0XE8zM4UCk5UBcj-128" target="DroHx0XE8zM4UCk5UBcj-196">
          <mxGeometry relative="1" as="geometry" />
        </mxCell>
        <mxCell id="DroHx0XE8zM4UCk5UBcj-210" style="edgeStyle=elbowEdgeStyle;rounded=0;orthogonalLoop=1;jettySize=auto;html=1;endArrow=block;endFill=0;" edge="1" parent="1" source="DroHx0XE8zM4UCk5UBcj-204" target="DroHx0XE8zM4UCk5UBcj-208">
          <mxGeometry relative="1" as="geometry" />
        </mxCell>
        <mxCell id="DroHx0XE8zM4UCk5UBcj-211" style="edgeStyle=elbowEdgeStyle;rounded=0;orthogonalLoop=1;jettySize=auto;html=1;endArrow=block;endFill=0;" edge="1" parent="1" source="DroHx0XE8zM4UCk5UBcj-204" target="DroHx0XE8zM4UCk5UBcj-205">
          <mxGeometry relative="1" as="geometry" />
        </mxCell>
        <mxCell id="DroHx0XE8zM4UCk5UBcj-214" style="edgeStyle=elbowEdgeStyle;rounded=0;orthogonalLoop=1;jettySize=auto;html=1;endArrow=block;endFill=0;" edge="1" parent="1" source="DroHx0XE8zM4UCk5UBcj-204" target="DroHx0XE8zM4UCk5UBcj-213">
          <mxGeometry relative="1" as="geometry" />
        </mxCell>
        <mxCell id="DroHx0XE8zM4UCk5UBcj-216" style="edgeStyle=elbowEdgeStyle;rounded=0;orthogonalLoop=1;jettySize=auto;html=1;endArrow=block;endFill=0;" edge="1" parent="1" source="DroHx0XE8zM4UCk5UBcj-204" target="DroHx0XE8zM4UCk5UBcj-215">
          <mxGeometry relative="1" as="geometry" />
        </mxCell>
        <mxCell id="DroHx0XE8zM4UCk5UBcj-239" style="edgeStyle=orthogonalEdgeStyle;rounded=0;orthogonalLoop=1;jettySize=auto;html=1;exitX=0;exitY=1;exitDx=0;exitDy=0;endArrow=block;endFill=0;" edge="1" parent="1" source="DroHx0XE8zM4UCk5UBcj-204" target="DroHx0XE8zM4UCk5UBcj-232">
          <mxGeometry relative="1" as="geometry" />
        </mxCell>
        <mxCell id="DroHx0XE8zM4UCk5UBcj-240" style="edgeStyle=orthogonalEdgeStyle;rounded=0;orthogonalLoop=1;jettySize=auto;html=1;exitX=0;exitY=1;exitDx=0;exitDy=0;endArrow=block;endFill=0;" edge="1" parent="1" source="DroHx0XE8zM4UCk5UBcj-204" target="DroHx0XE8zM4UCk5UBcj-233">
          <mxGeometry relative="1" as="geometry" />
        </mxCell>
        <mxCell id="DroHx0XE8zM4UCk5UBcj-204" value="" style="shape=image;verticalLabelPosition=bottom;labelBackgroundColor=#ffffff;verticalAlign=top;aspect=fixed;imageAspect=0;image=data:image/png,iVBORw0KGgoAAAANSUhEUgAAAL4AAADCCAYAAAD3lHgnAAAW90lEQVR4Ae1dbWwd1bVd1zZp5IuUxMJ+EpD6K/DDIahSYto4QgmP0KhIjR4KKhDRVwlFRqG0CahCIN6P/HioLaqIo9cGgSKkV6FgeIlaRcIoNCGJ2jglDlJFgn9gxx/EIMVGDkjckAQ783Rm5szdM/fMl32uM+fefSU6Z87Ze529115z5szc6zS3atUq6+zZs+APM1AtDKxatQo5ANaxY8eqJWfOkxnAfffdhxrmgRmoRgZY+NVYdc6ZV3zWQHUywCt+dda96rNm4Ve9BKqTABZ+dda96rNm4Ve9BKqTABZ+dda96rNm4Ve9BKqTABZ+dda96rNm4Ve9BKqTABZ+dda96rNm4Ve9BKqTABZ+dda96rNm4Ve9BKqTgDrz0s6jtbMTzXka+RQGj3+CSbtLNQ5MDR7HJ44BdQxv51vR2dkMOk0Rw5mjfjwEU+FbGB/AwGjBnU8VI81BmsXHEM5DOIY/luR2TSs3oPkyyaNpJTZ01GN8YABeai5c1g8GCt+htFg8R0QdK5swSZRdHAdgF2gDOvOkaFGVse0b7YtlwLtYmrByw0o0TcoLLARA5WtfCJ3ohH9+GqMQlS8HFQ5KYyhiKHhQYahiSWpHUxY4HQ5HpolepFEBW50CJr8sAPV53+pMa4TJT3B8cAr55hY0+QZUJ01Y6RaUXEcAJvGJd1dR+Ym+PFqbGyHE6PMtjGIgZv7JqSmSw1xiCPKQNJakdjTnJqzsbMbltHdRCnGD2xUg/Dyabsmj8OUk5EZCyenkFKbQiMY45Tc1ohFTmPJWeiWaujPfhFvyBXw5qYjEnr8eebp38lAc8eFywclhTjEEeEgaS1I7GmtnB+qDF7c3bkbD2K1OvrkTG5olyQWMDyrEJofnccy3dqLT20gr9uEl2JdRCA0lL25MkFcozUHcJY6H7BmiYqAYAtjPQ9JYktoB+eYO5EvmKSEh8x3GCr+4t3X38J2dQBkesgqjQpDyOSFJPd1VXSn+gljUvY+Xg73HbkHTqPr5ISoGD0OgChzJgz1L0liS2sHexg2iA52dK1GI3fp5qWauUQFbHbH9FtsYdzUNozjp9iHplkg1T6GAy2Fx2POHrKyTYxgvNKK51d0HzTUGykPSWJLakXwLo4N2vOJh3NRPZQjfFpV/NfUVxH0DURgfc195+kYDJ5MYGy+gsWMD0tdV+nZCatgGj52/gNFx+vAtcVLG4ONBYsTFktSO0lTA6MAgpho70OlLlNpku23gv6ujegdO39Orxgvp3zXbr/387/GL24qYOdzXg8XSB+d3/G/5kr7eFK8qOwD6piR1DJQHd/bYWJLblbzHd+Mz7e2O+Hd1DBR+UU7cYgbmwgD/g1JzYY19KoIBY9/qzJ19Z0vRGAJQ3M6EGHB3RTBQhcIX38DO5dupiqg3J+EyUBlvdbiczEBKBlj4KQlj88pgoCqEv2HDhkTVirKLGlOBp7UXGCofVZ9qvmBfUj+VnaoviG/6ubF7fFGc48ePx/Iv7eQxykHgJbGLwpBjOrEkZvAoYg1+wjhR5SX95VFgSX/aJ+eQY/JchSnHsn40UvhJCad25RaiSiii+Kr+oIDmIxKKpZorDJtyo2rLPnlU4ZSbU9WcuvqME35UISgpKrskhaJConhxbZWfKoYwHGor2vQTPA/ORX2pn2yrximGaNM5ZDt4pD4SW/qqxqRNFo/GCT8JiapCSz8TCkVFFJWLzCnqGOVPx+icAo+OReGbOmaU8OOKIcbFR4o7rCh0XBZc+kb5UxtpFzZHmv4grvSV/eIo45RjSY9RfpIHaSPnk9j0XNrIMXoM4tCxrLaNEn4cibQ4tK3yC47Lc1lseS595yM+iaE6Slw5r8ombZ/EkkfqH8xLnMsYhJ0cp30qHIppYruihH+jC6ASSLBPCkvGGjyX/VJ4waMcjzpSMUv/oD3tpzGIfvmhbdlXKceKE36aYtGC6yhoEI+KSwe+Tgx6cVBcmQONPQ2nFCvLbaOEH1YsSrAsnOyjBZR9WT+qYk6SuyqvKD/JFZ2Pipy2Vdiyj/rLvqwfK/qb22BBkhZSFC2Nrc4iy5jFUcYg21LEcj4p3LBz2R91lPNJG4EpcWlbjlfK0Tjhi2JIQUQVIVhQYTsf36i5dI6pREcFKMflnDLPME7iximOaAt7iRVsS1t6lPi0z4S2UVsdSagUcFAEcpwWTvbRY1yxwnApRtbaKk5onknGRU7UR3VO8w7a0rGst40UviA1SpxRY8JXFCzsE+er8ovCCxubyzzBuYPCC2LGnQfxxLnwkbhhsUu/IL7sN+HIf3NrQpU4Rq0M8N/caqWTwUxiwLiHW5PI5VizywALP7u14cjKyAALv4zkMnR2GWDhZ7c2HFkZGWDhl5Fchs4uAyz87NaGIysjAyz8MpLL0NllgIWf3dpwZGVkgIVfRnIZOrsMsPCzWxuOrIwMsPDLSC5DZ5cBFn52a8ORlZGB3JIlS6yvv/66jFMwNDOQLQaWLFmCmtbW1mxFxdEwA2VmQGje/j2+ZVllnorhmYHsMJDL5cB7/OzUgyNZQAZY+AtINk+VHQZY+NmpBUeygAyw8BeQbJ4qOwyw8LNTC45kARlg4S8g2TxVdhhg4WenFhzJAjIwB+EPY8+6ddgzPJ8oBUYOT743H4xS3/eezCGnG9Sbpjwxe/AoN35xJm4hzXt8pzC5de8CdwF490nkcvO9ALgEzMCNYSDFir8CO05asP4XeOf1fuwc/A9Y1knsWHFjAudZmYH5MJBC+O6K/wvgZ91d6On4a8SKL2zF3eA9PJnLQXxFHHl3eC/F3cO2lZjuMXR748bsxfAkirsrEds67Nkj5hY47lgsflROUfOJMsWNk1Km4YS4cTM5A1a6z5DV09Vl9QxFeQkbWEDRbqinywK6rT7bzRnvFid93T67KFTL6rO6g5g2iOPV1w0L3rkbg3duWf4YBJaIUcYkMKLwk+VUnD84X1w8c+UkmjEeLWUAgJVixZdXktjyJNvidPcV7Vbs+C904xw+pQ/Fn+7BugfPoWeoaCdnUR6HP8U53IU73e3VijvvAs59Cgrp+Q2/i3f6u9H32k+8LlUM3X2vwbNIgB+aU9x8ceMyyrScSD8+pmJgDsJPhR8w7sfgULHr9Z070V88jW+tuBN3kYvnvb++Dtx1J5SPGUODCuw70NHlj8E3aRp8z9HFi5svbtzFS82JFwc30jCwwMLvQscdxfC6+ywM9QA7f7FHvWoXTZ2WvSL3Y+cdzt7+wdf9K7rP/I4OdPk6xMkQBvv9MfhM0uB7ji5e3Hxx4y5eak68OLiRloHSTdC8e0L2w109lvNoQPazVuneN3R68TxA9uxBu0R7fC8GZ4/vg4vET5YTjc9+pvDmK81TNe7EU2obzJXP586A2OOLi2TuCKGeTuG6++QDZPAhUo5LAMeuK/qJ2Ta2xe0ELoK34AlLPCfTh1thTuf328oxn/DtZ22bFAfbhy9i7rJ6+nqsLm9++mAcN1/c+Nw5sYnh/0nMwAIIP3EsiQz9K6TjIsSe5IJJMkG58ZPEwDblZ0AIf4H3+Gl3YX77ocH+wMPsMD4957eZz1m58ecTG/vqZSBjwqdfDgW+pMrl8N8dfeg596D7hZMYvwPv/GwIJzV9ffyT14bKiq+3dIw2Hwb4j83nwx77GskA/7G5kWXjoHUwkLGtjo6UGIMZiGeAhR/PEVtUIAMs/AosKqcUz4BG4X+O8Wc2Y/DD+EnTWEz1bMaJHs2gaQJg24pkQKPwK5IfTqpCGWDhV2hhOa1oBuqih+mo2Mq8DPxmKwpPv4Qpe6gVLX/cg+bbqJ3b/nA3TvxuLHycuti2x2gPsP5FrN/5Q3+ffSbi2I6xMTl0Hzr+8gwa7dMPMfjQfuQfb8HYmwLPHUuFL3H5WMkMpBC+oGEUY0/vR8sfD6HjNuDywR0YeHo36j3huVSlET0+xKB9gRyyLyAb88LWaNE3v4j1u52LwrZ/aDcR/yjG3mxBx18OFS+GxPiVXGrOjTKQeqvT+Hxxha/fshWNGMPlzwnkxAEMJF3phdvnF1BAC+rdu0b97S3A+AVcJpBe8/NTmBy7Dx3kTqCKofF5eQdIie9NxI1KZyC18EsJGUVhotg79eaf1aItmvhbty1Hnlw8U6eOAc3LUe+3cs4mVBfE7ci3+GPwuabB9znySSUzkHKro6KiFfnbi/2Nzx9Cy8QODPzhABp3P6wWcNHcXfFHMfX0ZjjbdrEvV+3tAdwuLogL1BvABApj/hh8BvYdJSG+z5FPKpmB1MKf+t0OjLsPtJcP7sdUy71oCTzc1m95Di3/2I6BnuUhe3VCqVjFQx9kiZ1o3rYWTS1/xmBPl4cbFoPnmQbfc+JGpTOQWviNz4u3OptxwmZGrM6qVf02NO9+EYWHXsLA8lfRuSVwZVBWf/gMOk5txomHSGfLf6JTebco4p5wAgBCbV28VPgkBm5WPAMJ/+Rlwhrb+VPrk38mNE9oVjjwa+v4zv+zCsR+cvdPrdMHJkjP3Jvlxp97ZOx5oxjIxF9gFS6MBh5mP8flcX2LTbnx9UXKSAvJQOqtTvrgxJdK8guvUu/6x19Eyz9e8m116h+P2R6VwoT2NO58FS3PbC8bfujEPJBpBvgvsDJdHg6uHAzwX2CVg1XGNIIBDV9gGZEnB8kM+Bhg4fvo4JNqYYCFXy2V5jx9DGgU/hf41z+34oNJH/68T8bObsW+s2dcnPLMUQyy3PjFmbh1YxnQKPwbmwjPzgykYYCFn4Yttq0YBlJ8gSW2Af8DrNqC6VOvYMSmoBlr1v4WP8gr+Jj8E/Z9PBE+Tl1s25O0B/i3Z7Ft1Rp/n3d2Bh8cCYtBxPkbnPlGGq/Dxo2/RIs8Rdy4ZwikyYG4cTP7DKRc8cdx5tRBNKzdj20b9+PhduDMqT+5PycmyaYSzBl8YF8gErM5RvTAyMdhMbiizj9rx+fEOIEjR2SMceNzzYH4cdMIBlIKH2i7u7jCL23dgjZM4KsCybVwCAeTrvTCrfAFLuF2LHXvGkvFj/sLX+ArAhlshsZQOIPz36zDRnKn8MUYNy4nSpuD9OOjMQykFn5pZuOYJsIfOd+LS6VG4T35W7GMXDxjF08C+VuxNNxDMeLGULigmPtWNNyccNxFTp2DIiLuyjYDGoTfjAayx2+7290CnT0UuWp7tNgrvthCbcW+I1tx5KJ/xfbsIhtuDPnlWFZi9wWmv0k47vqmzqFkTu7IOgOphT/y8Qv4l7vCfzV6ECM3r0ULEb5IeGnrr7AGvTjgvX+PoEGs0uJBdqOzx9/mexBV+4XGkF+D9ptP4giZ1xdj3DiZLlUOxI+bZjCQ4q2Ok1Db3eKtzlbss0/FG5PNim3JrfjBj57F9JFXcPDmP2BL663hbDT9EhsvitWemNz8KB7+kQpX2DRjzd1rcf7UVjhfa9EYivPuu+ji+bDixkkMKNrG5kDduG0EAyl+luy8EZlu249/b9KX21ejL+DAxbU+oYtvaz+Ku2D0hcBIVcZAJn6W/NU344GH2S/8b4mqrCic7sIwkHqrkz4s+mVTqfey9mex5uIrvq3OsvaY7VEpDPcwA6kYSLHVSYXLxsxAZhnIxFYns+xwYBXNQOrXmRXNBidXNQyw8Kum1JwoZYCFT9ngdtUwwMKvmlJzopSBVK8zZ/+2Cd8NU/f7cdP251DrdonxmYZ9+N7q5U7PyMu4cngMdY/uRV3pj2goEGDbHvX6ajYdxqK2U7j26i5c93ppo3RuEZvjR+0uYObtbZiZpn3SVwe+i3vpbVztfQOWnKbhCSx65BF4K0vEeDSvqviB3D2CZ0Tk5gRiY2MXFj+wVkYGBGOBxHPrBvWcpdwWIU1sJf4nDGfe/7F15cxnnv3sme3Wt3t/b824Pb7x6V7ryt4fW1fPe+bhjRLbfutqb681Sz1sm+3Wd9O0U7b7rat7t1tX399ufft+v+x0j59Z3/X64xZxltjNGd+yrPO/t77d649NcONxFTPu482yLD+vTvxqHuNzK8nVjiVQF5d/L16rFNfJ0c9jgGhjTuf9b2fWrP45anAUs86fY5GL/hSu9b6BnL1qk+7IZjtqvLvCWv9qGekHYOTvuN6wHnVr1iM3/HfMxtjXtt8PTH8WcidROEfin8K1w0dRs8l/V6tZvde988WNl84XzmupbbAnOrcLmBk4at8tFrURz2WP4Hub7od1+q1w7tqew+I4GwKZ9aZ3J55ToJc+gwUqWIEygZm3d8G6Zx985EZNsKwLtQ3nMdP7FGZS/ZjfAZ09fxS5FV2osXGOYuaj4P95BJ3cKT4avl/chtBhRTsS3+bgftRSIVGMuHFqK9tKXuVg1DEmt0v9mJ1uR22b3NIQrLZ7UYMxWFH82zaqhY7gGNJMtccP5jR75g1YDU+QlRqwTu/CDNpRpyI3COCdL0fdI4eRE88QvZsc/yTPBcL/0tuYGW5H7aNOMWtWtGNmuB/XV5P9tbi3nd6GK6edCcX+eLF8DvFiCGnE4V8aL+7rVRBx4wofFa/XD2/CFc9WPqM4Helya0HOu7N6gG7jPK4L4YeOB+3NPU8tfEoygg9w7kPSTfgtrvW+jBx58E1CUe0Dh1H7AHD9o6dwrfcpIIH4r4+cgNWw3rv4atrWI3f6BK5fesTrE3M7D4PL3YfotzC7uvhQHhVbUvwojCRjcbxGPVimy81d1ZXiDt69k0Rupk1q4XskR+Rbs/oF1A1vw3d/uxe19G1ChA8dkv7xq88FXB8+D0yfx7VX36AQmB25gDrVqt72GOoatmHmo8dQqxr3oSTAt2//uzA78px6uxM37s6XhFdfaKqTuNyWfR85hKzq4jkGLahVXhDuZLbN/bgpbFuniimjffPb44cmJbYuu1AzvAtXI/fbDoBY4X12I29hZjrB6uPa1T16GIu3F/9bdE97xIPactR1xjzIybwS4a9F3T3tuH7Y/3xSzCluXE6m4xiXmzoW+/XmYfHQ+5j3arokGvEKNM6mxCm7HalX/OSprMWiR5/A1d5tuLZMvJMP9xQrfO3bxT04xDNCgm2OeOjEil0l3xHYb0VOz38VToov3uAsgtieiecT92NvA93njphx6RJ19O/x5dZN4RFzhxGxLl72Mq7QWG2+D5fw6Nt+hdgoIjCii3+WbESZOEidDPDPknWyyVhGMVDGrQ7lIeqnAfK2rXi3TCG4zQxoZIC3OhrJZCgzGOCtjhl14ijLwECZXmeWIVKGZAY0MsDC10gmQ5nDAAvfnFpxpBoZYOFrJJOhzGGAhW9OrThSjQyw8DWSyVDmMMDCN6dWHKlGBlj4GslkKHMYYOGbUyuOVCMDLHyNZDKUOQyw8M2pFUeqkQEWvkYyGcocBlj45tSKI9XIAAtfI5kMZQ4DLHxzasWRamSAha+RTIYyhwEWvjm14kg1MsDC10gmQ5nDAAvfnFpxpBoZYOFrJJOhzGGAhW9OrThSjQyw8DWSyVDmMMDCN6dWHKlGBlj4GslkKHMYYOGbUyuOVCMDLHyNZDKUOQyw8M2pFUeqkQEWvkYyGcocBlj45tSKI9XIAAtfI5kMZQ4DLHxzasWRamSAha+RTIYyhwEWvjm14kg1MsDC10gmQ5nDAAvfnFpxpBoZYOFrJJOhzGGAhW9OrThSjQyw8DWSyVDmMMDCN6dWHKlGBlj4GslkKHMYYOGbUyuOVCMDLHyNZDKUOQyw8M2pFUeqkQEWvkYyGcocBlj45tSKI9XIAAtfI5kMZQ4DLHxzasWRamSAha+RTIYyhwEWvjm14kg1MsDC10gmQ5nDAAvfnFpxpBoZYOFrJJOhzGGAhW9OrThSjQyw8DWSyVDmMFC3dOlS5HI5cyLmSJmBeTIgNP//C5N5/EoCAK0AAAAASUVORK5CYII=;" vertex="1" parent="1">
          <mxGeometry x="1680" y="460" width="190" height="194" as="geometry" />
        </mxCell>
        <mxCell id="DroHx0XE8zM4UCk5UBcj-212" style="edgeStyle=elbowEdgeStyle;rounded=0;orthogonalLoop=1;jettySize=auto;html=1;endArrow=block;endFill=0;" edge="1" parent="1" source="DroHx0XE8zM4UCk5UBcj-205" target="DroHx0XE8zM4UCk5UBcj-206">
          <mxGeometry relative="1" as="geometry" />
        </mxCell>
        <mxCell id="DroHx0XE8zM4UCk5UBcj-205" value="" style="shape=image;verticalLabelPosition=bottom;labelBackgroundColor=#ffffff;verticalAlign=top;aspect=fixed;imageAspect=0;image=data:image/png,iVBORw0KGgoAAAANSUhEUgAAAIkAAACgCAYAAAA4h083AAAQSUlEQVR4Ae1dXWgU1x7/bemTKxhLdwPi7WZjLdyNK31wQZNSEps+aKVcaBpS6YPgZX2IUtv60ArmQYr3QqWNqA9NLXihFJumcJHb5MH4UakfEC8tpsmDH4lpvUI2Yi24vp7LmZmzc2ZyZmdmsx//zZ4Fe86c/9fv/P+/nHNmOtlE0uk0m5ychP7oDKgykE6nEQHALl68qJLrMZ0BdHV14RmdB50BvwxokvhlSMv1SqI54J8BvZL456jhNTRJGp4C/gnQJPHPUcNraJI0PAX8E6BJ4p+jhtfQJGl4CvgnQJPEP0cNr6FJ0vAU8E+AJol/jhpe49naZiCKZCaDRFRGsYDpS1PIGUMqObAwfQlTpoJs6N2PJpHJJCCHsX2YMVbMuX2qYsvYrHAK3/m5CUzM5p14AujF2zqReCrZxtvQmVqBuYkJuN05nVf2qsYkMSdnJ9UsTKotjpzEAlsOwEhcJzJRKZnFcmToxwxiTRSIFUdbZxviOUFGbwd2bAU2lW+DDBlkIOELqifD4H5SJu5aEoRDIrbd5JF7mAdWRB0/9XLukJvCpekFRBMtiDsEqos42qxES5wDkMNUYbVS2anG3NiiSCZi4CRy+M7PYsKBL6ieHDOOtkwCT8OumLKLMvaJkSSK+PNR5B/m4FqsnVPOLWABMcT8WBKPIYYFLBRWEKebcFcubNE4no/m8TCnQGrgW4Eo39+C6hXA8BUrhRVu8hXk1e+Q2G6iiQw6E2LyecxNKxIvxEtoo8kMMoUDkOJ8ofBdHNtT5D2hRvmCCJPtQfWAaCKFKCqXA8UUfYdIkMTe960zRyYDVOCwlp+dwKVZca7xzY2h4InNkFqrhZIoeTwtjAfVg7F9TSOFTKYN+dBbYrA5hdUitt3w4wLfSqyfQq/ZBN1Ggm5LXnHc4zK2fB5PvXAa+KzVI6ieFCs/O425fAz8AE/hQ48kRoLln0JXmqxTf37unnWb7JI7LnO4N5dHLNWJsuTbgU34ziAp31svwhdUTwaex+zENBZiKWQczmWd6vVr/CK06lmE/BxEJc+Hf25g3JY6n5PY24hXjGkg5X6GI2OzimTd3tol88AXQG/RcxILdy3vcviL0DUmiZ1a3aOZAf22PM26kENF4u6m9KzwJ6cpxDwc2FuKh4IeDpSBOicJf3JalidlgZLVqEr07m4atRKE561JQrg4VKDVLUk6OzsD5VClpxoL4qxUOy/f5fbnFWep42TOJDxhly5dcsxHlUS3jjAoZi/7EfbymPAhZOJa5VPIeOslV/nm+ty/l00Qv7JONfskVpJiieOJFf/CJEb4FIUXPsQ49+WWuf1zOddXfWQ/brnKrxhz66qui8VV6Vd6rOYrSbFki8n76ajkclHcSef6/ONuhY0Yl+P79YWt0FtqKzCX228puGpOklJAyzYqggi5LHMnW5YJfdF66Qob0Qp9ueUy8fHqC3m9tDXdboolO2gC3QWV7bjMXSh+LcZEX1zLtqLPZe4Ybr9Cl7dcJvS9+rJ+sX6xOMXsyi2ry5VEFFW0clJEgcSYSLQYF61cfJUfbi/rCH+idfsV436tiO+nR0lelySRC+RVSHlcLoxMCLkvF0WMy3ZcrrqW4wgfqjEhq8e2pttNJRMmiOSOwcdFseW+rOc1Lsjj1pWvVQTh/mRb3pevZXuK/ZquJCJ5vC31U8yH8CsXTi6O3Jfje41zHS+ZiCVa2Z+7H0RHxAqq645RzuuaksRvIu4Eua/97LmcF1W2E3153F14oSP7F/qilWXuvtufkKvGVbGEPpW25iThSSqWeCETrTtxYly0brm45nL+Ea2q71Uw2bcfXu5X5Uf2YQDx+U9YfR93SxKTOJOIxBebiUpHTmQQuSgeb8U/HlPuyxi4fzmGkHF9IRNj5WxVMcvpP6wv0q8vFktWMZlIgpeOGOct//Ciyx+vcVlH9N264lrIg7Tu+EFsqqWj33GtVqbrOI5+x7WOi1dN6CTOJNWcsI4VPgOaJOFz1nAWmiQNV/LwE9YkCZ+zhrPQJGm4koefsCZJ+Jw1nIUmScOVPPyENUnC56zhLDRJGq7k4SccWbVqFfvzzz/DW2qLhsjAqlWr8EwymWyIyepJlpYBzg/j/wIzxkrzoK2WfQYikQi1L/td9jmvywnqg2tdlq26oDVJqpvvuoymSVKXZasuaE2S6ua7LqNpktRl2aoLWpOkuvmuy2glkOQOjnV04Nidpcz3AX65vhMXyvzFifcmd+LU5A0LWGVi2LOutH87Uq17IUjCyRFBpOMHYAOAH/YgElkqWWo9fR0/SAZCkORFvHeFgf0LGB66iv3TfwNjV/Dei0HCaJ16zkCIX/PkK8l67McgBrPt6E39G5HIJxi8rSIKX4qPA+m38OjaZ5gxMpTApi3/wMvyX3QQmcudxKmb973lQo+3hu4VeQRo/gB/T29yjhWubuDCuBcGjvMAbjwRyh3o7u5Hi7iEn7ygaOEKOAfJrF66LNznNhtsb2eDt4tZ/Y/9fO0d9uW5j9jPT0y9P2Y+Yl+eO8FmjUtTfn6eMTZ/wqFXzCtjE+y82+fNiYLJ7M132JeF62AYbH3GVBj95OHnUIBbFx0ALMR2IzjPtx3V6iHkdtu60V45mpJvoRX38bjw16T4nx47i++DriDcbf4B/sBaNFmrUVN0rTH22A65qOeJIX8Dd590oFtagRwY/eQiUtg5CLs6aksgyVJmN4dHEklm7p7BH2HcRddgtUS0e/NXgOgaNIXxAQtD/ndF7DV4bmVAuRUz9BxCYaWhXGWSJPCcdCZp3fgNetYBNybPothqUEiVsZLM4ca1nTg1vhPj886VoKBXtGNhiP4FqxfpPcCjJwHllm3oOSyKSX+goiSZufkxfrFWjsez32Nm5Ra0SCTh6WlK7sMmnMFI4flGkaTxn35+SO3+xvonHzLVdp4YopuwbuUVjEtxHRj95FK4UHOQ7OqlG+LuJvyUWjfyu5udOGWY8juHNxVbwxq8vPkDPBr/DN+vPIq3kmu8A8X70T3PVxFJZWUfejar/HKdBDZt3IK713bCfMQmY7Djnpq3/Dl8+cklDLB1fecgm9VJv0Jvppm3jo9av8HWMv5BysezH2NkfouDFPwp63/9yFUnxaAIs+7eTHv8ZM51UH3gvFuimOVlgKmi2034/MgPvhZbr173ATbNf+bYblav89miFrvRIyEzUKHtJiQKrU42A3W33ZDN5DIHVtFb4GWeu4aZniZJw5S69IlqkpSeu4ax1CRpmFKXPlFNktJz1zCWmiQNU+rSJxqCJOY7rnvGxrAnEgG/f170juudY+goyCLYMyaAiZenZds9GIP13qzKl0PGY3F9/alVBgK+IcXfSAMD7LfSRrNgyI5a9qMs2z7IxAtrtwfbGQrXwjbLTG1xDSbMnfqMOX0z5pYHBK3VlpgB/mYaJ2ZAN2ZhRVENo9GsRASXm9uDrB1OUsi2RtHlAe5L6Bu2NhlNz6MsKxHUFU1fVigDJb6+6L3g3TnWYW1DEUTW78dVb9UAkqvYv15sa7zdjqEAVlql/BkIcSbxCT62B+v3b8AoY3xpArs9iHYfk+LirO1L+NS/wlE8ZRWSlo8kLoBjny5hJXnxDfS2D+GTpf2aoAuRviw1A+UjybYvMJodwnbr7uaT1CCypaICfyP/NnqH19vbF/fbcQxL+u3SkvE0tqF+VaCx6+87e/2qgG+KtALPQPm2G53PZZsBTZJlW9ryTUyTpHy5XLaeNEmWbWnLNzFNkvLlctl60iRZtqUt38TKSJIFDO0dwIHr5QOnPdHIQBlJQmNC548OoGXvZczSgFMUxezwSbQcnS6qQ0FI7Df4lp6S1w4cxr2lu9EepAyEIAnfToaBj7pwK3sGI4aTZhwc6kd2reRRdK9/h5bDOW+50IPKbxpfjXbi7t7jOGJ84Zorzv3L2JEdx6+Wj56Bwzi62bzgK8lu9OHegRRg+D6OW+/2AYcDYC5gsjrKOBwv92nHBJ/r1824eOJVJDGNA9sv4qVdcRw5PQmAz6UNY46xZmxoncevxtzOoOUCsGHXPrz/23EJO8dgxjr76j78pxcB8m/qmznj9jz223jNPa8SrgO+rpJjX/QfYoltJ9gXv5smM9+eYIltw2zcuDTlH15jjF0bdugVDyD8Ov0kth1ihi/GmBGn/0c2YziaYh8W+m4ZY+OfHmKJT6eskMK3jdkpL4Zsin247RB749ucpSTiSvMU5ny+BUymnZ0XrqQas7AXsIq8iTwwxn7/kb1RyPfiuTjz75774twIuGHakl466hmwV45kbxd6kMPd+xI1f7uMHYFWEMkGQM+AYHwMr7/aDGztK6wOyRfiwMy89S2OKRw1fmJN+2R7GhsKMqdPcSVjfu2VNHDvof+Z5foURpDG+70xy40zrvDt1drzsTVUY7YUwOY29GASY9bhf/bqJH7d2uVYqeW5OPJ//zI+v9CMg318BTU/hnxmEufk+ghhiDbEduPldR63OAhryxk5zb9hphlveqmXYZwf+LpOi2+e4Q7TZfCqcNHajFbFcOWGUujf1Yyun6ZxdHMM5y7Po+ddu+jquHL+53EkO4AjDsVmHHRch78oA0ma8ZJ0JuHng/7fTqLrn5fxuvQTHx6ah8X179B1Oo6vRvvNvdY4N8iE8bArZdhaoar5VwqNlfH0FM73NePsTBrvW2ctb/hy/st3BpHjhb4FHjl8EkPW8jU7fBEjrWm8LpGEO0/29uIgxtFVhdu782fsA6w8sSX3raX/8+EFy9U0Dhi31jGsawFGfrJuXTlJD/MDaokf99a39q94s3USu/nBfGvbokOnZ/4tOxtviXgUZqFXkp4BfnczYH1rMmcuP9G7PzFkT/Th1vYz2PECP5mLfd2tV8L15rfx1dYB7N5uFmbDrm70oBIrSQpHh7qxI3scLac5TvMOi881eaAPPdvNuxLjDmIgjd1fh5+LuWqMo2v7uHF3Y+bJPJMdmZlHzyuLtxrv/POc7wP2CrwWntZu664rPD7ZIuBhV3GqD2ip1UJmwLg7lO5yDPPa5L+kuxuZXbpfmQyc/2kSUGw1lYnm7zX0duPv0q3BHy6JB1lumfkQqazb0eIQHiN0cY1d4I8EFm81HhOp+LB+EbriKa7vAPpF6PquX9XQh74FrhoyHYhMBjRJyJSCLhBNErq1IYNMk4RMKegC0SShWxsyyDRJyJSCLhBNErq1IYNMk4RMKegC0SShWxsyyDRJyJSCLhBNErq1IYNMk4RMKegC0SShWxsyyDRJyJSCLhBNErq1IYNMk4RMKegC0SShWxsyyDRJyJSCLhBNErq1IYNMk4RMKegC0SShWxsyyDRJyJSCLhBNErq1IYNMk4RMKegC0SShWxsyyDRJyJSCLhBNErq1IYNMk4RMKegC0SShWxsyyDRJyJSCLhBNErq1IYNMk4RMKegC0SShWxsyyDRJyJSCLhBNErq1IYNMk4RMKegC0SShWxsyyDRJyJSCLhBNErq1IYNMk4RMKegC0SShWxsyyDRJyJSCLhBNErq1IYNMk4RMKegCebapqQn8LxHoj86AKgOcH/8H38PD/6J5UecAAAAASUVORK5CYII=;" vertex="1" parent="1">
          <mxGeometry x="1430" y="460" width="137" height="160" as="geometry" />
        </mxCell>
        <mxCell id="DroHx0XE8zM4UCk5UBcj-206" value="" style="shape=image;verticalLabelPosition=bottom;labelBackgroundColor=#ffffff;verticalAlign=top;aspect=fixed;imageAspect=0;image=data:image/png,iVBORw0KGgoAAAANSUhEUgAAAIkAAACCCAYAAABy4+sKAAAM/0lEQVR4Ae1dQWwTSRZ9Hs0pfYDD2LmM1nGWjLQOPlpCzgo5s8OBgEZzyEYc5oCEZA6ABgQrjdCSA1qhlQZpEgEHIq3ESnNgsjmg0ZIcJgMZxGSQcgzxgWTjmJkLNhcO5lqr6u5qV3e6u9yJ7VTb31LU1VX///r//eeqX50OJHK5HFtfXwd9CAE/BHK5HBIA2NOnT/3GqY8QwPj4OD4gHAgBFQJEEhVCNE4rCXFAjQCtJGqM+l6CSNL3FFADQCRRY9T3EkSSvqeAGgAiiRqjvpcgkvQ9BdQAEEnUGPW9BJGk7ymgBoBIosao7yWIJH1PATUARBI1Rn0vQSTpewqoAfhQLdIOCQOZfB5pQ7ZVR3llAzWzy28cqJdXsGEJyIrBbSODfD4NZ5pGFWtrFTRg2R+oeuylRlFMv3fJRPNRxJDCaDGLpK9nDTQaBoz3ZaxIwaRGi8jC6jPbLmVhlxv0x6ZRXcNapeE7Y7s7u0QSy+1mYFbg2dEUahJwzXEAPIHZIvJGi2CY8gOorq1gzcbOyOSRzdSwVmkdNtkHM3khPsrjGys2m02ifoS3a2twcmj6lkbGqFl9RgbpZAPVteY3QJ6X+50vjgLOl2gPX5jWQ1ZKHtB200DtbQMYMJrfeq+rtQ2slOsw0kNIecd23acwmk2iXpYSA6BRaZFgu+xZHbV6PdRH1bhjtraBct1AesiKJDWUhlGvNknkCFqNRqWKOpJIqgP3aHbm9oBIYiD1kYHG2xpCF8xavTWwDAMDqKPe/GK2AS0DmXQSeN8I8FE17nahtlNFI5lESqwiOyHOmvE0+NRafLq63RjpPIppEXcD1XKbUDAGglckMV2LV9lHvgWsOHuGZUA1HjhNo4JqvYhsHnzvcLZEP3lzpWlUIcOTzBZRzAppuWYRfZ27dpUk8r5r1hz5PCDv3Z2Ls2XLjo9mHTGEVEUU15YJ1XjYRHw1SScHUJXqMCEvkw9OwS1G+7ImAWBuJQYvS4I/qSSSrWwjLW5LA4Z7MsMYCJ67toNqI4l0xq3jKKjGHcHWGuaqtbKCFf5jnsha0+uG1AHVJPz0wgkQsu/yU0I2iUZ1xz4mh8FRw061gWQ2Dzmn5inB7LAKZXcRnMJQ2kC9yo/Ifp8GKtWwwlk17mcznn1d3W5cS6q5Na+4Knz3OD8iusfDIDZPMsgjny+iWfbw5yQWBZzxIn8+YX3MrSOkfjRXu2zWPGXU/OT4ChY2HuZwxDF3TQI4215EO3sRpz/O2gtqfaRDf5zVR8neT6hd3W727mjYY+/uLr17jyG+mjEhSQ3OY+/4Yh1bzw/udBNbyPrPcSJJ/+U8csQx2W4ixxWoUCwWA8f4g6xWP9xOFPlW7eoo1xMk8UtYO8nAExeVEH4+6UiAVnyKPUmCkhGU1DDyCMBkmSA7QjboyvWCfAvS0bU/1iTpVBIEMWSy8ASG3QsdOdG9QpRYk0ROiF/bm1Qh49fvl2QhL1+FHLcht2WZXmvHliRyksKSIhIpZPz0vKSR70Xba0fYU125nt+cKj2dxmNLkk6CKAgR9+S2CyN6TqJAUqwkCrGeHqaVJCC9ghze7UL0czW5HWCmJ7pju5KI5HUjC2L74XPxtriX20F+cCIJ+SAZ3ftjS5JOAhuU2KBkB/V30sdu2o41SXhy9rPkc10//XYlPYhs3UxwO+aKfU0iiOKXWL8+GTTVuCwbtd0rBOFxx3olEYnrZLLFHFGvOvoUNQYhT++4CiTo6osAvePqCwt1ehHoie3GGxTdtxcBIkl78exJa0SSnkxre4MikrQXz560RiTpybS2NygiSXvx7ElrRJKeTGt7gyKStBfPnrRGJOnJtLY3KCJJe/HsSWtEkp5Ma3uDIpK0F8+etJY4dOgQe/fuXU8GR0HtH4FDhw7hg0wms39LZKFnEeD8MN8nYYz1bJAU2P4QSCQSvfFm2v5gIG0VAlS4qhCicVpJiANqBGglUWPU9xJEkr6ngBoAIokao76XIJL0PQXUAOyBJFuYHRvD7JbaeLBEHXMXp3HtRbAEjeiDQASScHIkkBh7DBwF8Pg8Eon9kkUfIIQnlfl7GLpdFrd0jfZnnkfw1S8M7N/A/NwqLpe/AGO/4KsjhGOvIxDhD8b5SjKCy5jBTKmAqewjJBL/wMymH1H4djIPfD2OV6WHWDBRHMT1uQsofewD6Yv/YOhmLXhcVvn9GU6XlvHS7pucvonbx/h8d/DqS962B7jN7wbx9O5xZFDGtYmn+ORsCrcerAPI4V+Lo1hy9Q3i6PAbvNzm+g8x9AQ4evYSrry+g3M4g51r4n/Jseb64fgl/HcKLcRpyd8y7XLbfO6/4i+2m3G5sGifTTZTKLCZzTCtGrt/4QZLn7zL7v9myW1/f5elT86zZfPWGr/6K2Ps13mXXJhVxjbY1ZM32Knva7bYBrt64We2zSR7wgC3a47xDkuvOX9QH2Omn99sCCu2f8JvxthvP7NTTlyqOBlb/uYGS0v2TPuOX81pdG0BYBFqEsF5vu34rR5ivHmdnG6uHJmpcUyihv/93hzH62c43eoKwtVebGABOVyZEv8ddxa3zZVCshnSnJze/Q3263OZODaKSaxjyS6yK6vrePnpuGtFDIzz92f49skgrp8RqxBg4rC9jh9lHFwT6ncTYbtph/Nv8IqDY285Cw+WAQzi8yimhwcxHEV+37JZXDg7iPHnZdw+lsSPz95g8stm0v3Ny3G+wa3SNG65BAdx3XWv902XSTKIT6SahNcTF17fw/g/n+FEqyvC9hvw7b2bb8FkCjkcfbCBn84M4oftHK6Iuicwt3Kc8axB5ND2sN3I6uHthZv3MGcvq5X5p1gYzuGERBKunZmawnUsY7yVY6e99H87X7cnLuPaxWeoIIk/DgELz+2jKy9ub/ICdY+fnbeoyKof/wmfD6/jHC+YPx3dVXQGxmnrNf2Vjcan3dGVZHKan26mMWTiwb9R/KTh/SRRunsGryYe4vQf+IlB1BteOX6fxe25z3C6dAdDD/i9dWLiNjPXzmBywjqVmCeI6RzOfednI7zPWjWWMT6xbJ5uLH+SOHF8ELe232Dyz7u3muA4eWyXgIvCX3vu4c/sU1e4LzqNdqCw9jltdGCWrpo0T2HSKcecvAfj9IC6x9ONTvzuni8/PV8HfLaa7nlwcDN1dLuJHhZ/6CUevu3W5g+3wrej3Trt6Slj6QkwOb17q2mPfb2t0IvQeufnwL2jF6EPPAXxcKCjR+B4QEBeqhAgkqgQonF6W544oEaAVhI1RmqJpfNIjM1iXy/rqWc5MAmtSLI1O4bE+aUDA4Mm9kdAK5L4u0i9B41ANJJszWIskQA/O/Mf60tvvfvqWgBcy+8SzvN3YWf5O7Fc7zyW4O0bw9hYAiOXV4G5CVNubHYLS+cTnpXFmouPAbzN37HltoRP3nduLXnhrzW3BLlvPHw8it4YZl9JNs2mQt8rHoN7z9P6oNtFVgJYwXklbZGVCjNsk/E31cBKi5LeYonBHON9lh5QYk0Rvz7GNmcKDLIhbkfW25xhBYi34qx54dzb+pL8Ygkue6Z9j19B8ch+mHqOXWtelx4gxctY+LwSTjFo8t/dcA635qo3YY5WaySRcy+I4+7zIYlNMCHnJpHPvKa8TSIXoYSznJz2eFA8pp5MaK4r6fmNy18K1bzClZhco/+Cr5DFSFeXxpP420wBc494MbuFx/OrKH1xUuHBKsqbQmQVl0fEVsSvE5gTQ/zqF89mGauyjNkeQbZg2/Ud9yoo5vWKa34frSZZLcPBv0uBHTk1hcLcIyxtPcb8aglKjqCArMPkEhYZ40ul9CO9n+sXz0gWhV2xbaK8atv1HfcqKOb1isfgvsWFz6ojXHuxvb+79mBzuZX3aEtPbBnWZH599nbj1AzCLVF7uOsLZtdCu2oSR99bOwh74hoUjz2f5HBoLbMrXtW8Yv54XKPVJDwmAYhZzIgCkg9YgFsGS2xR3qM9dYUFjT9JZPtNMoqC1FMcOwWzZ24X9hLBrALMVWDK88lkc8cjE9427sKhxBb5vUNOLqOY1+Wj3jc8p/F4VYAfqSeARXYfzYqEHzNHUP47w/1mZwwW7ni5yB8faPbSkT+AS4/mgNKiRBB/OertDAIxIMkSLI7QctEZCqitxmO7UcdBEh1CgG830Y7AHXKEzOqNAJFE7/xo4R2RRIs06O0EkUTv/GjhHZFEizTo7QSRRO/8aOEdkUSLNOjtBJFE7/xo4R2RRIs06O0EkUTv/GjhHZFEizTo7QSRRO/8aOEdkUSLNOjtBJFE7/xo4R2RRIs06O0EkUTv/GjhHZFEizTo7QSRRO/8aOEdkUSLNOjtBJFE7/xo4R2RRIs06O0EkUTv/GjhHZFEizTo7QSRRO/8aOEdkUSLNOjtBJFE7/xo4R2RRIs06O3Eh4cPHzb/tUO93STvDgoBzo//A2Qo5UtYn6QLAAAAAElFTkSuQmCC;" vertex="1" parent="1">
          <mxGeometry x="1220" y="460" width="137" height="130" as="geometry" />
        </mxCell>
        <mxCell id="DroHx0XE8zM4UCk5UBcj-209" style="edgeStyle=elbowEdgeStyle;rounded=0;orthogonalLoop=1;jettySize=auto;html=1;endArrow=block;endFill=0;" edge="1" parent="1" source="DroHx0XE8zM4UCk5UBcj-208" target="DroHx0XE8zM4UCk5UBcj-196">
          <mxGeometry relative="1" as="geometry" />
        </mxCell>
        <mxCell id="DroHx0XE8zM4UCk5UBcj-208" value="" style="shape=image;verticalLabelPosition=bottom;labelBackgroundColor=#ffffff;verticalAlign=top;aspect=fixed;imageAspect=0;image=data:image/png,iVBORw0KGgoAAAANSUhEUgAAAIkAAACcCAYAAABLP4jhAAARlUlEQVR4Ae1dTWwTVx7/ueopPlA+nAPQdSJixBq41cA6ixoutIDKggpRhaqVqkpGVSsStmVVqXukUkWqklStKiLRaquKVpTdsq0aKBeCUgLBvbVECAclKaQHm1D1YK6zejPzZt4bv/myx/Z45llC8z7+3//fvPef8YtJbN26Vfn5558hPzICoghs3boVCQDK1atXRfNyTEYAu3btwhMyDjICbhGQIHGLkJyXK4nEgHsE5EriHqPYU0iQxB4C7gGQIHGPUewpJEhiDwH3AEiQuMco9hQSJLGHgHsAJEjcYxR7CgmS2EPAPQASJO4xij2FBEnsIeAeAAkS9xjFnkKCJPYQcA/Ak+4kraRIojeXQzrJ6qxgdvI2yuqQaB6ozE7itkbAMtq3k73I5dJg1ZgyNB1dizYyBbzVxSKK81Vdn8hG1gdK5mSDventmAkZSLQQmEHXAp7d3I0ygwJzHkD3ZgxkB5BLsolyCKVKn1KBVTSA1Y3NA5vRXaZgtOEX8aqgySEHXj9rY/fmAXA+iOTAow02pjVzOOTbTRXlh1WgK8nd9VxAyrcxOVtBMt2Dbm5C1OnG5qwGEAZzAMq4baxWIj4ylkRvOgWSfI63Oo+ii/5ypcL40IgNdrY1dzzkIEmie00S1Ydl0MVcGI5yBRWkkHJDSXcKKVRQMVYQoTTxYLIba5JVPCwLLFH1dyHJ7l+GFA1ceFzVfGjEBkNmaxuh3G6S6RwG0jQQVSzOChJDpxu4JntzyBkFkKBuqJH9GFVbU5JkwQNFM+sDWX0mjZqFF+rfBp6/Fb1QgoTdz9WaI5cDikXYxLnuOFXnSfJoXeNFjL5aCIFSJYuF8TF8UOuPHnTPi+sd/zYYKlrWCPl2Q8oFspXod6ldWLwu4V63JZGeahWP7exQ9dusMuUFLFZTSPfqe1EjNojsasFY+EGiJoC/S7m4kKeLLCkoF/THZG7W0iljYbGKVHYAm93qFwsnKW413hxovlUSV/1VzC+yhTWVU48NNUa1ZCCU2w27n5MokHcY7FbDz1exWOTnnSKnLu9l8o5iAANZk5JsD2w9S4BkzhMdRcyT7am6GQO5ARglEzzoJ6tHNqsW1uUy4NUG07r2tuQfZ7U3/qHXLv84K/QpCoeBodxu6g8NeWuZRcpGgPHEYTMvh8URiBhIyJtTtrIQOy1H/UUg/E83/vyR1E2IgARJE4IaNZEdCZKBgQFPeXCic5oTCfdLT2SIeERjIn1hGgsNSLwGj9BNTk4KE2ANrFc6K5+oH6QskXx2zGssWJ5mtkNRuNLEuznK0tGkkWszPnaJEo0HbUOzffMbr7a/TGMT72S8HZ3duJMsMlcPnx8elpa0nT52IGNlOPE3c468TAvFSuLmpFOwwnbXiXxhQeDki4g3DGNtBYlbwMg8+VAg2AWMnacJobxO/CwNpbPT4WfcKpfy0nFypXbSOdGV+uWFVsQf1FhbQeLmBBscti3is87TPk0M7VNer4mi9F6vVC7V65UvzHShBkm7AydKtHXMCj5rn/rAgofQ0D6dD/M19CCxJsUpmHYJcuJxmrPK66TEOvnld66tIPFyR0UhUSJwefFdxOc3wUHQh+ZlmhdnrEEjfa8fP7ReZXqhozaTK7WBtilQvMhpJ03bQeI1UDTYbLAa4WXlNLNNbCQfcrVri/SL/BXRtWKsrdsNdZAmmwaRjtMrewfSMfbqFlA7uayMMLXd/Gm1raEACXHaKZFOc4SXgkgUPDdeEY+TPLu5evSIdJOxIGXZ6fAz3vbX8n6MlbStj4A849r6mHekxrYXrh0ZtZgZLUESs4TX464EST1RixmPBEnMEl6PuxIk9UQtZjwSJDFLeD3uSpDUE7WY8UiQxCzh9bgrQVJP1GLGI0ESs4TX464EST1RixmPBEnMEl6Pu4kVK1Yof/zxRz28kicGEVixYgWe6O3tjYGr0sV6I0DwoZ4nURSlXhmSL+IRSCQS8r+hj3iOA3FPFq6BhDHaQiRIop3fQLyTIAkkjNEWIkES7fwG4p0ESSBhjLYQCZJo5zcQ7+oAyRzG+vsxNteI/iUsHt+P2ZlGZNTyVkb349powEJr1cRuxAdICDgSSPR/D2wB8P1RJBKNgiV28e5Ih32ApA9D1xUo/wbOj09jePYAFOU6hvo60m9ptI8I+PhbYLKSZDCMUYwW8hjMXkQicRKjJRFQyHZyCnjrCKpvvIuKalAvej4aQ3qdwLqZ07j23oL9PMui0l5lR4Bn38Gzw9v5MbVH7HgNCwt0ahey3xzX/4OCGcwePIfkyz1Y+ILI0+d8yadyo39V/H1Kymg+r4yWnLgeKAvDLyiTB44pCw80uuqFY8rkgQ+UstrV5m/fVBTl5gccnZNURbmp3LbKPE2EaJ/y6ReUSaOv22D0FYW3gcgiNlKbiAxn+VRPnK4AFB/bDb1byLYjWj3ovHlNvW2uHF0vHkEKC3i8ZM7jwQUUva4ghG3pPqroQZe+GnWt7wEW7+MxI9JoLt1AeWEXsswKI7Ih9TZdWXzKNxRFv1EHSBoJyjyqD0z+yhefixNskvCtdU8jyQCtcuMqkH4aXTyV1nsgAs96JHt4GzhWP/I5xmh3fNQkQQSiF8n1ppzU29+i58EQiu9fQOr0IXGyTXJ9JZlH5Y390MoMUkeIahEA6wl47rPcAB6gusDbwBGoK5VH+RxjtDtNBUnlvSEs6sXq4/+cQ6VnJ3oshWvXi/9Ez4+voTj6tE3xySSArA62RSpDR5rr/oLuns8xO5o35NrZYHD6kW8wRb/RVJCk3iZPN/txTY0juetFq8U6pE+/g+rBd1F8+hPkXrSgiM3B9uPI3tiPaweZwZ6/IydchUy51zQDAFtaXZ4v+YwNMWg2oVhnnl4ClK4+nQx/rVQZmeSJ5tYF/RGKGa+n2Wz59djUbp46n27ad9tU789bCtUlPF4Mzp5myw/O0tZKaup2498V8oKLvnyr5e56+R30/Pgut910veyyRdWKsR1JDX+CnuOvNU2+reKQT8iD0CFPULvNkweh252BDtHf4pdpHRIVaSYXAQkSLhyyI4qABIkoKnKMi0BgILl0NIHE0Uuc8FB2Lh1Fon8MDR2sC6VjzTMqMJA0z0Qpud0RkCBpdwY6QL8/kJClOpHg/9luMfqZWIP+KMzN6BKOkvOxY1SePuckf24M/YasBEy1TnoAcHz9GLtrzYoLv5U8pn2PXw9MKAWYJ9JKo3kFhQmDd6IApk9Or7F9RVHpUVA0DiILCow+EeMkX6PPG8fhJpRCflQpKW56tHmOj+hVeTXTebt1O5l5w8GYNsh3N+S+8OZ+aVTJs0mdKNgH20qramBBoCWdwRjJjr18oovVTS228lj1iOZZu9V5E/iaWNZOqii+V39f8PVtxBb8grv6Y8Gli+PAlo0QHpYvzWK6ZlnOIJufxmypZkIbcJOfzyJjZXXTI5y3CpnGcIbdQvdi3EoS8773L/jm7uIXTGM8k8CwGrQCJpQ94vBlsshj1jJXwux0HtmaTOtkbvKnZ0HwxYHSVY/IDotZIH6cgY0nVuLY9r2tpWSZ5vYHno3f221qBWOvF2w3jvI1eq62cKpJLHoMPnV7YWsSa83C+yR76k9g+ahJSGlJilOtkNGuRjL0OQ5EWmINeoZWK1KhcOQu8rWahepn6wgnPYpe61C+gjJBgMLZogPaxq+4A0XPn7fCVX064YKrAcO4SxuMZrPlN2hebNl9Fa6l2WlLoTqHu78Et0U3W35wlsZTkse7pHZZDmoV0QxotnyPbkoyLgJkJZEn0+K5MHj2Wp5M8xyqeBP6++4m3rGKrfcSJLFNvXfHJUi8xyq2lIGBpGNOpsU21fU7HhhI6jdBcoY9AhIkYc9QCOzzBxKnk2M1zjid+PJ7Mk2TdfQS4aNf61t++ZE7gWY9uUZoWV5yEo61zyKLmyP62FN1NY7GYoB7w2bfIV+kmV+stfZkGn0ba+rnv3WmJ9U06/nvgSgvPRVH++YXjDx97ZeV1nn7GEVvxtd3N1DPe2zBRv1AR9/GLcAvd8V/mjD3Pc5PFzBxxjyl0Tf0LxSYQ0vk9itMMOc4PMgvTJi/1bbnQIHRvwdnrg8ZZ0369g0ir58/obe5qasP+wbzRDmoeaovlH5uDCfH8xg9YbF9+jy+j+nfYXjfbtxOjtFskKvwRFiDJ9NY+YL23Fi/eUA7Myw4GSdgsh2Sp9XY0HTOyTTWamv70lFkhrdgQrmunTAj9UnGejLOyuTUl6fV2Oh4X0nI6lCYIIdP9H/MVsFKJO2+fRjMj2Ov+XcPmBs7ifH8IPZx5w8ZRj/yGTZR89JIAyuJbvvJxn48X2RWx455B8meM5jAXnNJJ08Ztn8uSX7rdQKFcZM+c34QJaZuqImYL/kWbsJbGMde/cnnZHYUBQuJ9y6xvYTB8xmPvnqX3MmUnkpyUYVPnjCCOlPSbPmenJRENRHw9XTT7JNjzZbfyXdxGGyvQY94wHy/QNBF/gW1imj6mi1f7JUcdY4AybM8mRaG2zTENsiTaSFOTphM8/50EyarpS0tjYAESUvD3ZnKJEg6M28ttVqCpKXh7kxl3r+7AXDvu8O4fId1dCeeP3EMG/QhMl9MjeGlHWu1kdKH+Pjir9j+6vt4ZhXLZ23/hp8+G8LMQ3589U5NFtVL+5Tq95tv4VxlEK+/AFwZGVF/dYDOmVfNRhDbccKFNo3VaxaxvIbQbTNEqPpVXn3s0Tf46uw5LBsUAG+byB8+ViqrQE7mwNfYbffLC4y+VjedH5SZ2blvDylf3lgyRh7deFP56NSYMqePcPPL/1W+PHVI+eGuQe7QWFKKn9rTqnI/5XURYar+b2d4uareN5XiMj9MZHzkhfbumPLRKYbfKk+dt9iq+2rGRvPH7CtKjX6RHGVG+YGJJ+9Be3q+3riKkLtyxyAymMK9mh+muYUrZ89hVZB3xZ8HsX3NFC5/d0tkSnBjmWN4ftMiZq5reu5dP4flTYP6SvgbfvpxSl01uLt91UG8dGAnlqcu4J6NJRs27QQeLuF3df4WrlycQu2qsQ27mZXZRlTLhxurSR4t4RHSWLWatfsBfvpsBI92jgW8bK7HM387gtV3zuOnR6y+4Nsb+omem7j36BsU76SxvZ9uMzOYe5hG30Z9O2VVZ3Ygg1/xu9A2DVxYsw4rCU/pJkrYiQ0h3FZYl2jbV01CmehVvcvWHMFzTL2xPDWCZaSxXRRIymhzLV08zNQVgj181UHkNp3D5f99gw2vsP99lo3AeodVPYdx+SyATSfwEuMf8Ces5PqskkU8IoWKPr88NYSPp7R5UrO8Tms1lgWAWltN0f+4R+C3hb7VXd8gYR3HmiM48spB7e7QLSfBeA4f4NzZD7HS59JZu/zWhmPDCyeQGRnBDze347na6cBGtNXkPnJMAasJ11cLIVD4VdUoZtUC/gLu7TCLfNbQlTvex+s7yApDCn12Jhxt39uNekec+Bqvk38WgFCXVu74RxPrh23Y7bL/UzsCv65ah1XQVwurcHULsVllMofUeBRv/qZxqVuTqJazCg1H3zdIvJm9Fs+8cgKZOyP4igbGG6M3Kj3oM8YS7Y2tcaptyO1Mo3TxLb4uIo+yF0lBe8h4HcDrWotn/soWtlTOYVypKfp5zjD0fG833o3eht2vHsFXZ4dwZbW3Z3++JrG+e2A1r1WL2DnLuwqWolltdWtY/SE+PnsYM4aSNLa/+rXzuyB19RjBvdIxtWBV5Wwk71sO42NDjuYzfe/EDLe1KY8KtDX84VcujwqEP0ehsLCJ2w3r3y2H1+ZO2worQ7bbFQG53bQr8h2iV243HZKodpvZpEfgdrsl9QcZAQmSIKMZUVkSJBFNbJBuSZAEGc2IypIgiWhig3RLgiTIaEZUlgRJRBMbpFsSJEFGM6KyJEgimtgg3ZIgCTKaEZUlQRLRxAbplgRJkNGMqCwJkogmNki3JEiCjGZEZUmQRDSxQbolQRJkNCMq68mnnnpK/b3SiPon3WowAgQf/wc9WgQH+yi33wAAAABJRU5ErkJggg==;" vertex="1" parent="1">
          <mxGeometry x="1720" y="240" width="137" height="156" as="geometry" />
        </mxCell>
        <mxCell id="DroHx0XE8zM4UCk5UBcj-213" value="" style="shape=image;verticalLabelPosition=bottom;labelBackgroundColor=#ffffff;verticalAlign=top;aspect=fixed;imageAspect=0;image=data:image/png,iVBORw0KGgoAAAANSUhEUgAAAMMAAABwCAYAAACjIcRxAAANgElEQVR4Ae1cvW8USRb/zWD2Tu7AgNwTHTc2ZpPxOeIGCdBpB1lr/wcHF2yCVnuChItWOukCByuddiNIjE5akWxiZ5dsYBDCp9MayQMRshM+7IGLZka2CNr4i+lTVXdNV7e7u7p77fG4+rWEpqrfR733e/WqXtUwLkxMTNgvX74EPYRAnhGYmJhAAYD99OnTPONAvhMCuH79OoqEAyFACDgIUDLQTCAEXAQoGWgqEAKUDDQHCAE/ArQz+PGgXo4RoGTIcfDJdT8ClAx+PKiXYwQoGXIcfHLdjwAlgx8P6uUYAUqGHAefXPcjQMngx4N6OUaAkiHHwSfX/QhQMvjxoF6OEaBkyHHwyXU/ApQMfjyol2MEBnrnu4HRahVlQx6xhdXFFTT5qzA60FpdxIrDIAvGtkvjNVTMGFljFNVqGV1TrAbq9TVYQmsMXegWrIDaB6tRR30NCv8BrhurWJQdDtoCwNEnrE2Cm8cTimdpHDUGmAqHA2O7NnNR5qOwCTBGq6gONrC4AozXKjA9wKQWw24dRrWK4XaI/HDbHxdJ8iiaPUwGx3wvkE6AKuMlNKXge3QwpFGr1FA1/EDFA1GCaVpotQDTLAHNQCZxnYNo1BdRd2PHAlcZbTrBVNEDE4IHvTYOFnUxUuiEc1NP9o9P/oD/Pt/cScr01YVynhxVVOHHRNYbhZtlWTDLozCaUuIzmE0TrVYL5qA0epqxLQtGeQSlNQ8DT1MTK4uu8dz2YbTrdXh5Y2DUYz7W1jGWSRaabQsYNLwVOghFcwWLqy0H6CAtql8yYVptrK+3YZkmSj6+EsYrJlqrcjAAa01MLBXdp4x3rLUGWjDB8i7t02QZG+m/gdGyyXcBaa1gxqKuwiQCt61GAy1jGKXulgi2hKNstvji4dmfcux2Aw3LBFvYTvJzjMlgoDRswGo3vfIkDMlmK9VkY6sc12k10bZMlEelyBsGBtFCS6yywfFU9CA/63MZC1tehRDGFfLOmXBMMFTUKGHYsNBuhlA5JoNs6OgnFLcmWi0Dw1I2GKVhGK1Wd1fjClOPbWFttQHLLEOGO9q4/qT0vEwyylXUygIMC43VkGALctpPvspZaLv1D9t5ysMlGGtuWWAMRu9CbCwVPcSe0kgZhtWA7IZZqaFWEczymQKQ/WelzaJXLwgB6XMLViQ8BttUEJ5JkopAk+1GlYooaUoYKQMNVoMZwao+5djWGhqtMiqVUTTZASnlI+PSFbXa3WYvGj1PhgO1bbUK+GrI7G7zVc5qdyem1WzDKrOyYE2qUbPrF5K+wAUPnYg5uMvnDV6Ti0kpNAc/3dU/NCGy7EYA2I5RqfCyrsnKO6vtnJ0O7DLpx26urMKsVfj5azXoiqLvmxe8equiOqwQOmRyz5PBZ78bmNgVjp0B2I1NVGnTVeiUXax2qHpbj0MtGVhjK7A8EcL0qejuWMHAdU1I02iuo1Gu8jKuGbY7WBa2UA5f/TkmW92kDx02Ercm1htlVM0SSmAlZf3g5pJ57CZWVk3U2M7TCLWqr18e45mBX2OwcETX2+z2ocIOkev+mjYM0tIIyobFb4kWFxch/tUb7k0Hl2ETwYJZqfpqW34jxItdFT1s4KzvLKw14i4Hwm1hB14lJgoevmOaFVTMFhphiYhfMTZLcnZW89+hZwWpp3I93xl8JYZbUsjx8NOdyS3To9BhB2e0Vg+UQ/y2p+yWBU335ghVVKs1eEcX9j2DU4vwm6UYetT48nv/mUF8LyBzuG3FTsRsWbTGUZNtRTgmqXDjlwtlGFuBg7NkYpqxJTF+iGGH6WH5exw/Q9/26I+I9W1oyLBeIkB/RKyXaNNYfY9Az8uk7IiUYr7WF6VI6LVL9iFJMlcInKBkkL7Wz1WIyNleIXC8t0m98pLGIQQSIEDJkAAkYskHAieoTDregNRqNf7dhcqKOL44mqyX8ake9j1K2BM1RtT7MB15fZfrnSHJpGMTQ0ykJPxskibhU0048aVh2KdKVtDT2JGGV+jX7TO3ycCCH7W6ykGW+Q5rosv6e9VW2a6i98rO4xwnl8kgT/A48MP4kkwaxnMcj2yv3E5qSxLfkuo6iXx0ZoiIWtxkEpPmKCc9G/+wn17Yfdg291Jf7pIhbpIz4MUkFBMnKhgyXSSFkGUyMl3WIfMIPpku2kKn6MufQR2MJr9j7Sh5YVdWumyHbu3cJYMqgPIkkdthckG66IuJKfpCNm6SCp4sn0KvPK5oB/Uxm4J2BXny2s/lmUG3YIdNbvFOTH7R1833w/SHdoYQNKNW1RDWI1tl09gQZhe9S49A7pKBrZBsosWtlEGaij897GqJoA2yxFEmynH4Kvt2nG0qkxToBydHmomYhldhBpF7gEAuk0HsDip8g4nA+H+NrGo8Rg8bM4lckCeLniwywXFPcj93ZZIIlpjUUeUImxjsEZ9CTnyqJk6UXiHfb58qf/rN3qOwJ7fJwMCMm7BxNCYblSQqvXFBVE3IuDFlvUE9Qi7OpziarFvnNv0GWufokm+JEaDfQCeGihjzgEAuD9B5CCz5mB4BSob0mJGEpghQMmgaWHIrPQKUDOkxIwlNEaBk0DSw5FZ6BCgZ0mNGEpoiQMmgaWDJrfQIUDKkx4wkNEWAkkHTwJJb6RGgZEiPGUloigAlg6aBJbfSI0DJkB4zktAUgcLQ0JD94cMHTd0jtwiBZAgMDQ2hODo6moybuAgBjRFgecB/z2DbtsZukmuEgBqBQqEAOjOocSKOnCBAyZCTQJObagQoGdQYEUdOEKBkyEmgyU01ApQMaoyIIycIUDLkJNDkphoBSgY1RsSREwQyJMNr3L92Dfdfp0HoPfbnp7H7No1MTnjf/oDt+Xl0+sbd/MYqRTKwJCigcO1n4A8Afv4rCoW0SdE3ET80Qz49nu6zyZzOtc6LO9h+/CydkKbcKf685EXc/cXG3df3ce3zJSx98w/Y9r80hSW5W6e+XMCp5OzE2ccIpEgGtjN8jr/hHu59cxV/rvwbhcJ3uPfqF9y9yLbWfwJTX6EzN+Nu+WMYuDmLgbMh3rPSYGE9mi6LbM5jZ+4hxH8YKU4v4LMLLkMULfR9EhsZz9fY3xAGTOL07W/dyf4Muw9+QvHyCPaXnwBwaHg8jT3M4LdfXnGF4nQA8Nk2hoHLI2IwAGE2snH+ArtrVxDXuPEcWqc6AywE4yLLzWD7NVC4/CN+c0mYw/wNygiavp92uueVfe/qVfveK1nqnb03N2V/nL1t72047z89v21/nP3e3uddh77zxrbtN9/7+GQtB9tL9s7cnP3JJXCd3f6SvTM7ZW8/f+dSBW/Ue5WNtr3/aMr++Gipa0bYeJ5PDptfxh0jqCOAg8/m2Sn7Y9cnYaMft4+zUzbHzrZtv03JxpPj4rfX1SfZa9vCBi+WQZkuQBo1ANgpzgxiNWDlEtsNRN/7LE57O0Hx0lcoYh32pkfnq2LSHYGLXcFnN250/wNV8cIXKGw0nF3i7X/RwSQGLp13B3B5o967XJE2bs5j//UYBv4oVniA+7DxH3QkH4rTYqeQ/BLNzSV82pjE6e4u4eoQOLh0n83Tk0K6++mNcR7Fi2PAxZnublg8OwIIDFTjuRpln0+NTQIb75QH9iwyXQdOaCNFmZTFwzfORHJLpc7yQwBjqRSxA97u8htJRpo858r8v91KRKcZ9f4AI3sh2/gG+3PT2PfxjXWT0fc6rLPpJqqP9jsUz7ljIIzuY07XUY0XVqKmGyFX3EecDGMoSgFh9f7A5h3sPppHUVrxIxF/+wN2l0dw+vasU7fzervhsYsV0nvjtKLeB/l4X7ZRPiOEMse/PMuSU7KPc/8PnQ0xRhg9XmUsVTlerDQRAwhkKJMCGqRuZ+EO9t2SovPiJ3TOfeFLBsZavPR3DOAhdjNc53167h2kceFPKOIJ9l+8dy14hl12Xx/13uWKtPHsVZw6J+uTHEvadHXsSb75cDj7exRkm1lyL7DDeMZHNV5StQnKpqSqTjLfoe4MxWl2mzSNbY4IW2W9et8D6TwGbsyg82AGO+fY7YWo+T2ObuvCtzh9cRp7D55gD+y24xaK3ZX3Cj67eQs7c19je5lJOLcsLLvD37/ndXK0jcyuH4F5oc+14twt37mla1tow/ON3c7wxycftHkSp2/ewv6jUGUJXqrGU6vg57Dlh9h98DBwm6SW1Y3jkH7pJq7wpGvPvkPqJNjYd6DlxiD6pVtuQk2OJkHgUMukJAP6eeQvdvwU1nO+BIopow6K0BtCIDMCh1QmZR6fBAmBvkCAyqS+CAMZ0S8IHOrVar84RXYQAlkQoGTIghrJaIkAJYOWYSWnsiBAyZAFNZLREgFKBi3DSk5lQYCSIQtqJKMlApQMWoaVnMqCACVDFtRIRksEKBm0DCs5lQUBSoYsqJGMlghQMmgZVnIqCwKUDFlQIxktEaBk0DKs5FQWBCgZsqBGMloiQMmgZVjJqSwIUDJkQY1ktESAkkHLsJJTWRCgZMiCGsloiQAlg5ZhJaeyIEDJkAU1ktESAUoGLcNKTmVBgJIhC2okoyUClAxahpWcyoIAJUMW1EhGSwQoGbQMKzmVBQFKhiyokYyWCAycOXMG7O9M0kMI5BkBlgf/B05RTc3PIf7/AAAAAElFTkSuQmCC;" vertex="1" parent="1">
          <mxGeometry x="1950" y="460" width="195" height="112" as="geometry" />
        </mxCell>
        <mxCell id="DroHx0XE8zM4UCk5UBcj-218" style="edgeStyle=elbowEdgeStyle;rounded=0;orthogonalLoop=1;jettySize=auto;html=1;endArrow=block;endFill=0;" edge="1" parent="1" source="DroHx0XE8zM4UCk5UBcj-215" target="DroHx0XE8zM4UCk5UBcj-217">
          <mxGeometry relative="1" as="geometry" />
        </mxCell>
        <mxCell id="DroHx0XE8zM4UCk5UBcj-222" style="edgeStyle=elbowEdgeStyle;rounded=0;orthogonalLoop=1;jettySize=auto;html=1;entryX=0.5;entryY=0;entryDx=0;entryDy=0;endArrow=block;endFill=0;" edge="1" parent="1" source="DroHx0XE8zM4UCk5UBcj-215" target="DroHx0XE8zM4UCk5UBcj-219">
          <mxGeometry relative="1" as="geometry" />
        </mxCell>
        <mxCell id="DroHx0XE8zM4UCk5UBcj-227" style="rounded=0;orthogonalLoop=1;jettySize=auto;html=1;exitX=0;exitY=1;exitDx=0;exitDy=0;entryX=0.5;entryY=0;entryDx=0;entryDy=0;endArrow=block;endFill=0;edgeStyle=orthogonalEdgeStyle;" edge="1" parent="1" source="DroHx0XE8zM4UCk5UBcj-215" target="DroHx0XE8zM4UCk5UBcj-223">
          <mxGeometry relative="1" as="geometry" />
        </mxCell>
        <mxCell id="DroHx0XE8zM4UCk5UBcj-215" value="" style="shape=image;verticalLabelPosition=bottom;labelBackgroundColor=#ffffff;verticalAlign=top;aspect=fixed;imageAspect=0;image=data:image/png,iVBORw0KGgoAAAANSUhEUgAAAM0AAAE1CAYAAABECmSpAAAgAElEQVR4Ae19f4xcVXbm19H8gzsz4DHdjiKLbnu6bdK2NSyMwSpvjJ0JaPxjySRjHHYUBiQy1Stg4h4JVllkGWGx7GqxlG4NoLgzaBmIMoNhdlgWV0cExtAZtwBnWGZtOsHdsd3Iyoa2HYaNWvNnrc5771Tdd+ve+96tetX1quo8qfzuPffcc8/93vnq3veqj1/P5s2by6dPn4YcgoAgkIzA5s2b0QOgfOLEiWRt0RAEBAHs3LkTvyY4CAKCgB8CQho/vERbEJCVRmJAEPBFQFYaX8REv+sRENJ0fQgIAL4ICGl8ERP9rkdASNP1ISAA+CIgpPFFTPS7HgEhTdeHgADgi4CQxhcx0e96BIQ0XR8CAoAvAkIaX8REv+sRENJ0fQgIAL4ICGl8ERP9rkdASNP1ISAA+CLwOd8OHanfuxZbtgygV5ncpdm38OEiCXqxdssWrFjguqJkLYZ9BlSDuITZtz5EYFLp179xB0b6gOp43Jg8rr0vwG1LC6dw6vwSG0Xv2i3YsmIBb4WTC+X6/JcWcOrUeSxFc4/PA9BtVox3SUFI078RO0b6gqA9VYnofmzcsRH9i7VB7hMX1eAKCTCysR+LarCiH319S7h0Cejr6wcWKw6kGCa579LSEnoHBtF/3jGPYP4rsHDqLZyKuEXEGlm7iFPnQzdqCZ3CvQ5W6fLtWT82RoSJxTIW8aFhVag/DpaweHkJWNEbW83Q34e+pcu4cOEylvr60O8zQJq+lxewsNQHIqv54PmfgrIYYel8fHUy9+1eaXeThgIPl3DJ5wu+rljpRf+1vVi6vIjqRgno7+sLZUuLuLzUh4G1sf2cc6R0fZdwfnYBS30DMJru7cWKZZm/cypt1yjbM+WSBfv9ygbefA+iqCcWewe2YMcAqy1hYVahTO9aDPQt4XK0J6KVaODafvSep3uJhMOn79J5LFwawMjIWizyfovN966Ir3ws1859IzuwY4SFjePCltr1LKRRrhxtS96ifXywz1ca6ixW72kim1u2AKfCrVBv/7XoXboM5tHS4mUsDVyL/t7zsa2SaWjfvosfzqJvx0hwnzJrMpggk3uaOEDdTZrFS7g0MgLve/A4hulq0VgraAe2FG7X0NuLLdWlKLTT34vz6g1GjfV6+i7iw9k+7BgZRP+CYnA5568M2+7F7iYNFnFhYQBbRnZgI3weKddx2YP7pyUs0N6rfxADvUtYiFYdthZuD5OedtXZd/ECFga2YIC2i5d4RJ7/Fqxdqj4MCJ6eYbby9Iy15Rwi0OWkQfCk6K1F+p1G3beHv0Wozwfi+/ragDcFVPyeJvwthhaR/sHgh5mabdjS+QVcGoivfPq4S0u9ZChV37hP4UOBa7Xfo4InZdgSzL96+0W/0xC7wwcTcR/kdxr5zwLjkSU1QcCJgPxngU54pFEQMCPQ9dszMyxJUvqLgRH0WdRiT80sOiJuXwSENHVdO/qLAfWOpy4j0qlNEejuvwho04smbrcWASFNa/GX0dsQASFNEy/ajh07Ulv30U0ymqWtpLG6sV1I43nV0wYk6b311ltIq2/Tpf76x9Nlp3pa/5xGuqxRfqfxuOAUYBTcSYeup9fV/q6gVcey2XD1V8ehsmpPbbPZVnWkHCJAv9PI07OU0ZA2sEx6vIrYgtYkV8lgsslu2/qa5NxHP5Ouawxdv9vrQpoMI8AVeLbA5ODW+6pycpHa+eA2rqttNpneh/Xk7I+AkCYFZnpA6104aCkwuazrUF1tNwWx2ldtV8uqDo+htpOMdHQZ69rOpF9PP5u9TpYLaTK4umqAqmVTEKrtPDQTgdu4zu10Ntky6XEfWxuPwXpy9kdASOOPWaY9VDJwoKcNbJMe2+Nzps6KsQABIU1GgcABr5szydVg57Ia5GpZt+equ/q52lw2pa0WASFNLSY1EgrspKDj4Fc7J/VhXV0vzXjcl89kQz1UG7p9VY/LaXRYt9vP8uNmxhGgBy+bd8k5wEmHPyYSsi39TH1M+mzX1KbbkHp6BIQ0KbHiAHSp24KX+tj6qwFNZbWu9uP+aruNYCTng/tx3XR2+W3S73aZkMYjAlwBmCbwXP3JDSaB6pJqV+9Pdfqoh6rPcu5Hbfph0td1pB5HQO5p4ngk1vQg5Q6q3BScJj2W8ZltcP96ApptsE0++8q5n5xrEZC/PavFRCSCgBUB+T8CrNBIgyBgR0DuaezYSIsgYERASGOERYSCgB0BIY0dG2kRBIwICGmMsIhQELAjIKSxYyMtgoARASGNERYRCgJ2BIQ0dmykRRAwIiCkMcIiQkHAjoCQxo6NtAgCRgSENEZYRCgI2BEQ0tixkRZBwIiAkMYIiwgFATsCPVdffXX5s88+s2tIiyAgCFQQuPrqq/Fra9eurQikIAgIAm4EiC9BPk25XHZrSqsgIAgECPT09EDuaSQYBAFPBIQ0noCJuiAgpJEYEAQ8ERDSeAIm6oKAkEZiQBDwREBI4wmYqAsCQhqJAUHAE4E6SDOPiW3bMDHvOVJMnWz0YHQqJkxRqbdfaHpqtAc9/oOm8EtUugkBD9KEAduz7TiwCcDxUfT0NEqeboJa5topCHiQZggHTpZR/gFwbHIGY7NfR7l8EgeGOgUKmYcgkA4BD9JEK809wP5iAeMjrzhWGtKlVWgKoz09oD89cK5KU76rlsPu/AS2VcZM2AJadXkbWM84EU4VH0bhvQtNd+1Eq4UIlP2OufJ4oVAen3P1Ih2Ugare3HihDBTLpaBb2F6kSqkY03NZLZeT7JbKxcJ4mV0LxlTqpSLKCAalUVy6tePU9AXKhQoIVVtxvXJZ98E9P2nNOwIAxTXQBD8VUlSsl8rFComi9vHxcqEiqyg6Ckl2ta5zZJ+JSvxUSePSNYxD5GYCBkSv2q1YCsarflGEcnXeFU0ptCkCxBeP7VkWa+EMZueqdibHxjBTrTZQqtqdn9gWbQd70DPstu+jW+NcYQTDNUISzGBsmLekdN6NSaOeCNsVgWUmTQEjSqQVS2XMjQNj90ygoSfYiOxOjWJ4bBNK5TItnyjPjaNguzI+uiYbM7NQ+K9oFKvjsx/ywETBp/2LTSXN5O7qI+n5iccxWdiPPdrTtqEDP8A4xjDs8ftJGrt0aaaedK806uXz0cWur6OISTxe+bFqCqPbJjA/tAf7C6pcHUHKnYJAU0lTLB3EbLRVCVaAkwegcQYAPcouoTi5G9sqQeiCt4Dx0n4cM9nddRSl4iR2R0+uHh8ZR9Fmyke3xsYuHA2WyOFoK/g4Rn5Ac6O5zGH/MZZH2zQiVI0NEbQrAk3K3KTHrsOYPVjG0V3tCo34LQjUIiCZm7WYiEQQSESgqduzxNFrFNQfE9UnUGE53fatxqgIBIFMEWjS9ixTH8WYIJAbBGR7lptLIY60EwI52561E3Tia7ciIKTRrjwtv+qh19U2U9lX32RDZPlG4HP5dq953lFw+/4niSZC6DaozrZN+uqM9L7cT9WRcv4Q6ErS2IKTg5zPfLlUfTXQdT3W57OqyzI+m/qqhGM9OecPgfbfnlEujscv7ioB9MvBQU5n/pAOy3V9vc5ESKuv9+ex2I6pXWStR6DlpAny9j2CvvWQpfOAAt/0SddbtPKMQMu3Z7uOlsOsnmVAiYI4zSrg+qZ3telT0MdK25f6pfVVH1PqzUfAY6VJk8LsSvWlX/u3YWKCUpvpWzhMA679H2JcNgDEUpS3YeJs9iBR0PJHt85yOsvRnQh4kIYAogSrxzEyFwZV+Ie+1Rz4qdFhjG0qVQJubvwMdse2XjMYG0OUb3IUtX/LGf6hZ42NiGDAPCbuGQPG56IxDmJ2LPsUr5DU4faqkbBQ7VBZjs5BIGXiqSEFmPLsOV05MdWXdFGupOhHo8ZSkLX05FBFH0NLM1bTkBNmkia1W9dR61TWP+qQuq7aRuWkdlVf1VXlUm4tAnRdPFca0zdFNdW44VTfuVlD+vMwRgrRGMZ2k09mGcVto9/4y7E9Ix9l+2e+hnmQZvAgQE1hplRf07Yr5VSHR1DArKY8h9kZHsPUrqk3UGVC8ZlN1RvEuh22J+f2RsB7pbGmGmeR6hvZ2K2kPsfSpIfWY5OaZkwPBXb73dO4Vht1FdHLvsTR+3M9KVx8x0myJ+3ZI+BNGnsKcxapvtXUZwoe+gwf24+5Spq0lmY8PIuDrv88w4IXBTDZNh26XK+b+mQlo7HINznyjYBHPk34ZKuTU5htQavLVSKpQa7rmS69ra9JV2T5Q4CuXwb3NPmbWL0eqQRQbehyvc66Njm30zmNjqov5fwh4L09y98UxCNBYHkR8NieLa9jMpogkEcEaHsmK00er4z4lGsEhDS5vjziXB4RkAcBebwqOfYpzRNCm/vqk0NdR39Aoo6jlqmfXtdtNbsupGk2wm1gP+sgJHu2QyeHTa9eedZzMfkhpDGh0kWyZgSZjRguMqmQqz5xHz6znqrDMjrT2LY2Va+Rstc9TW3uSyNDm/smjuGV3hzm5ih/lWMetEulruCiNtOHoDLJSdaMgwlIZ/7QOCw3jUltzfKHxvMijcnBdpfp6dbBi57alGVZ+s4Bqp7Va63Kuay2m4hF7TY5921msPMYjZ67fnu2nOnWjV6sLPtTcFKwpz1YXz+7+uv2ua/ah2R8cDvL+Eztalmt62OwLZKzPZZldW5wpfFJTVbetBxLWVbkplnFdE3pzQk+BDbV/1i9+qIpaqpuB0M7w2MzwOTuAPBt/L6cmA+qv9RHf4s1ZbKqPqnjqfJqync47bAttsjFtqLcbppL2Gb03YRpTmU6Aaie9GnFVBogDV0oQ3pzJTV5CqPDampyCXicXm40hdF7gB9EgMyNFzAZyE3TT05vTk6xJg7YU7Sro9JfWNPrDAtAMUzZPnmAXkGV5C+lgL+CrwfzmcN4gV4qFb6bhy549fWISXhVPXGV1LmUijMYe5JeuG7z3WUpfZvpG5vmpn/7p7eYXpPGsH3SW8lWs37SzB/HsZkiSspbm4YOHEQRZ3CWXvs19QomUcTBIPDI6V04GvyJP5/DiQzt2Y+C7f2V0RgxGyXl3WbzE3h8soDxh6v/20Dgw8wxHFdePVYsnQS7EfMxFZbJ/hZLnHg3hD37Q9IxLEPrNwE0vyS8UvlCfK7OZdfXi8CZs019y5qJMOzqchHHtNqwD604108aY+qxkppMs7G8ATn1W5WNY+gw1fM2ZTVFW7dXW0/tb23XqsQ4Fw2vqnbTS2kC3kUYdjCNHdZdznMa3+v1p37SBKnJ+rBqajL95zWGNyD7vFXZOIY+Zj1vU+b0ad2Woe7jr6F7RWSci4ZXRbn1BTXoqMwf8ozLdKaj2cRRx+NyKxGqnzRJqcm2NyBrs3W+VTkpvTllirU1RVvzpVJ1bHmc/lYMGApJeGEItJObfIXuUaL/380zlTvo5/A9NFz91xXs1MYHlflDMi7rOqyf5uwT/Op4XHaNQbZV31y69bTVTxrlrcwMgDM1uSd6A7LXW5WT0pvTpFg73gZtQCy8xxrDcE9P+LZpL38NBiuipFRuYNfR8C3XAZ6Uyq3ev1Xs2As1vttVKy0UXDRe1kdS0HLwJ+n5+tVswpA/hBb9R1K+vol+lyLQSFCm7avqUdl2tCJuyR8hje2KiFwQMCBApGlge2awKCJBoAsQENJ0wUWWKWaLgJAmWzzFWhcgIKTpgossU8wWga7/K+ds4ew+a+qTLp/Z+z4V08dR62rZx4d6dYU09SLXwf2yDEKyZTvSPjJO4w+Po9tM09fmn00upLEh06XyrINMD2KGlYOc67azqqeWSZ/rtjFIh9pIz6VjG9sm97qnqeae2Mw1Ll+OMSpexvJVKtKuLbiCi9pMHwLLJCdZowfZUIOdyvonzRjUJwt/eCwv0nCnTj1L6rP9yurBSnX1cLWbSEV9bXK2q4/BcvVMOkwIPqvtzSjL9kxBtVtTnwkCCrg0Qcpwsb5+5nb9rNvmfqoeyUyH3lfXUYmjt3GddZJssb7r3OBKE6bZ0mTDT/WltcGgtjRhm9zkqVHX/Kbo4EW229gXOrv8qU2drm4NHenDRn/Icerjk/rMfWz+hj6Y05+5rXNTn9VQqMaXilW8TGTIghDquK5y6jd/xl4qWw5fXAvlzbNz44UywC+SDV9MWxifi+yXysXCeHmOXm4bnENx0Eepx8dw2AheGstjhbbifcvluO3Q35g/ZMM6dtRfmV/Z6XuER2X+XK++nNfkjx2/sH98+GLkL9sulBle49xjnd2XOfrDXbdS1Krq2sqqIVWH5WllpG/SZTtp2lk3yQ7ruc5kg8jk0om1xS5M0puY6a3LlQCKmYlXNDuxMaw2DG+KTnq7tDZO4IT2ZujY2GUTaeKul2M2a4M8IIkauOp8Yn3ZrvIm6+hLSe1ervhbO1a1LbRVMzYPYTmnjQNdL6lOw+k6PjKTrm5Pr1umaPTDpmuT01j1b8/SpO82mu5MlLbYMC+djtRno79mKy5pJqnPNIDRH0l/dmHfSBtt8bLavtVPmjTpu42mOxNKJhtW9Bypz0Z/rYbMDVmlPpN1oz+S/mwGPl/S+kmTlL6bRbpzShsBpEmpz0mp07br4kgfrjv1mcZKwi+L9GeH76bp0jcxfSObDvVbmsr8IV0u6zomOyYZ3+ib2tg+t/GKofZRx2U99cx9VFkj5fpJ04p0Z06ZNs44KfU5KXW61mhN+nBmqc80VnPTn2t8r52eUUIBSEGW5ZEU1NTOH9u4TBK2xfosd/XjPjYdXzmhE91r+XYVfUHA//cdxizttz8TOCnw09rj8es9ByQV0tQLn/TrRgSINA1sz7oRMpmzICCv2pAYEAS8EZCVxhsy6dDtCAhpuj0CZP7eCMhfOXtD1toO/DQpjRdpnjjZ7Jj6qk+o1DLZ0Os2u50gF9Lk9Cq6gjApoPUpkS3bYbJl061H7ppHPfby0EdIk4eroPngG2hJ+jZiuMikuRRbSbgfn1nX5AeNbZJzn3Y8N3ZP45UuzDkg7QjT8vnsE2CkSx86uMznZnrMJKQzf2g8lutjk5z91Nvasd4YaTKecSelGxM0Wb5t2QY1B616NukymdQz6al1Luv9SS5HFYFcbc+6Od2YLgkFp+3bunrJ4iWfgNZtm8bT7bEOy/nM/qrecJs+DumQjG2pfdqx7LfSxFJ9a9OFE9ONA4RMKbohdO2Tbkz+8nbTNJ+wbTnetkzBqH+yDESdAPpYpnqW4+fVli1JTZOH2YLe6cKVdOLaFN0gu1DJ7kzOnHSlSrN9ToHmejPSjQkatr+8KcfR3woG14bKto928YxZi6ot1jfJqE2V28ZUddieek5qV3XzWqY5pF9pOulNy8FCkfB26pRfccv9tmXVLfVbnuR6XdXNuqyOxeWsx8irvfSkMabn6tNypBvrqpV6C960TGMb59O6dGNyiYKP7wsq8DgKNl2b3GGq6U2dcj9DQKUnjTE9V8fakW6sq1bqLXjTMo1tnE9+040rcKUo+JIvhckaFSKB/qlR6lBBetIkpQsnpRtHAObiTcvky3KkG9M4GaYcq9/WajmL2GQCpLXFWzL1bOubta+2cZZLnp40SEoXTko3pinl5U3L5Etz042DEfbsR2FGeVN0yquaZqUgHdeht+t1vS+180dva6TeaYQhLCTduZGIWMa+tuAjOR9JxGA9Pttscrt6VnXVMVUdKvv6oPfPe53mLqTJ+1US/3KFAJHGY3uWK9/FGUGgZQgIaVoGvQzcrggIadr1yonfLUNASNMy6GXgdkUgV3/l3K4gttJv15Ms3a+kJ1suW3pf0lVlal0t6z50Ql1I0wZXMSkI1eDl6bj6UJvtMNnSdV22WZfH0O2l6cs28noW0uT1ykR+1RNkSX30QGYIONC5bjqrOmqZdLlus0861EZ6Lh3TuHmS5eeexit1Ok8QNs8X3+AifQ5cLvM5Cy/JlhrsVNY/acahPuxnGv286eSHNBoykvqsAZKyqgcx1U0Hk0k9k55a5zL3t9nidjqrhKD+nXjkdnsmqc/xb/W0wecTqDoJqK9Jpo+t65jak/xgciXZ0m3noe630sTSnXsQvnm429+0TJcxH6nP5AkFof7JOtCIEEkf9iHrsfNiL2Vmqbxp2fzSWIKvNanPNHLIk/ASUtn20S+y2o/bGpGxDTqb7KjtXE6rx/p5OJPP6VeaqVcwiSIOHhiKyL4LR08eANeKpaPYxV8D8xN4fLKA8YcrEgwdOIjizDEcn6cv5jDVOGarVOTeKc/x8cM3f81iTuld9WkIe/YXgGIJRyOXhtZvqr7PM/KnxI2UOED+4gzOkr8pj1amPpOL/O0exm1tPeU0vNWStmLeBnPeIT1paCLypuVlu5wU+L7BaNO3yZdtMoaByCcmt6E51yI/0siblnN9MW3O1UNAmy2R+/wfAfKmZUy+MhXGDD0Q2T3pHz8Zpj7T4Oq3tVr2d6y2B9mjj+lQVwgeV9VX2039uY+prR1kHiuNlu4sb1r2ur7NfttyUqDq7Xpdnwy180dvozqThO2wLstNfbgf97Hp5F0umZt5v0IW/2zf1iTnwzc4bTbZHp3ZfpLtNLZUu+1SpnkJadrlaomfuUCASOOxPcuFz+KEINByBIQ0Lb8E4kC7ISCkabcrJv62HAEhTcsvgTjQbggIadrtiom/LUdASNPySyAOtBsCGZLmY/z8Wzfj9el2g4D8bWff2xHv9vY5Q9K0NxBJ3p977GY8863n8WmSorR3PAK5zdzMG/LrHn0P9+fNKfGnJQh4rDS0hbkbP/94Gq/fcjOe2XoznrmF6ha/px9zt6vdPn4eL7LNrdoWz9ZmkX/6wt2hbzH/DNsv8q9m5bDPLbD7WFvuPVWkpZwBAp4rzUd4986/wC0vvYfbrwMokH5452NY+e6jWKc6QwH58DxueekF3HSd2mAqT+P1g8Dt776HlYhsfv95bNn+LazENF6/8yngwZdx/91kaBqvU6BvH8Qpk3wQeP2pIXzt3Rfi/piGNcjmH04xN0M/EXUXAh4rTQjM0JNVIqy8+9sYwjw+VVebhefxYmrCkM3tuP15Ikh4rLz1Nqz66Hx47zB9AvPYgy0BYRRdmzwwcRzzdS4IiXOLfJRTdyPgudKYwPoIVy4AiFaU+aefArChkgZt6qHLghXr6Y8U8Z5qecPaCqGqQhrCIL/uW/jDl4AX77wZz/QAqx54GX9YIVysd8pKfG4pO4lahyPgvdLU4rEBqwar0qH/9h7+/YPAuwdTPmmafgw/pC3VO+/hfvocexCrquYAXnVUGZVtciLOu2TrCFY+ta/BR+DxuekuSL07EfAmzfzD1Zv/T1/4C8xvuA3rtPuWlXf/Z9yCp/DDOm6cz/33p3CFr8X2nRjCcZx6gfd/fE9jkXO/4DyIVRtYcB1WfgmYPxHt2+ghwsPHubFyTjO3irIUuhYB7+3Z0JPfxpVo+4PyHnzt3er9SBXF63DT80dw5ZaH8OK6hC3S9kfxtd0346+3hkG86oEHMYTzkantuP2lB/HinfvwzNP0361sCB4u0P2PUU4PIP6jQoZdR3D/9tDUukePYOiWh/AMZSyT30/uwV9/v+oxbSlvefI2zN95M94Nsoxsc1P7SLkbEfBIQqPHtvtw5Y/fw+1RIHYTYMF917lv4/5Hu3Dy3XShE+YqSWgJAKnNn577CKvWKTdvaqOUuwoB7+2ZPzr0g+FDmK+mrsdMNP6EK2Yu+wrd/9xJ91m0XdNu3rIfTSy2AQIe27M2mI24KAg0GQHZnjUZYDHfmQh4P3LuTBhkVoJAegSENOmxEk1BIEBASCOBIAh4IiCk8QRM1AWB/JLm4zm89r8u4l/b7Rp9dAI3fv8DLLSb3+JvagRaRpp//tt32pIU0//zWSFF6vDqTMVl+HHTDNxv/PZW7DU35Vq6/ffuw/u59lCcazYCfqT57CKmX72I/xd59Zu3bsWN0Y/k/3r6F3j7g19FLVdhwx1fxvDVgE1OK83fYT32/vYXwz4x21dhww0rspv7lQ/wzaM/xz9EFvd+4z4cjv4CeuHk/8Dvv83/XcZK/MnoH+DeVYBNTivNGL6K938v+pOamO2V+JNbOZ0uO/fFUr4Q8CDNv+D9aeDf3L0Vn0dEhl9cxPB1a/D5zy7if3+wAl+5+8v4DXV+NrmqE5R/hbnpi8ANX8bezVcB+Be8/8JZ4Jo1NZr+ggs49BPgvzxyHwYQkeFvP8B9G27AwJUP8J/eXonxR/4AsT/DtMlrBv8lnvvJz4Fbv4H3t10D4AIOPfEm0H9TjaYIOgcBj3uaL+LGf7cmIAxN//PXrcIXfvkrLFWwuIJ/4rSXiowKNrmi9NkV/N9frsL6gDAk/yJuvDWWiqYo+xYHcfiPbwgIQz0Hrl+H6xc/VW7Uz+ENNWm0Yt4mryiAUlZfX1yH/xAQhuSDOPyN2P+WoChLsVMQ8Fhp9K0WQRAF9tVrsP0OYPrVd/AagC/c8GVsJwLY5Dp6n/2qsuXTm/T6ay+8g713b9XFznp8q0WqUWCvugF/NQp88+izuBHA9bd+A39FBLDJ9VEuf1rZ8ulNUu9cBNKvNB/P4e1gC7Y1CNq9d6zBF1RciCB3U9t6/PoHv8D7vOrY5LG+V8VtqW1amQhDxEl9fHQCvx9swe7D+4/ch/dHb8L1amciCMkf+SqG3v4xDvGqY5Orfa9dGbeltkm5YxFITxoNgn/+P9UHAvGmq/B52t7XHDY5gKtX4NdxBWdPRw8S6KHA25Wk5xpLJPAijmJh+mfVBwKKGMA1WNcfl4Q1m5wW2mswhHP485O/DFXpocCPz5mMiKyDEEi/PbtuGF8ZfAd/90IYzF+4YQ1+E1GQ0w+RapAPrsdeeqpmk9cA+EXceMcaTL/6C7z2ATWuwlfuWIOzlv+KyWu12bAT4xufxdgTYTBff+tN2Mv/uSz9EKkG+cav4n16qmaT1/g9iMOjN+GbR3+MG9+mxnUYH+K7fZgAAAjnSURBVL0Jf/6TGkURdBACkk/TQRdTptJ8BCSfpvkYywgdiEDd9zQdiIVMSRBIhYCQJhVMoiQIVBEQ0lSxkJIgkAoBIU0qmERJEKgiIKSpYiElQSAVAkKaVDCJkiBQRSBD0lzC5IOH8JDHX7hU3ZCSINA+CGRImvxO+vyxpzF4ZDa/DopnbYVAV5Cmra6IOJt7BNL/7Rlo+3UM+NOdOFv8EV4OprYaj0w+gKIpV+ydlzB4eNHerkJzcRp7i2/gTCTbd+gwjmyl8b6Hs39E5aiBbP7lapx4ajvWYhYP7T6B9ff244nnTgPYjGdLGzEVk63GpnWf4EzwZ2c/wuBPgU33fgff/fh7uA934cJDI5HhcKxXt38Hr+1HinmG+tGfs0Vj34mvqnOScsci4EEawuATPFE8gUcmD+PCGoC2PTuLL+FLJS1gfAhDwV98A7j3O7iwvw+g+oPTOL/1t1KA/gmeeK4fz5YORwE7iynyMSaL/Px4Z5Uk72wGDn+INx8aCftd/Hu8em417vhTGv9S4jzfPPI9PDF4Fy48FZIuwOHB6YjMKdwWlbZGwHt7tu9QdWVZu38n9mER/3hRweDjaexNu8JQt3c+xMvYjO8GhCHBCI4EK4li01Hcd0gjLACTLGZi60bsw2lMRQ8tzs+cxpnf2RlbMa3zvDiNP/vpajxyF69SQIDDudP4GxWH2IBS6SQEPFca09Q/wVkKlmiL9vJzbwBYjTtMqjbZutWcS2nTyFg+ggfuXY2dP5vFka19+JvpT7Dvj6okMA+mzpNW3EN4Iqa4Go/E6lLpVAQyIM1qrFfuaeh+5IGPn8bO/zqN29KuGOc+Ad12rF1GlNcWNmPTcx/izbtW49Vzm/Fdvm+y+qDOk+6falc4a1dp6CgEvLdnLx9+GpPRNuT8sRN4ed1m3KaQhtBZu38/HsEb2JnmMW+0VfqzY3QvQUd0T4M+fGkQePln0aNielhwmG746zwuXK68yTOwsOa3cMe607iPHkD8zsaam3jrPKN+VX/r9Ee6tS0C3ivNvkP09OwQwv/1i75x6UmWfvSh+NRdOLv7R9h7HT2Rohts2zGCI5O/i73F72HwOdIJn8iRzbUP3YV9u8OnXsHTsUObcd9f2uzY5eGq8gZ27n4jeHoW+tOH27avxhPnPsG+f1u7NbPPk+b2HeBB9jcad93vyoMA+yXoqBaPzE3DI+B2hyJ4ygdtq9WB82z365Qj/7s+c/PNn50GDFuzHF0jcSWHCHhvz/znQD9C8o+htb3px0b39q22TzaSWUz9lB5P127NsrEvVjoVAY/tWadCIPMSBNIj0PXbs/RQiaYgUEXA+5FztauUBIHuREBI053XXWbdAAJCmgbAk67diUCGpJnHxLYejE5lC+TUaA96sjZacbE5PlfMo9n2qyNJafkQyJA0y+e0jCQItBIBIU0r0Zex2xIBD9LQVmMbJuanMNrTA3pe3dNDdcu8p0bd7Wq3QJdtRmfrlizc8oTjk+4oqjtC8m0bJiZobKUt0b5rTq7xaBJJ7cpEfTBRukkxfwiU0x1z5fECykChPD4X9pgbL5SBYrkUVMP2IlVKxZie236pXNRtBkbCXqUiyqjUIx8q9XI57gPZIh/ZJ7Lhsp9uTtXx9fGS/KkXEzdi0to6BACUPVaakO3F0kkcGArLQwcOoogzOKuuNmcnsG33GYzPVfWc3xPzZ3EGm7Ceba7fBJw5C9Vkpf/8cRybKaJ0dFdFZPKhWDqKikYK+9Y5JY2X1M5e+mLC/eScSwS8SVM7ixnMzlWlk2NjmKlWk0tD67FJId7UK5PApvWIOBTvPzdrsD2MkULch1gnH/uVjpG9pPGS2iN73phU/JBCHhHIgDQFjAxXp1YslTE3DozdM2FeLaqqYSlYCWYwNhzey+yejK8kMfXhERRiAqrMYXYm7kNMxcd+pWNkL2m8pPbInjcmFT+kkFcEUm4QLfv/wng5vMVR9u/l2r2+dRC6/1HuUXS9VPc0FR/Ce5qYOaf9dHNS/QvuoSrj1c7T1B76U6urz1Xq+UeA7mmIyCk9DS96scQ32/oNN7ezuVCvwE8NWGw4B8QInSGHyqgEJT1TUB8EUGd1/Lgut8VIEzyXCCYa2o7ZJ58L5fHSeLlQGV99iJA0XlJ7/ZgYYBJRDhCokzTZeh7/Zg5tE1HSkC2NJ822n8YH0ekcBIg0GdzTNLbrnJud0W7853GW/6vNxkwHvZttPwMXxUSbIbAMpFF/OIx+uKz8ONqDx0dKGD+zO/oxktqHcWz/HE7yc+0GAd11dK6p9ht0T7q3IQKSudmGF01cbh0CkrnZOuxl5DZGYBm2Z22MjrguCBgQENIYQBGRIOBCQEjjQkfaBAEDAkIaAygiEgRcCAhpXOhImyBgQEBIYwBFRIKACwEhjQsdaRMEDAgIaQygiEgQcCEgpHGhI22CgAEBIY0BFBEJAi4EhDQudKRNEDAgIKQxgCIiQcCFgJDGhY60CQIGBIQ0BlBEJAi4EBDSuNCRNkHAgICQxgCKiAQBFwJCGhc60iYIGBAQ0hhAEZEg4EJASONCR9oEAQMCQhoDKCISBFwICGlc6EibIGBAQEhjAEVEgoALASGNCx1pEwQMCAhpDKCISBBwISCkcaEjbYKAAQEhjQEUEQkCLgSENC50pE0QMCAgpDGAIiJBwIWAkMaFjrQJAgYEhDQGUEQkCLgQENK40JE2QcCAgJDGAIqIBAEXAkIaFzrSJggYEBDSGEARkSDgQkBI40JH2gQBAwJCGgMoIhIEXAgIaVzoSJsgYEBASGMARUSCgAsBIY0LHWkTBAwICGkMoIhIEHAhIKRxoSNtgoABASGNARQRCQIuBIQ0LnSkTRAwICCkMYAiIkHAhYCQxoWOtAkCBgSENAZQRCQIuBAQ0rjQkTZBwICAkMYAiogEARcCQhoXOtImCBgQENIYQBGRIOBCQEjjQkfaBAEDAkIaAygiEgRcCAhpXOhImyBgQEBIYwBFRIKACwEhjQsdaRMEDAh87pprrkFPT4+hSUSCgCCgI0B8+f+obUKeapy9AAAAAABJRU5ErkJggg==;" vertex="1" parent="1">
          <mxGeometry x="1686" y="830" width="205" height="309" as="geometry" />
        </mxCell>
        <mxCell id="DroHx0XE8zM4UCk5UBcj-217" value="" style="shape=image;verticalLabelPosition=bottom;labelBackgroundColor=#ffffff;verticalAlign=top;aspect=fixed;imageAspect=0;image=data:image/png,iVBORw0KGgoAAAANSUhEUgAAANoAAACjCAYAAADsMADSAAAUZElEQVR4Ae2dP2wUSfbHvz5dxAQsAk+IMTdeJAPRaWBlJM4bLFpMcsHC6Rewm9yOJQ4JB8tFlhASv+THBrbEIuE76SdBsIK9YBPsEwkWEtaBddGCJfBojTe0QWiDubRPr7urp7pc3V3d8wfPzHckq7uq3nv16tP1XNU9XTVDx48f93766SfwQwIk0BkCx48fxxAA7/Hjx52pgVZJgATw6aef4jfkQAIk0HkCDLTOM2YNJMARjX2ABLpBgCNaNyizjoEnwEAb+C5AAN0gwEDrBmXWMfAEGGgD3wUIoBsEGGjdoMw6Bp4AA23guwABdIMAA60blFnHwBNgoA18FyCAbhBgoHWDMusYeAIMtIHvAgTQDQIMtG5QZh0DT4CBNvBdgAC6QeC33aikN+soYbRaxUhJ934ba8svseVn2cqB7bVlvAwEdMXU8/LRSYwPp+iWRlGtjiBypbGJ1dUNNJTVtPLyUUyK8fDT9C/wf8+m4a/Ij/wntG9ro84gMFoaraK6ZxPLeRuunBqAIwMt4yI3NlexuiFdOuh040fL2NI6VLMcgN+pJ1EtKZ0M435xGcPDDWxvA8PDZWDLiFLf5h5sri5jNYws6djjo1uBX2nlW2VUx4e14C/jaHUUpS0tSB1cbLbRzsDBxMCLcOro3AUa2HrbAPaUmiOLqbv1Estr2yiNHELZLEtKl4cx3HiLN2/eojE8bOiVcdQPlFX4sR7aaGyoQM4qF4UG/hMNfVt4qY+EST4l5jswSNQd7AIGmvP1L6F8oITG263mlM2mu7WNbQxDBieXT3l4OLDZ2MLbxjBGRqMJIlAqYQ+2sW0McpHdrHLfZgkj1Sp0s5F+7hNHBrnt9r8Cp44Z17g0UsXkiBJqYHMtGh5UZvFjaRQjww28DeeEMmKOHCijtBFO7Up7kkdPqTWrHA1srC6jIfeA1UmMoIHN1fjo6OJ8Rxm4ONAHMgy0jIvYvD8J78GqVaBAZ7VVUyofQKnxFip2G1tv0Rg5gHJpIzZVtOnmydt6uew/wPEfWhTwv5MM8rSjl2U5dcxz9fxpYUlu05I/cs+VNt2LNINpGEojqE5OYlL+/CeLJRwohxVkTUOzyqO6gpPGxho2G3H/95TijSmV9hhaRtKFgaHCJLhnSK5O4AeR/nDB0JbH7OPDaGy+Cb8CMMr1ZPkQRkoylVvG8nLzb3WzoT1M2cKbzQaGx+P3WP7I5N90pZc35cKKwzqDhyPBg434g5syDo2UsL2Z8lTSwqCU+p9Hb/TgnnPqmHHt4/cnwXdd+hPAeHkQOHp5knl5CILttR1TxMbGJrZHxv2HKfKk33/CiCqq/j1WaM3/Hi24V0wrb2ANb6vGPaY27Y10JycxHplexarx8CXeRsWgjKOT4wi+oZPv1gylpIYPaD43UB3QC89md48AN1DtHmvWNOAEOHXsWAfQp1Y7K4k9ydtZzJw+I8BA69gF3cJL3rd0jG6vGebj/V67YvS3Jwkw0HrystHpXiPAqeMuuGLyZbV8l2Z+JN/1Y9M3dZPqMeWYbj8BBlqbmLp0YhU4EhQu8uKaawC1qRmRGVf/IgWepBJgoKXicStM65QquMSSHjR5gs3Ni7iUXq9eYsvX/VKynfZP1TMoRwZai1c6LcjEtOrEtg7eYtWp6qpeXSjLV11WzhlsJpHiaQZacXaFNVWHtwWDabSVALXpmnkuPpg+MZ2fAAMtP7NIQwVMlGGcmJ1apfOMFC6BoOwa1UejqcrP8lfJ6cc8vup6PI8TYKDFebQ1pQdJkU5e1JmkwBN7SWW6r0XrpV4yAQZaMpu2ldg6t9mxlYyZX8QJmw2xL/nqWMQudYoTYKAVZ5dbU3VyFVS6AVtwSLlNVtdzOVf12mTTymzyzCtGgIFWjJuv5TJCqI5sHvVqpSzpkxSAunyavlmm+6x80m2Z5y4ypg7TOwnwFaydTNqWY+ukLoHTLgds9YttPdjaVRftpBNgoKXzySxVndYm2M2g0uuXALMFmeSpT5rfSsZmQ5XxmI8Ap475eFmlVaftRGDpwWGt3JJp88MWNMpvMWHq2OQtVTHLkQADzRFUlpjZUbPkXctd7LoEY5KdvPmuflMuToB7hsR5MEUCbSfAPUPajpQGScBOgA9D7FyYSwJtJcBAaytOGiMBOwEGmp0Lc0mgrQQYaG3FSWMkYCfAQLNzYS4JtJUAA62tOGmMBOwEGGh2LswlgbYSYKC1FSeNkYCdAAPNzoW5JNBWAgy0tuKkMRKwE2Cg2bkwlwTaSoCB1lacNEYCdgJDe/fu9X799Vd7KXNJgARaJrB37178ZnR0tGVDNEACJJBMQGLMX4/meV6yFEtIgARaIjA0NATeo7WEkMok4EaAgebGiVIk0BIBBlpL+KhMAm4EGGhunChFAi0RYKC1hI/KJOBGgIHmxolSJNASAQZaS/ioTAJuBAoEWh3zp05hvu5WgV3qF/z7yxN49MReurtze9n33U22n73LEWgSYEMYOvUQOAbg4TSGhloNuP5E+/P1E7j95V2878/msVUFCOTYEryCK089XKnP49TYClZqs/C8OwWq7H+Vw9ee41L/N5MtzEEg/4j2FXChNoG58R9TRjSZXl3Ev395gkcnT+D2Jydw+6SkEzx7cj29XFf75S7uK5ufGNPPpLKE/Pf3Lga+xfyzTA3Fvx0jVHLbfLvXe3JerJPmeRsJ5B/RIFPIB8DVO/CupHnyCs/O/w0nf3iOMwcB6Xzfn7+Ofc+u4bCuJp34ah0nf7iH3x/UC2znT/BoFjjz7Dn2IbT597uonv4S+/AEj87fAi7/A5cuiqEneCTBcfoQVm35h4BHtyr4/Nm9uD+2ai159asObbPoMWswCeQY0RQgmUI+xZWKSicfKzebwbPv4teooI73+qi2eRf3nYNM6jmNM3clqILPvj98hv2vNoJ7oSePUcc5VP0g02ST8n0TD1EvOPBkti30kQcSEAI5RrR2AHuFd28AhCNX/btbAI7AIWajyv2R8btXURo41zw/MhoFYTNTqrDkH/wSf/oBuH/+BG4PAfv/8g/8KQrSmLZjIt42RyWKDQiBAiNaK2SOYP+hpn7l/57jfy4Dz2Ydn9A9uY7vZbr3r+e4JH8PLmN/0xygRjc9T86T8iXYnomtb7Hv1hctft0Qb5vpAtODTaCjgVa/2nwA8v7e31A/8hkOG/dh+y7+L07iFr4v8PDg5/+/hXfq+p3+FBU8xOo9NTdV92gJ+UrPPx7C/iMq4yD2/Q6oPw7nlPIg5epDVRgdXdoWCfNk4Al0dOpYufk13oVTM3jn8Pmz5v1Vk/xB/P7ut3h38hvcP5wxfTt9DZ9PncA/Pwk6/v6/XEYFG6Gp0zjzw2XcP/8Fbn8HwDviP2CR+zlrvjyE+asWQGe/xaXTganD175F5eQ3uL0kds7h85vn8M+/Nz2W6e7Jm5+hfv4EnvlLZ5PapuvwfJAJdGiFtTwi/wLv/vwcZ8LOO0iQ/fvIn7/GpWsD2PhButCObeUKa0dQecXe//wK+w9rN6N5DVC+7wh0dOqYn5Z8CfwN6jLOWj6tPxm0GG1nltzPnZf7RplKGjej7ayHtnqOQIemjj3HgQ6TQMcIcOrYMbQ0TAJxAh19vB+viikSGFwCDLTBvfZseRcJMNC6CJtVDS6BLgdasHh0Wr4I7vZnaRpDp+bR0sLwbvvM+vqGQJcDLZvb0rSs4mZAZJOiRC8R2GXfowFn73jgLwH0Uheiry4ECo9o9flTkO8Hgj+1d4hlamidsi1heodu4K5vV59bytYJkewQmkXhHiZR2TRiM9KY3inMvzZxZOib4kyTQAsEigVafR5fzRzDoudBfonG89wWgio/F6ZuYHw90F2fA2bGjCBRgljC9NgMMLce1rMI3JBppQTJGGaOLYb5HtbnXmBqSNmpY/4rXW8WazMLkVU5WZq26HPKGmPERPsIFAs0v/4F/BgbQtydqi02A7NyZRY1vMBr21OKpR+xgBpmo+XcZ3Hn6RVU6g/xYKWGxTtno0pjdsLymN5iLZJFfR43FiYwd9XQX3mAhzY/mpo8I4FCBIoFWuUKnq7P4cVUMHU81domjwBWsLae4P/EOMbMovU1rJh5GMP4RGjHWm4qrGBmTE195TiF+JhnyjNNAsUJFAs0qU+CzZ82LuLYzJh271TEmQmM74im0M7KGnbE4Ng4JnZUs461ldCOtdxUqGlT32JTYNMi0ySQRKB4oEUWZSRRiQo+PgYsqDmlPJCY2jlOLEyphydAff4GFiYu4Jxt45Czf0QNC7gRjZhLmJb7qMo5XJhYwFTzyUjcTuVjHNP1TD9C/aZd5T+PJNA5Al7uz2JNnsA3/2qLmolFrxaV1bxFkZ2Y89Z9iXVvbmLCm1uc8yZ0GU17fW7Cg25vXZed8OYCQ57n6fVAqyM0FtOreYuSjvwQGfFFa4P4EyvXnOIpCbRAQGJl1y2Tkcf7Y2uz8LQHHZ37H0PLJNB5Artymcz62gomEm/YOg+FNZBAJwjsnjdD5D5qbAYrkIcUthu2TjSfNkmgOwR23dSxO81mLSTQPQK7curYveazJhLoHoE2PN7vnrOsiQR6lQADrVevHP3uKQIMtJ66XHS2Vwm0FmjWJTC9ioJ+k0DnCLQWaIZfXB1tAGGSBEICbf0ejauj2a9IwE4g34iWsWrZH9FiL/omrcKWl4qTVlmrVdpJ5ZA3kVNWXZu2ZTGovpq6+UJzgEQvk+UyavGoHRhzSaAoAcfXJYOXcCeit3rDl3q1F3EXa2i+EOy/1Fvz9NeNg4rUy7zNF4T9F4mhZHeWx+zKy8Ranb5ulFa6pi146j3luLznxW17nlnuCIdiJJBIIHwBX3YDcPjYAif2Zr7RacO351UHb9YQBEM8X4JWBZ6l3KinaUtewpe3++OBpdv2A0fP8FcehPK+rqpXWdV9UXk8kkBxAhJo7lNHp1XL2qCaexV2yiprzaycxjYG8t+PNARyJbnSOhcuChci4B5oTquWDR9yrcJOWWWtm12axpi+MdD6nGW1ta6Qdc6V1lmEWN46AfdAy1q1nOqLvgo7EHReZZ1qF1i6KW/8F/xwpXVBcFTLS8A90HAWd4K94YK9HMfWMJs2msiX2dGei8HWbvpaztriLNbCzXH8EUp2t3Lx/uwdLNYWMBXavjE+B21/KxcLmkwFV56u48KDMc1X7pSsAeJpmwh8gGUywZ6Ma7Me9MBrU3tohgR2HQEuk9l1l4QO9SuBHFPHfkXAdpFA5wl8gKlj5xvFGkhgNxHg1HE3XQ360tcEOHXs68vLxu0WAm19e3+3NKqIHzK8yy/juHzyyLrY02WSbEu+68fWjiS7rjZ1uXba0u328zkDrcWrmxQAts6uV6X0RM6142bZFPvKrl6XeZ4m41KHaY/pbAIDF2hpnSypTO98IqOn5dzMS7Kj52fZyL50xSX0utOs6P6ackllrrZNe/2e/rD3aDu2QtDWhoU/CmiucWv1gkhHsP2JXVu+3nGkc6l0UkdL80/ZT5Npd5n4qXzVz13qUf6aR9E181Taxe4gyuyuEW3pJmbkBwa9O1A/EbjjJ5s+8FVSnTbJDSmXTuf6UfIuOll12+pUdlU9NhnmdZ7A7go0aa/thwc7z8GphqxOm9aZzSBRabGZpqc7purX88xzZdfMV+mscpFzqUfZ49GNQM6poza186ck+rL/oGx6yXULgvgPuPtrzOS31FZmMCa2tS0RYk1J3MbA/2Fqv9NKZ4r+LHaiMk1O6kjK1+sXmbSOqNvQ9URH/Um+fq7LdeJcfJKP8l3VLUf56GmV5xekMNHbqc6VDo92As5LR9OX/attBJorluPyQXnaVgieZSV13EbaNgbxldE7VlZntDLob+lCSTK2fFueWJf8pDK93JQx00me2uQkT+VnHZPsMr84AWHuPqI5/sC6/kPwZ/9YA168hv/761k/4G7/J2Dkhj8WH+ZWzl3AhPrp3fprvMAxfByutanIT4+qug0rZlL/j2+WmWn131vpmOWuaaWv21N5aoQxbZmytrRNRx+l9HNdVvJV/Xq+ee4iY+owDbgHmk+rhWX/ebdCSLg6idsY+AtTX+C1H9XA0o8LwLGPM9e4ScdRnS+rs0m5/qe7qHdA3aYpY9al21Nluo5+bsra0rq8nNtsJvln6trSYk9vq02GeTsJ5Ay0Fpb9F9kKwfQ3bRsDf0Rr/iOYWqhhMWPBm63DFe1IWXpJdZlN/JBpWxtUUKljkn9Z5Ul6g5LvHmitLvtvaSsE++WIbWMgI2ZtURtxml8R2LRtHV/J2TqcKpOj6KqOpdtRenI0P7Y8U6Ybad3fovXZ2qLaXtRmv+u5BxpaXfafcysEG/m0bQykDFNREPjBEH7prZvy87Xpol6mn6uOI/Lqo+vaOpuUKz2l086jqj/tmFWfzW9dRy9X7dHLzXOR4SebgFCSxynZkrtcwv+R+QcXsK7tPSJvldwYX8fTK9m7kbh0KhOBrqOfi5zqgDa2pqxuN6ksKV/XVfW61Kn8Ex2bvGlX2bblu+rbdAchT1jnGNF2NxL5kfn4w486Xr9w97lIZ9F19HOpVdJmnvImKV/pKTn9mKbjImfqS1r96fpp50rePKbpsCwg0DcjGvz99ccwo+09NzHnNpqxM5BAJwnIiNZHgdZJVLRNAsUJ9NXUsTgGapJA5wn0zT1a51GxBhIoToCBVpwdNUnAmQADzRkVBUmgOAEGWnF21CQBZwIMNGdUFCSB4gQYaMXZUZMEnAkw0JxRUZAEihNgoBVnR00ScCbAQHNGRUESKE6AgVacHTVJwJkAA80ZFQVJoDgBBlpxdtQkAWcCDDRnVBQkgeIEGGjF2VGTBJwJMNCcUVGQBIoTYKAVZ0dNEnAmwEBzRkVBEihOgIFWnB01ScCZAAPNGRUFSaA4AQZacXbUJAFnAgw0Z1QUJIHiBBhoxdlRkwScCfz2o48+iravdtaiIAmQgDMBibH/AqbcWcO7Jr2BAAAAAElFTkSuQmCC;" vertex="1" parent="1">
          <mxGeometry x="1220" y="903" width="218" height="163" as="geometry" />
        </mxCell>
        <mxCell id="DroHx0XE8zM4UCk5UBcj-221" style="edgeStyle=elbowEdgeStyle;rounded=0;orthogonalLoop=1;jettySize=auto;html=1;entryX=0.5;entryY=0;entryDx=0;entryDy=0;endArrow=block;endFill=0;" edge="1" parent="1" source="DroHx0XE8zM4UCk5UBcj-219" target="DroHx0XE8zM4UCk5UBcj-220">
          <mxGeometry relative="1" as="geometry" />
        </mxCell>
        <mxCell id="DroHx0XE8zM4UCk5UBcj-219" value="" style="shape=image;verticalLabelPosition=bottom;labelBackgroundColor=#ffffff;verticalAlign=top;aspect=fixed;imageAspect=0;image=data:image/png,iVBORw0KGgoAAAANSUhEUgAAANgAAAB2CAYAAACqNl1zAAAOg0lEQVR4Ae1d348T1xX+DBEpO8Ai2LEQWuFdFYjk7QqKYikqarJ5bJXy2Le8po/kpf9B/wDymOe89alKk7xms1WqSI4oFLEPsJFxsqLIXqIsYUBEAldnxsc+c3fm2jNj786Mj6Xo/jg/73fvN/fONd5UVldXe3fu3IF+FAFFYLIIrK6uogKg9+WXX07Ws3pTBBQBvPvuuzikOCgCisD0EFCCTQ9b9awI6A6ma0ARmCYCuoNNE131PfMIKMFmfgkoANNEQAk2TXTV98wjoASb+SWgAEwTASXYNNFV3zOPgBJs5peAAjBNBJRg00RXfc88AkqwmV8CCsA0EVCCTRNd9T3zCCjBZn4JKADTREAJNk101ffMI6AEm/kloABME4HXpul8Yr6dZTQaNTjCYXdzHXc71OFgudHAXJvbQslSra6soe6GFdinL8Mm1ilAdQVrdWBz/S78cH5IymcBO8025hp1GG76TrvYXH8Ap9FAzQHYdyii79sFvDaazRY8UDgzL/IzjL1Xzr4DHCjW8CNto+QUuolmCz6GYdtAtok6GrVnoRwC/9G4c357xxutHzt/hE3tWR8XW+6EWn4/+SdYfxHShDUHK7yKlbUVVDvDhZcG4mBxjZigzgO0aw3UV6ro+Ix2sFyvAe0mWp4HrPeT8h8CRDrq52wcLAPwPA9ubRlOJyARS6uui263C3eOe4JS5uUsN9BYWwEEyaQ8bMmECRLwF/sg70Bz78Kn/oCV0bI2urU63CrQGeBPT4Il1JwuNmUfqnBdD90u4O4xMDNN3o7OL7mf/bTI+RGxipW6G/H07+CuWHDTBcxDa7MNz61jpQo4y3V/YbWHLBoZ/lm7ja6zgKrcXZxl1NyuvxhtDrxWG124/gK36UXJOrTS55zQzh+lZ+/rDAkjFOnhQIIwv1y43g4ePNiB57qoCv1ZreabYFUXLrrohmbxAKbKa2GzTbtQA/Wag+5m0p2TFqmDBcEwp7oAx1ygUUNzHMzBw7PBrhilFNXnYLnmggwTmxrufKKGCEM7FfErPDFEOm+nA8/rYMdzUVuWTxTD6Yw0839EFBPhH5cGLwry/UIoJag6tQbWamxg9+fvJHRU8trGsYjt7SUt0np9CdUWkbOKJf+U2QGc6Dc49lZdqsGhmIIltryljI6S68ZO69bX/HfKwH94zLGyThfdujgm0oOP3hslv/wd2cNOM0i0s+OhtlCF0wofi3lcacrY/NI42yebQhHMa9GC8W8CxCJJj5TtXcb0Wl2pw+120XVrWKq2+hcsppalLRcpHfm8HfhrMeIhL0kiL0DYuy3vgcx/d2VCsyVfiAzbshb/jtPBg3YNjf57VbBTNUM7o78jezuDB4HX2YFXo2NxS7yTymjJ6/H5Jfe1Xxb5JphclPJpuV/ocJz+07ndvItWl24V01ywDBdpFXSUCi9QDkXlgCSyM2m9fzlDx7SOsYsldeXnRIRp1ECnvjl3uFMFvhxUFxzAcdAYHgkCUdVBa4z4cw49aYbbtOPQzc+zNKnmyibf72CgRemBjgZ0wXAwH7413AyexLRwPde/VUyaj/9Ud+uou10kuSRJGifQ99Bqd+HUliZz2eC/VzlYqNf83bcz5EL/RtFDu7mO9fXhf822N0Z8D3ScDOdJR2gH3fbkjpfpMMxule8djJ5pdCzs0PdO8t0heMrLTS18PqfJltfl6YHiW8PN/rsFPWXpVnGhQbeKnWRHRX+R1uA8M27f0qdnt4w4AYRx4t0ycBMtYyYFRKj5lzzh3Te4Uew/gERGg/dWccUfjtGfp1YTTdDXEWuo9+39XVxOMOA/aOk7Sf5MZKdnZ1Mq9Q+PTglYdasI6B8e1TWgCEwZgdwfEdONn/6lR9w/YeJjER990kVQK0VgHARKSjD6lx7GAX4cNFRHEZgwAjm/RZzwaNWdIrDPCCjB9hlwDTdbCMwMwdbW1mJnlmVcxioagnH0o3Si+gzXfjNOL65/lI8kdlG+uC+JnyS67L9MZanewWgy6YvOtB+yNX1ELZAsMSi3qDhmzhyXS5Zz7Lh+1itiSWPi8RUx/6icS0OwuMmRC5HrvMAlICyTfVyXk27TY/240rQ12xyH+rlOvmQ7ri5jSh3Zz77MPo5FdvLD/bLPVjftWTeqP8o39dlyZ39FKktBMNukxE2anGCbfdxk8qLhkvXYr+xn/ywjXe5jO1mynumDdWQ/940qZTxZN+3M2HGxuJ/1yY+ss19bLNaRJflIaiPt81YvBcHSgMoLhG1l21woUsb6UQtB6rEP6uM628o+WWe5LE1bKZPxZP+oelTucTZR8W05R+Vk9kX5jItf9P7CE8w22TQ5LOdSThhPtJRR3fywHvsz5UnaMtY4dlH5jGMndZLGlLZJ6xIrsk0Tm3yksUua637oF55g44DEi5RLcxGM4yONDsfjxSLb7G9ULjY5+2NfcWWUj6g+so/yyfnH+Y+zY/0onySLy4HtylCWnmA8iVGLRE68rJsTa5OZulFtysGML9uybtpnjc3+bH4YI9LlutSPyp/9csl23KaSx8WllM1KvfQEs00kLwq5AOTCYlvWo3aUnPVkyT5Z3/Qh29LOrNv02LdpE9dmX5wb6SX1Eefb7JcxkshM3aK3C08wWjS2yZQTxIuJF5qUTboeF8PM1WybeXDOZv9+t+PGE5WHmbOco1HjJX/j6ETFzWNf4Qk2ClQ52eYikTJZH+WT5GkWgWljts24nK+pZ7ZNuyxt8p3lw7mZfiTJsvgvmm0pCGabPLlIzcmRMlk39bjNi4ZL7h+35BikLxei7GeZ6dOMabalD1mXfqSNrEsdto2TS11ZZ322Zxn1cx+Vss06shwll7pFqJeCYAT0OJOXdEJ40XDJCyXrIpD2UXlzHMpX6nL+UX0ss5XSL+uRL/5Iuayz3FZG6UflSXoc07SJ0rfFLIKsNAQjsM0JG3cC2I4nnu24n9tURi0CtovSN22pPUqPbaJisSxpGRczrj/KP48zShbVF+c7aX+U76L06d/kKMpMaZ6FQ0D/JkfhpkwTLhoCM/N7sKJNjOZbDgSUYOWYRx1FThFQguV0YjStciCgBCvHPOoocoqAEiynE6NplQMBJVg55lFHkVMElGA5nRhNqxwIKMHKMY86ipwioATL6cRoWuVAQAlWjnnUUeQUASVYTidG0yoHAkqwcsyjjiKnCFTm5+d7u7u7OU1P01IEiovA/Pw8Di0vLxd3BJq5IpBjBIhb/u/Ber1ejtPU1BSBYiJQqVSg72DFnDvNuiAIKMEKMlGaZjERUIIVc94064IgoAQryERpmsVEQAlWzHnTrAuCgBKsIBOlaRYTASVYMedNsy4IAikItoWPrl7FR1sHOMLv7+Ozf27j5wNMQUMrAuMgkIBgRKwKKlc/B34D4PO/oFKZDtEe/esbJdA4s6c6uUcg+b/k2PoIVy98iH9/8AV6H//hYAZIO9jto3jnT4s4fjAZaFRFYCQC9C85EvxtetrBLuBD3MCND36HP9f/gUrlb7hx/2tcPw9gdxsbn27jST/s2XfewpVzQePnO7fx1a3nfclRvHHtEi7MA3H9tIN9i4t47/enApuQ76N44/Jc35cWikC+EUhAsPO4/nUP10FE+zvw14/Ru86D+xE3N4Dfvv+Wv6P4xLm9jQvnFnF8dxv/uTWHN9+/hDOsTmVcv9Tx689xf2MbuHwJ760eBfAjbn5yDzi5uEdTOxSBvCGQ4B2MUyei9Xct7sIpXBHHtePnTuPET8/hDeSP8fD7QUNU4vqFyu5j/O+n07jok4v6T+HKO6eFglYVgfwikGAHsw8ifNwj3T4J5hfx9jVg49Nv8BmAE5cv4W0iS1y/GWb3+eDYaYq0rQjkHYHJEOz7+/hKHgP9dyZ+50JApvfpSEfHu9u4Od9/PyOSRfVL1OaP4gSELynTuiKQcwRSHBFHj+jRf4eXHWHtozh+MtwTtOL6iZxzOIbHuHenTzIi71ePo5xonyKQOwQms4Odu4A3l77Bt58EC//E5UWc5V2HrtQlIZYu4j26XYzr3wPRKVy5toiNT2/js1skPI03ry3i3sYeRe1QBHKHQPLvwXI3BE1IEcgnAvqL5nzOi2ZVIgSm8g5WInx0KIpAJgSUYJngU2NFwI6AEsyOj0oVgUwIKMEywafGioAdASWYHR+VKgKZEFCCZYJPjRUBOwKT+aKZYjy5hZedYzh0/rz/54LtYUn6FK+2NtD7BcCRiwnsRntWDUUgLwhMjmBJR/RkC71fzuJQ/XKIkL3uBl51nwLu2zjsHkvqVfUVgVwhcLBHxCOSQI/wcvMLvMJFVI7kCiNNRhFIjUD6HezFFl5+d68f+Bgq7gkjCXEE9CXD3WqwSwF4tXkPOHEFhxfP4HD9j8HRUf9vSgaW2iwqAikJ9hSvfrgnjnG0+9z036UYiN72Bnq/uoLD54PfMfuk2toK3rXo+Pd60nc29qylIlAcBNIdEV88Ct6fBu9IZ3B48exw1C+28OoJ7WrDPxJQcS8CvzxE78VQTWuKQNkRSLeDvXg6Bi5P0fvuC7wMacp3rpBAG4pAKRFIR7DXiSijSDZ85yolcjooRWAMBNIdEX2CPQyu0ykIXXhsPxyGe/0MKkeEfCjRmiIwUwik/8Fl6BbxLA79+hhe/QDxhbF5i2h8obzni+n+RYkJv34fZiKi7YIgQD+4TE+wggxS01QEDgoB/UXzQSGvcWcGgXTvYDMDjw5UEciGgBIsG35qrQhYEVCCWeFRoSKQDQElWDb81FoRsCKgBLPCo0JFIBsCSrBs+Km1ImBFQAlmhUeFikA2BJRg2fBTa0XAioASzAqPChWBbAgowbLhp9aKgBUBJZgVHhUqAtkQUIJlw0+tFQErAkowKzwqVASyIaAEy4afWisCVgSUYFZ4VKgIZENACZYNP7VWBKwIKMGs8KhQEciGwGsnT54E/bRZP4qAIjBZBIhb/wdTaLtga7MPhgAAAABJRU5ErkJggg==;" vertex="1" parent="1">
          <mxGeometry x="1667" y="1180" width="216" height="118" as="geometry" />
        </mxCell>
        <mxCell id="DroHx0XE8zM4UCk5UBcj-220" value="" style="shape=image;verticalLabelPosition=bottom;labelBackgroundColor=#ffffff;verticalAlign=top;aspect=fixed;imageAspect=0;image=data:image/png,iVBORw0KGgoAAAANSUhEUgAAALcAAACACAYAAABJEfiKAAAPbElEQVR4Ae1dPWzbRht+aBdJYRpJh0gojHxQjcgZlAT4EECLDBTuaHfplLWbPNpLt4zZvkUe7a1rpi6VxxoB4sVAEaCNhsiBY9QIAslLAzNAAtj88JI88ng6UqRt2eLpFWCQvHt/n3t4fEnxZOvRo0fuX3/9Bf4wAiYh8OjRI1gA3D/++MOkvDgXRgA//PADphgHRsBUBJjcpo4s58UzN3PAXAR45jZ3bCc+Myb3xFPAXACY3OaO7cRnxuSeeAqYCwCT29yxnfjMmNwTTwFzAWBymzu2E58Zk3viKWAuAExuc8d24jNjck88BcwFgMlt7thOfGZM7omngLkAfFXM1GzM1+uo2HL0fXR2XqPnNen6gX5nB699AVkxed+eR71eQejGOcTe3gEc+PZnDhV75QdYqnyKySTHGLktP1hCrZQQH9mkzuAT5ZAjRzUPAM7hHvYOHGHW36pyYb5xsaIcFZTcPrzRAPkDXXtQRk9ib9QPwCPJEuq2ZlB1o+XJz+Bwbwd7AQfs+Tpq8z3sHegU9G1RDPoYgTJKJQf9PlAqlYGedPYR2Wol6aQs40F9HnaPTjD/E9lPyDE4Oeik2BOmPRLXUYeERWq+wps+x3FtNaQscdA7doAZO5plVcR7r7HT6cOufIey2jdwXMYDj1R7kCc350Aiw4DOsIaEGMsllJxjvHt3DKdU0sTm4FPIrR5ee1eOBF8DOdqYr5S8WVo65wHnAHsxLEaRb0KMV9hsCLltlO/YcI574YymxbDXRx8l0ASZ+rFtzKCPvpjpUoWzdupjLJdKftxOD8dOCZX5sAgCvDYblXodcnOqRzlHu4w7toPjXnh2RKqe3AxscjeSfCNX17VX6LLErtSxVBHQOTjsaAZRdOfZ2jPJV4A8dog3aTHa86iUHBwHdQ9dfSp3yrAPRNnh4GBvBw7V5PUlVODgcC9+NRkezic4ibDYdLEDcHn5Do/n6iQKTe6BerNeB3IP/mjBTovRLt+B7RxDnJNO7xhO5Q7K9kGsHOq93vFulKnmr+fOMZidtQQPSh7pYjFaNK7WuiFlCQDvMitmogQQqb7NUm7Il/YEU9Q8413TIwHbnokOdHuxGP0yBXYF9aUlLNGf92TGxp2ynm3OQQeHTo4cHQefkCDvYRHM6hnz1aU0zm3mkNsbLPnmS4E9ePLgHL4LHhcq/bHDHt4dOijV4rWuN3N6xa9/cxi/OS3ju4qN/qEoKWIG/QM5xvJ3qNhUZuxgZyf62zt0wpveyF9gK9CJbjAVHwM56vNARrkB/4q7cT8s6O+WDHvGq+vPX696gys/qFae+6r9sRIkeBYuqxMZxHNq79k2OtiJPcYgiTIeLNUA75m8moecg9pHunK/RL3gcWDUopdT84GSb6Q//nv0uyUFJff4g8sRXi8C/KM814s/ex8xAoV+WnJ+bPxLf/SldtxSvLyI9/FRcRCYUHL38HrnUr+hKc6IT1Ck5jwtmaBB41SzIcDkzoYTSxUQASa3NGj0Rcp5P3l1k+ST2tPiOo9Omj1T+iai5qbBpy9Khn1IJqusauu8usP8qf10rPvo2nU5q/Z0tkxpM57cSYOpI4MY1KQ+QZakftJP6hO6wofYpp0UZEunJ7clyaTFkaQjYjJlazS5hw1iFpKIgZbJkkUvybdsR8iQPbEv+5P9iHZdm+iTt2lyOn+yrin7Rn9DqRImadBkwulk0ohC8qof9VhnU8gM8026wn8WWdWX0FXbhX+13ZRj+obS2Jk7y+AJsuhmMrlPN+CiX/SlHScRjHTT+qhftivLina1TT4Wsem2JEc2ssrrbIx7m7HkzgK8PLBisIWe3Cfa1K2QUUkiHwsSyrqiTZaT+7Psy76FvGgTx5O+nWhyi8EXZJPJoWsT8vJWR1Cyo2uX9Wg/q5ysJ+ISbbqYhW0hM6nbiSW3TBKZIIIIoi1NThBYlpH1de2qjiC40Bu2FXHJcsKmrk+Wm7R9Y8ktSJM04KKdiKEjoUwEISu30b7cLu8Le9Qm9oWuLJfWJvpkfXlf9IttUp/OH+mQfFKfsFn0rbHkzjMwaYOcRJo89i9LVo1TEFTdXpa/otsxmtxEBjHwox6oqzwJhC+V7CJfylXtk/O/Kkxkn9exbzS5xSAPG0xBlvMOQBqRhtnM41vIpvkTfUmy1C5khsVW9H7jyU0DNGww0/oFSfIOdFa9NN/kU7YzTFaOMUk2qV3WNWXf6G8oTRkkziM/AryGMj9mrFEgBPh97gINFoeaDwEmdz68WLpACDC5CzRYHGo+BJjc+fBi6QIhwOQu0GBxqPkQYHLnw4ulC4QAk7tAg8Wh5kOAyZ0PL5YuEAJM7gINFoeaDwEmdz68WLpACDC5CzRYHGo+BJjc+fBi6QIhYN2+fdv9999/CxQyh8oIDEfg9u3bmJqfnx8uyRKMQMEQIF5773O7rluw0DlcRiAdAcuywDV3OkbcW2AEmNwFHjwOPR0BJnc6PtxbYASY3AUePA49HQEmdzo+3FtgBJjcBR48Dj0dASZ3Oj7cW2AEzkHufWwsLmJj/yJZn+Bsv43TjxexkUf3ivx9fIXT/X3wtwZ5xmZ0sjnITaS2YC3+DjwE8PsqLOuiJB9dYmyZEchB7irWXrpwfwWeb+1ivfMTXPcl1qoMIiMwngjk+K1AmrkXsI4WWs0GntR+g2U9Q6urIziVAX8C/7kP9+2fQeazsO59j6mbGiDocn70MblfVvm8j9O3b6KWuyuYvkX+XsAt037QRTZ7s5iqVr13DPzWDzjtJMSjtetruf0XOOufBIalPGI6s7BKwnkgiiCuL+J4DlO1/0bxxPQBeLkIWd5eFIEc5PZn7jUQyZ8Dv2zCXUtzfwL37RtY91Y8QnsEefsKrjy4pJ6H2PjgE7v0PaZLswAdU41769u0QKK+o6R4PuD0H2CqtuK/bENk7pHdKqzP+zjr38JU7fuIlJ7FE5z98waQY6ET58b9wF9A7K8fY7rqx+dh0HkVEDwpF/lkjELnvfwI5ChLhHEiuW62Fv3S9m40U1slGvSPcD9L/TRzZZ2xSe3jBwBzmPKITQ3fYjo2M0u2dbuJ8cTtWLfmgC9ipiZD73Gm3vx+/gD3ixLL3bnIq+i/G514MQwumkvkifcSEMgxcydYyNV84pNblCZ9Ki9oBs7xuZFTPtV0FE+89CClgKg3q5i+B5y+beOUmsVM/Vkmv8aJtn8W1o3AJ6lcai6aGCa86Rwz90UQm4UliE1m7q5gqgS4/+R4fBabUS8SC+kG8Xx8FZQeK5iurWD6nigtAvtEcGqvPQb6L/xHmDeHnGTa/hO4XyQMLjWXi2Jhnv5oyX30AmdBGeLSLH1jLk5uAFbpMSy8wdkRlRxDPl5t/V66uQtqbiLp16JsAeCVO+8HjWWIh5S8WAe1/ZPhRtDhkVeKRfV581tYN97H8ophkJiL1jE3ngOBES1WEE8vHgNH4umE/KRA9IunG8FTDHHJT0sk9oRBenJBN5fhk5A5TN0FzsKnJeTvT6A8B/dIPGmR4wHco3ZUV9P9Qf/Ev/HzbnilE+XWY0yLOjoWyxym7s3ijG5Mw/sAOSYqQ+5LfcFJGD75kXNJA4D7siBAixVGTG5B3izhsAwjcHkI8Eqcy8OSLY0hAlf8tGQYAsplXBXPUraoOnw8sQiMqCyZWDw58TFBgMuSMRkIDmM0CIz2UeBoYmarjEAmBJjcmWBioSIiwOQu4qhxzJkQMJfc26uwFjdwoQVDmSBkoXFF4FrJvb+xCGt1e1yx4bgKjsC1krvg2HH4Y45APnLvb2CRvrMP/vxJ119bGZuAlZLAm6FDPVp36essrO8CWyuevUWx4ljrg1D0dYRvy1pFbM6P6S1iQ7xCEg7AEP1QjndMQSAHubexurAOtLqgX4V13TbwLENNu7+Bn9cfou3pkB4tdPBX9XRbDaDZ9uy99BZjJvkgYi5g/aEvS/67rb+xEhJ8Hxs/y7E9RWd9KzZG26safa7JYxiZeOBm+rSbLtB02wPCXbfVgNuUO0i20XK7JNttuQ0o/YGNbqvhQlZM8uHZUH233SYabouc6PoHYghkw/gl/bCNd0xBgN5czjFzA2jUsJD39K6u4WW3hb9X/HImLD+S7Oh8dDvYHZBfQK2xi04XgLZfVdjF+kJUUlnWCuJzuyrPx0VHIB+5dzsgLuX+EMGDUubh+gJi9blqTOdjoYaGKocuOrsN1Ohs0/arCk2pNKLySJRIqhwfm4RAxisRXcbhNrw6gFTabjMoPdpNROVFUIaEZUnMeryE8coSUb54ckk+fD25hInrKnoDMfj6UeyxoPjAQASoLKGTNHtqgjSeolzD+uTyDTbdtlzvenW054icRScBeZXshcST2iBqai9C2Qeiml5EH9Nrum06jp04wQniJ+3HEusXhnhrAgLENX7l1aRrMOcSIsCvvIZQ8I6JCOS7oTQRAc7JWASY3MYOLSfG5GYOGIsAk9vYoeXEmNzMAWMRYHIbO7ScGJObOWAsAtdKbl6JYyyvxiKxayX3WCDAQRiLQD5yx1a7WMHbff4Kl9ibfudeiSNsbWM1tnJHwl8bA/WTLq3ykXVptY5v01/Bo/73NbmPXodVVvdIbnm3mAhkfE9GefMufCsw/qafZ0x+ccp7oUldaOC7HFis4IqXm6KXsmJvHIY+Jf3w5SehK3yJ42ihRPxNQteN26b3uBqDL2RlRIfFxgsBenEq+8y9/Ru20MTT8H/zLWPz5Rqy/ae+LfwWW/CYPgs029H/3Fn+qQn8/Sb4iYa4z+qPT9BQ3v9utjex7Jmv4scn/jK2Tb8B1fsPASG/v4FnWw20fgk6AVTXnqK5+xy/8+9BpA9QQXqzk5sS0q2SGZZo3pU4Q+zFFhsvrGtW6AwxEOvm1TkxOAw7yEduMevlBSHPSpw029urWJAXG3dbmhU6aQbUPl6doyJi0nF2ci//hCa28Ez8BAO2seqtHq+CrvZbou6gG76VpNWJtO5RgS8sOZT2DIfb/7vAzF39EU8acj4ZHLJIoRDITm4sY7PbAtYXgt8teYbar37NvbzZRjP4/RFroYOn7WYEAj05CZ98+D+vENbAXs28jgXLwtCFw2RxeRPt5hZWAnvPai1IniKfmfbo5yW6ePJc5BMsHuafe8iEXhGEeCVOEUaJY8yNAK/EyQ0ZKxQJgRxlSZHS4lgZAYDJzSwwFgEmt7FDy4kxuZkDxiLA5DZ2aDkxJjdzwFgEmNzGDi0nxuRmDhiLAJPb2KHlxL765ptvvHc/GApGwCQEiNf/B18QlK57crZyAAAAAElFTkSuQmCC;" vertex="1" parent="1">
          <mxGeometry x="1683.5" y="1350" width="183" height="128" as="geometry" />
        </mxCell>
        <mxCell id="DroHx0XE8zM4UCk5UBcj-226" style="edgeStyle=elbowEdgeStyle;rounded=0;orthogonalLoop=1;jettySize=auto;html=1;entryX=0.5;entryY=0;entryDx=0;entryDy=0;endArrow=block;endFill=0;" edge="1" parent="1" source="DroHx0XE8zM4UCk5UBcj-223" target="DroHx0XE8zM4UCk5UBcj-225">
          <mxGeometry relative="1" as="geometry" />
        </mxCell>
        <mxCell id="DroHx0XE8zM4UCk5UBcj-223" value="" style="shape=image;verticalLabelPosition=bottom;labelBackgroundColor=#ffffff;verticalAlign=top;aspect=fixed;imageAspect=0;image=data:image/png,iVBORw0KGgoAAAANSUhEUgAAAM4AAADCCAYAAAAB3f2/AAAczUlEQVR4Ae1dPWwc17X+GLgyC0uIyJYSQcYOZQN5NtgsE1tCHgKIEmA5AlSkUQAby1TRNmkMIYWh5xRulqpCwgbi5hUC/OwAMQkEL5DlPLERomcgNp8dEqbYkjKcFHQ7D2dmz+yZs3f+Z8nZnbMAce89//e753DuDPdyJl544QXv73//O+xjCBgC2RB44YUXMAHAu3fvXjYNkzIEDAFcvHgR3zMcDAFDID8CVjj5MTMNQ8CuOJYDhkARBOyKUwQ102k8AlY4jU8BA6AIAlY4RVAzncYjYIXT+BQwAIogYIVTBDXTaTwCVjiNTwEDoAgCVjhFUDOdxiNghdP4FDAAiiBghVMENdNpPAJWOI1PAQOgCAJWOEVQM53GI2CF0/gUMACKIPBUEaWR1Zk8h8XFGUyKCRxuf4IvDogwiXOLi3h6n8dCKKE7ff4CFqaiAoHNwN6MdIZDbH/yBXx3PX9RPnC0/xAP9+DH4uJtYwGLM98JO+zbHT/H159nsnwsDtPncWHmOzx8uIejxNiP2MFYt80pHFr4hSlQAj0MMhfANM5fOI/pA07mYmsdJLs7YSTPT+Lz0zgIKtV3NpjQRA6qzc3bx+HMAqamgYNwHjSVs5iZPMS2pGEaU1NHODwEpgYUis1VarnjkxLj22/IVm0a53tFI3IWwAG+CK8Aw1/kA8rgpycjV7z8Xg/6hSCUp6emQIxo3Uxh6ugJHj9+gqOpKUwLeeuWQ6AZhTM9hSkc4jCSVeWAy689iXMzU8B3R3Bfm7Jb9AswUgh0ZaG6iU6QiunoyQGOjg7w5GgKM+ci+8bsDk1yAIHmbNXE1CfPLWIxvIGQ9x1CKEd3cmYRF2ZYIWpP8mjb9sletGymFi7gwoJbN5Z3cIjDBbFdo18MR/tiC0q7vXOYmTrCk4eBv4MnR5g5M43JPbpHqeYTG1815mttpZGFc7RHCUz3BXTfU3595H2MthbyfF9nMb0XvZ9Kuk+I5x3g8f4MFnv3LcGV5WGkICanz2Dy6Am2e1VydPAERzNnMD25B1W7OuTM4/j4MpsYWcFmFI7+DX0Sy3XwGPszi/526aCCzPULYXEGtPt6WlxZgqlNYvrMJDA5icX+pTBgTU9iL4P/pydpW9e/Nk1OPg3gu5NArpY+m3GPA/oNfQTaWpw/sTvkI+ztH2Jy5mw1N+n+fcskzizM+A8ADvo53nvCdoT9h5/gk0/6Pw/3jzL4PwJt66JxTuPszCQO96vb5tWyGnIE1YwrDv3upO3ZAf0dR95TBH83kbfU0X07Jd/DyrY2cFz5ov76f8ehNXTzuEKCBJ+hhN6ObtOCJ2zbA3Ef7Q0+yo766M137yEeYhGLFy6Ad7L+llMClRpfjiwcQVH7h4QjuGgW8skiYP+Q8GTxN+8jjEBjtmrF1oi+WbAA9Y2a0FT4xCykWKcpCFjhJK40fbNAbewT5Y3ZFAQa8lStKctp8zwuBKxwjgtp8zNWCIxl4Vy4cCF2kZjHbaygYmSRd8m4aMq0P4yTi6O7bDCtiM5J67L/UWlH9h6HkoP+uFf0Q7rahivhyvig2Fx+dMzsl1vms+84OssVabVNaSOOx/FI2aJ98lGlvaJxFNUbycKJA10uOPc5cSVAzJM07svFTJJj+bhW6+ox+yE698mWHMf143zmpUu/abo6fj1mfRfd5Ydocn6sPyrtyP0BNA3sMnyty2NqXR9OCM1nOuuwHR67Wm3DJaPtkkwWPWkrzkYeurQn+1nmKeWpX0RH2zjuMf0BdCSvOHmB0sklxzphJI/9kIxeYCnHNrQM6Uua7LNt2bIdSeO+9Mc0brVenB+XDS0rx655s09q4+xJGR2b5I1yf6QKRy6qC3TmcytleAElj/r6w3JEd/G1fNJY+kqSY15Zf2wna6vj4zG3ZCepeCRWJCv1ssaQZD+rjZOQG6nCyQIQLR59uNWLm8VGERn2x8kjx2wvLZYkPttjW3Gt9J9kj/Qln/WYrsfSX1IscTzpS9oa1f5YFQ4vjlx0Xhi5oLLPfG6TeCyT1FIM2r8cy762U9a3tO2KQ/ujMftk7FiG9Wns4rEct+ybW6aPaztWhZO0SLz4cmE5aaQeyxHNxZey3GebLK9tyDHruNokObbt0iMaxyD5ZM9FZ3lqk3wyj33zWPpgW0V42s4ojUeqcGhx4hJBg5622Fq+zDhr0qTFzjHnjSXJbhxmHHMWnyzrikvrS39JcbGtLDIsW6d2pAonDTi5iHqxJU/202wSv8jiah091n45Xi2nx1qPxqzr4pXlk/+4D8emZWTxxOmOOn3kCidpUTiB9ELSIkme7MctINvgNk4ujs4+iE82aMyt1HHZ1zQ9lralrePqczw6DqIzLW6+MkYpL+mj0B+5wiFQsyxKXvA5GbjlBCi7uFLfFTf7oXilLMfvojGvqpZ85PnImFnPFSfPl2S0jkuebY1CO5KF41qIrGDzAupkYbq041pc1nPJa908cbp8SXtl+hxznI2kuaTpss04G3npbK/u7ch95abugFp844+A/c+B8V9jm+GQEBjL8zhDwsrMGgIhAlY4IRTWMQSyI2CFkx0rkzQEQgSscEIorGMIZEfACic7ViZpCIQIWOGEUFjHEMiOgBVOdqxM0hAIEbDCCaGwjiGQHQErnOxYmaQhECJghRNCYR1DIDsCVjjZsTJJQyBEwAonhMI6hkB2BCaeeeYZ71//+ld2DZM0BBqOwDPPPIPvnTt3ruEw2PQNgXwIUM3453E8z8unadKGQIMRmJiYgN3jNDgBbOrFEbDCKY6daTYYASucBi++Tb04AlY4xbEzzQYjYIXT4MW3qRdHwAqnOHam2WAErHAavPg29eIIFCicXawuLWF1N49T0pnAymYeHZYNdOnZ+cTSKnK5ZRNDbDdXJjBRbGJDjMpMDxuBHIXTS+Clj4HnAXy8gomJvAVUYDqb76Cz1caG58F7cBNzBUyYiiFQNQI5CmcONx948N4H7q5vobN9FZ73ADePI5NbC5iveuZmzxAogUCOwuldcW4A19stdBc+Elcc4tHVZxMrtKXyfxKuRpvZrla7q0uYWF4HtjqYJ5v+loh8LGF1lWyQrxUEO0CxpYvQGZ14/uB2K5Bd4v3o7iqWfJvB3OJ3ZoFehE9zjWwx4+PgSK2tPwI5Cqd3xXlwGfgcwOU1dcXZQmf+NhZ2PNB333a6QGeek1oAQYm0/Dm6O+lXq7mbD+BttIFWFzu0VVu71DO0hU4HwfbNWwNRN1fm0Xl+w/cd+P8cyyJhk/iXrraB9Y96BQhg92Pc3Wrh+mW6nG5i5QbwPvn359XC+u3i91pJcQiUrDsCCHjlPztetwWvvSEtbXhttLzuDtF6/G7Xa4U0KZvQ32h7aHU934wvRnaVrx2XXeE/je9Fbe50W8qniM+31fZ4qhtteAgn7sBBxp8ah/Bj3doiAMDLccUp8itgC9s7fb31Tgdb/WHFPbri8TaR2mWsRzwk8S8huOjQpm8XH9/dQvtW/0GEv2Xkrdp82TkkxREJ2AY1RmDIhdPCgrirb2/0tnA3im914rHsPXnrbaloWxV9eJHMv/SbLlq0XfO3aW1c5V3h5grmO8/3toUevJ0uWvFBZOAkx5HBgInUAIFKC2d9uf9AYHf1NtZb1+HfJoiJzt18H110MB+5gxYCRbpzl3G9tY7bfDOvbaTxSZ5lbtzFVvuqf9+kzdB4852kK84cfvA83S71/mBFDxXo4QZ/2EdcnCxnbe0RqLRw2hu3sN3bLvm/pZ1/d6GHDBtory8jfGpVGiayuYPrd+d7T9p6W7bw4UAanwKYw+XrLWxtbaEdXm4AXFrDRnsdy72t2u2FLtoJ8V5aC+bmP/Gb38YtergRfrLEEQpbp8YIVHQClB6xzmP7lofwwVeNJ22hGQJlEKBfipVeccoEY7qGwCghcMKFI/9gKp+IBf3qtnKjtCQW6yggUNFWbRSmajEaAtUgYFu1anA0Kw1E4IS3ag1E3KY8FghY4dR8GV98+73YCJnHbaygYmSRd8m4aMq0P4yTi6O7bNSd9lTdA2xCfJRQj958vfBUSVfbcCVpGR8UnMuPDpr9cst89h1HZ7msLdlhm1l1qpSzwqkSzQK24hJAJhj3OXGlG+ZJGvdlYiXJsXxcq3X1mP0QnftkS47j+nE+0+iMhfSXplMlv8RTtX/iD+9+gDsHAKZfwodv/AgzVUZW0tanf3wPHfwUj149W9JSBvWv7uHFv57OjYFMJpeXMnyty2NqXR9OQM1nOuuwHR67Wm3DJaPtumRCWgK+WeIJ7VTUoadqxa84X/0v7hzMovvmRbxcUUB1NuMX4uHJ/4LQSSnHOhklj7ElGZ1sUo5taBnSlzTZZ9uyZTuSxn3pj2h1wZbjy9IWLxyyPn26VleZLBMuKvPyq6/jUVFlh15a4jGfW2mCk1LyqK8/LEd0F1/LJ42lryQ55uXxVwZbmmPe2DjGMm2hwtl/8F947f63vt/X3v4bcJ62RMBv336E2VdO4879rwHw1Uhs6XwNpnPY8fzB7VYg++cfXsN/Lp0CvvkMv1j7G77smbpy7XW89SzblW2g9/VPBH/g8h8fB1mKxBLxexq/fuW0dFZZn5OPW1kIlTlxGGJ/nJByzOJpsSTx2R7bimBLxGPCl/0XaQsVzszSz/HojN7XPwbwLe7cP43um6+H27dP//gB7kz9FI/eCO41/KJ797PwfiCJ//Jzs8AHe/j01bOBvW8e488Hp/Gz104BeIzffgj87s3X/aueb/evn+H1Z4vdayXFEb13+yf+8OHfgFeu4REVL8Xx9l/8+7wiCxCnw4nHySvlZOLJvpShfhJPy7rGFIP2L8eyr/WL+z4efHW8eceFCifJyZVr4p7nm8/w+y9O49cr/Rv0maUXceX+I9z75kf4JVL4z57DFfwF//3VRbz8LLD/5df4cnoWv/s+RXAWb73Rj2TmuVk8d/9b7AP5t49pcfr+er784p3Fr96goqHPWbx1bRZ/+mtveAyNq6hcicpyFJKL7wqVi4HltQ05dukzLUmObbNspK0BvpF4YgaVF86gn29xZ+093IkwTuPX4TiJfxb/fh7ofPkYbz17Cvf+71tc+Un/iiK3jIG52dBq/k5SHMLak2/DraGg5u5SYnGSpilzoiUlY5qNrPw4HzpWPdb2OWZNTx3nxDctjlR/BQWOoXD0PY2I9BvqJ/ABvPzjl/Dc2h4+/fFp/PlgFr/ie5iv7uE1f1v48942ju53gvsu4SFHNzmO0NCZ03gOZfyElhI7MvF0Mkue7Cca7DGLJJrW0WPtl+PVcnqs9fzxMeHr9J2DONyv3Hz/LH42/TV+/+Cf7pDS+KTFMh9+jS/PnwvvnbTBT/+n/5BA84BTmJ0C/vQl3Yf1bj4/oAcYvQ/7iIuT5aj9/inMQcyJbmSlLSmb0qcEo2RyfYjHCaj5kif7Wo7H7INbpmdtZRyc/C5bRJM/ZD9p7LKRB1/Sl7FlnU8VckO+4pzCL9+4Brz7AV68L8IN/2CaxiedU7j4Q3pSR9u0/r0Snr2I7vn30Hk7KIDnXnkJVxKuBC+/+lNcefsvePELsjmL7rVZdML7kixxcPxn8dbKS/jFGs9pFt2Vl/D7D5mfr6WFrzoBOCG55eQq60fqu+JmP4SAlGVEXDTm9dts+Gaz1bc6jF5t/3+VBeZ5//Yf70Zg0GNiEs1Fl4oufpKelI+TkzJpvjhOKTeqffq/aiW+cjOMGjabhkD9EbCDbPVfI4uwpggM9+FATSdtYRkCZRGwwimLoOk3EgErnEYuu026LAJWOGURNP1GImCF08hlt0mXReBYCmfwjWdlw65If+BtaRXZNTNjj8CxFM7Yo2gTbBwCVjiNW3KbcBUIZC6cwe3WCb5gNvZltikvpo3oLWH1HxrCFH0tbuPGIpC5cOrzgtlNrMx3gO5O70W5G4D/MtvgVSMDL9CVb6W+IfVuYbsjXvqU4QW8jc0Sm7gTgYzftavJC2bpZbTov7w2DF691Dag6xfoKj17sW0In3WyI5Dz5bk1esFsawHi1aLBb4OdbceLeeex0Oq9wNfJ179I7MW2GhEbuxHIvFUj9dq8YHZrG+Jl1sHM5hccL7XdwfZW7wW+Tr4GxV5sqxGxcTwC2a9R3o7XbcFrtVoe2ht9PbV92mgjsp3yx0I+Mva3WPDQ6no7vsWej24w6jvhXrBlbIX8Da/t6wZ6Mq6dbkvYVXq5/bJ/a5uOAG3VqJxy4eAnI+CJOvD1g2LxDXqtbtdri/uQSKEE0l47cB4UmLzX8Pm9IghlZGF5nsdJ7/NbXlhDXlAcvYmJoulNMaLX9jZoHBYsyaT47ZmxptkIUH7ZQbb4K7FxDAEnAnaQzQmLEQ2BdARyPRxIN2cShkAzELDCacY62ywrRsAKp2JAzVwzELDCacY62ywrRsAKp2JAzVwzELDCacY62ywrRuBYCmfwSELFszBzhsAxI3AshXPMczJ3hsDQEbDCGTrE5mAcEchcOIPbrZM6ARr4XdncxMrEBOjrDxMTS1jdFcsTOek5gZVN5pEuyUrdFWwisOm0FeGRL5K3T9MRyFw49TkBGizZ+vJtLOx4/inQjfYWOu9wOm9i5QbwvhfwdrotrPsnRHmp6czNR7jq83fQba1jeWIe27dYHujcWAXX4ebKPAZOlS71+WzV2uYhkPGrrsE3j/lb0dGv7CsT/reQ+6cto9+ODr6BzHZ8TfntaF9XfuOZJMg301L0VSjBN6k5lkFdfx4yGHlEIjUW7czGTUCAvh2d+YoD1OgEaMovt93Vpd4WbgIT8x3HydAUAxG2nQqNwGEDH4EchVOjE6BJi7e5gvnO89jobdW8na7jZGiSAc2zU6EaERsDuQoHc5dxvbWO2zfuYqt9FZdiENx8J+m3/Bx+8Dyw/lHvnoRu5JfFf5thH5G7/RhHGcjJsaQYqDiWFG/GHiEE8hUO5nD5egtbW1toXxVlc2kNG226yQ6ect1e6KKdAMKltQ2015eD7dT8Nm5tSOk53Hywg+t35/vbLbKb9YY8ZywJYQIoGUuyceOOMAJ2AnSEF89CPxkE7AToyeBuXscAgZxbtTGYsU3BEKgAASucCkA0E81DwAqneWtuM64AASucCkA0E81DwArnBNacnsroj4umZWgcJxdHd9lgWhEd1nW1Vdtz+agL7am6BDJucVASeZ7/n1IzTY1k03Q4Mbllw+wnjs5yWeyzLdahVttlXpaYWd9ll+2MYmuFM4RVS0tQ6VInpR5zwmmbchzXl36on5To0kaaXpKs1k3z65IfBVoFWzU+H1P1dIdlt+o4o/aSkop49EMfbimZ+Yfo3OeWrdOY9VhX22M663DLcszncZw9lmP9KlqKfxh2q4itiI0KCqeI2/I6/jeg+yfUyhs8BguyGLgQ2C0lFdPSEoztuFq2J1stRzz2JVspx/oUC8cT12fZJrW2VatwtSmxOBHzmM2rx4mcxwfLunxRzC466fB8JF/32XZam+QnTbdu/HxXnNgjyTQteRxZHWVOO36caLcH2eZK74h0sIWb72wBvS+KLq3uIvloN+noI9M5Y6xo5Sjp6ONqiSaTMs4lJWDcT5wO++RC0HKc1JqeNo6zl6Y3DvyMh/bUi5noVKZ8oVN4QtPzoic+B8fR06PJdv3Dmf6pTD4BGoSbeHKTRCKnN/m9N30bvn7CO3yiMWaDKPgFnSxLMizHLWvIsewzn1qip/1Ieamj6a6xy6+m6THbiaMzn9osMlK+jn2aAxV+ttjkkeKIxuBxZC/PUeg0u92u1xJFya4HCqf3Uik+BR3lO2KUx7EjRcYe5HFtpiW3aVgyn1tpTdP0mGXj6Fn5LEdtmq0kGalLff6R9l19qefijwKN5pBvq+Z6aW2ma27K8eMEu+udpENx0vkl/Ib+MYd/QG4XH99VZ4akaNjvvVjXH6fEGOrEdygXeQvmkgpydZCjt2d6rDWIH/ejZWmcJJvEI924mKUfkuEfSdd98pXFntar4zhf4bheWptpVinHjxPstjc87HSj/3kmzuXc5etorX+Ezd2PcXerDXnWzq3Te7Guz0yJ0W2gNFUnkx5rBzJBuc/JyOM4HeZLeZKVdO5LG67iIn4cXeqOaz974Vy6ijbWcTs80ryJlSynMtOOH2ewO3fzfXTRwbx+/Pz5P8J/4+QvUM/XMv2DDsfR7vXl/gOB3dXbWG9dx+U5OujZOxIezq34clPiUUJl/XASkzwXjUtfJynLM12PXTY4JuKx3yzxkoz+IVuaRuO4j/QZJzNq9OzbSv9egPezfKPtuH+Q9zi+db45Z90sL8PVdtVDBBFL/w3U9Eyg5e+3+V4nmBzbCmzQmkM8GJAyAa8XZ+TFutlhIskgr9w6Lp6m6bG05OK5aFKHY4qTI3ocT9thWy66i5bHrku/bjSaD/1qpLhGrdjj46XH1svAhrcm/pkIPY4O/ungmvhXCfFGhsuRv335yqDXQMrIaPLSSTfOh7TLfS3LY+ZnafVcsuiMkgxhMnZ/AN38aB1ob4iiqd+SyMSSfRlpVXSyGWdL+uO+ltVjlmt6O2aFs4mgbmpwWWl6Zo35/MdvqzbmC2bTO3kEaKuW/anaycdrERgCtUHACqc2S2GBjBIChe5x7k9M4JUST+LK6h8nwBRr1k8ZTLL4yINblriHEW+eGPWcy+hqW8MeFyocHVTcIrkWRoOTR1f7LTqO88n2dNx6zHKyTbMpZY+rnxT3sOIln2Tb5Vv71DJSV8tqzLSu5g97XLhweGI8AW45YObzmFqiaTk9lvJV9HUc5E/6dMVUhd8m2pBYy77Em/uS78KK5Vy8NF2XTtW03IVDQSdNKi5AqSf7cfJV0TlWl08XrSq/dbBD8zvOD2NdxCevRRkbRfwW1clVODw5l7O0RaoTIDJW2ad5ueLUMq75143mmsewYySctF8XbdhxHIf9XIVDoOgkYqC45aC1nKSzbJwMy7Icj6tsXbbj4nHJ6ljidLXccYzzxJJlblljJlvkm23KvrQRR5cyde/nKhyajAYnzwT1gjLAbOMkAD0JnzzfPC3HyW2arsbWJU+2qvpIW65+lniqiuU47OQunLigJFguGeJz0bn4RhttBPIUBudBHp26oZOrcGRxcJ8nzy0XCE1U9plfNwCyxMNzzSJbVxm5FnWNcZTiylU4nPxZFiGLTF6gytrU+nocFw/PO45PdLLl+mT14dJlmrRBscgxy1TZFrVPeq5PFvxcenWmVf6Vm2EuLNvOAygtJicCLyC3bIcXXNOZX6YtEnMZfy5dnr+L56KViZl05Y/L/jjQShUOJxwDocdMr7rN44cXUccgk6lMomi7ceM8MUsbMk6mp8VLfP5IferLOKQcy8tWykp6mT7HkOa7jI/j0M21VZMBEQBy8nJMdDmWemX7bLuMHVdsbFfOiX2QfJkP285rwxUn22CbrnhJhmOWfO67eGyXW7bP46wt246T5xji+KNCL1w4GgDXOGnhJUBpYEtZ6mtfmp80zhqTtJHFX9ocsthgn2wrTYf4WlaP2aZs2S7Jcl/yuZ/EYxndah2OR8sVGVdpq4h/qUO/Ssfrfw7I2VnfEBgCAnaQbQigmslmIFDq4UAzILJZGgKDCFjhDGJiFEMgFQErnFSITMAQGETACmcQE6MYAqkIWOGkQmQChsAgAlY4g5gYxRBIRcAKJxUiEzAEBhGwwhnExCiGQCoCVjipEJmAITCIgBXOICZGMQRSEbDCSYXIBAyBQQSscAYxMYohkIqAFU4qRCZgCAwiYIUziIlRDIFUBKxwUiEyAUNgEAErnEFMjGIIpCJghZMKkQkYAoMIPHXq1Knwdd6DbKMYAoaARoBq5v8Bv4WFDKoATo8AAAAASUVORK5CYII=;" vertex="1" parent="1">
          <mxGeometry x="1335.5" y="1180" width="206" height="194" as="geometry" />
        </mxCell>
        <mxCell id="DroHx0XE8zM4UCk5UBcj-229" style="edgeStyle=orthogonalEdgeStyle;rounded=0;orthogonalLoop=1;jettySize=auto;html=1;entryX=0.5;entryY=0;entryDx=0;entryDy=0;endArrow=block;endFill=0;" edge="1" parent="1" source="DroHx0XE8zM4UCk5UBcj-225" target="DroHx0XE8zM4UCk5UBcj-228">
          <mxGeometry relative="1" as="geometry" />
        </mxCell>
        <mxCell id="DroHx0XE8zM4UCk5UBcj-225" value="" style="shape=image;verticalLabelPosition=bottom;labelBackgroundColor=#ffffff;verticalAlign=top;aspect=fixed;imageAspect=0;image=data:image/png,iVBORw0KGgoAAAANSUhEUgAAAIkAAADCCAYAAAB9u+FmAAAOM0lEQVR4Ae1dIXDbWBP+fHOoBj2QmOYyE//AaaGJQ3wwOVJUWubAhBwLLDviwIYdLSqpA8+kJobXGFwy0zO1Qw64VP+spLWfFMlaKbGs3K5nrpLe+3bf7ref33uSlbna69evvb/++gv2MQaSGHj9+jVqALw///wzqd/ajAH88ssv+MF4MAayGDCRZDFk/TaTmAayGbCZJJsj9QgTiXoJZBNgIsnmSD3CRKJeAtkEmEiyOVKPMJGol0A2ASaSbI7UI0wk6iWQTYCJJJsj9QgTiXoJZBNgIsnmSD2iRJHUsd/u4rCRg/PGIbrtfdRzmDweWiDOIoNuJbcigeK/8wNf47C7BUEVI/25Wf343AJOi3d2M8QsrdPaH8XAFkTSwGG3hV0/7AWm4zG+LcIc6vtot/fC5WWB6fS7ODmaSVqYYHhDUqElo40X0wnQejhWFEtDBPid+zHG33hIaZzAfDKEPyx52m+jvccLpJNfZm5BDEtTzDEZ3qyEH7GPjskRb+pYukh2W3uYjocYLkJC24dY+GTUsd/aA6ZjDH3VBEXCYlo4d3csXxg/N/DtZobZfI5WaxcNzIIi1BvYqS9wPyG1BgV2bf3CL+Ns4LAFTIZD+GhfFPuoz75hUd9Ha+87JsPxqrh+9Fm5hQL5PsFwHMyH/pjdQ8DnpoHDdowb2qvRmIXZkRuWuHENgppPVjPH4tsUc7xAneriF2qO6XJameFmMpdnkoB0xyJh4EU9kMBsjjl2sRtuouuNHdQX95g5jLu2kTgxw814VZzF7B6L+gtnc73yuwwpK7ewf8LTEYDImI1d7CLGjRPDcpwNnZQ+kzzMo061A0gsDzs31DLDfN5Ci1QyW6CxU8d8Os74VoZx8gy4WhcAhGJefMN4DLTbXXRbwGJKyxcZZOSW2L/A9wVzQ6r5nhHfhqgCUAGREBmUIJHwYnOZxjzP/plir72LRr2Onfoc08xdbxhn4xBtd0nx9wpO3CSUIW1saLls43AxxI1fYAcTiyUQQLyfBBKO6c+0gdCcyS7uZWPXpS83u6029sMpo76/h12e5hcLfMcu9ladaLeC7e1Gsl/McL/YxV5rB/X5PLaHAFLjjAXT+Jk32rEOsPhpFsjILYyl5TxEinATLo9LbkiAJT4/KnkmWWA6ucdOu4s9n1PawfP6Tmt9He12G12/c47JeIq9Vpz8p7peYHa/wN4eLTXxaWRNnLMbTHa7aHXpboqWlGBf5UdFD8hcYc8nGPqus3Jb4Nt4ghfdFrq0TtFnMcV4ue+I2wd3TWXNKvbHWUFJ7N8UBuyPs1KIseYoAyUvN9HB5Vfug62HVsu7iIdd1vIEDDwTkcxwEyzuT5CyucjLQOl3N3kDNPz2GTCRbL8GlY/g2Ymk2+3mJjVuE79Oc5iGS2tP80PtRWzW+SuzrzJ7EiJxOByWmbs/Fhdv3dhZscX72Wc8maT2pHHj/uJ+yr6uhEjSSEkilQhKa6e+OOlZvuP4pAIQZp2fJB9u2zrbvOMl4TfdtnWRpBFIibtE0/U6bBJRhOePe05t63y7WB6T8Hzu+oz7SfLN+PgxyZYxSeNxX9nHrYtEmnC8QFl2jKcjfdyCcFuaD8bGfRCebeNH1ybJL+OT+tg2qa8KbVsVCRchLxFphLtku+dx/9SX5iOOpet1vqjf9eViuT3e5l4njcdthCMfUjzbPfVxqyKRJsNkMz5O2joi49g0H9zORx5znW/Gph15bPZFOG5Ls6lie+VFwkVyiXaJ5H63zT1Ps3Mx6wpHfVljuL7oPD6m69/tc9vjPqp0XWmR5C1OGrHriuEWje15XO5joXB/1jFpPPaZ1Jflb9v9WxUJk59GXFI7F84lzm1LsoljszBJ/Ult7Ncd3z3nfj6m9aX5JnxaH/ss47hVkRRJME5aVYjkXNLi4zj5yPjncNz6Y3kilYjb1MctGheIjjym2/+UMfAYcf+cL4+fNib1x23TsJtur8RMwsRtihQuCPvnY7w9jWzGpfW77YzlMdw+Pue+NCy1M4ZttnmshEiIgLykMMFp5Ln9ab65PasojHvMWEm2aX7T2pN8lNFm77iWwfIzHsPecX3GxSsz9K1vXMtM1sYqxoCJpBhvqqxMJKrKXSxZE0kx3lRZmUhUlbtYsiaSYrypsjKRqCp3sWRNJMV4U2VlIlFV7mLJmkiK8abKykSiqtzFkjWRFONNlVXt5cuX3r///qsqaUtWzsDLly/xw/7+vtzCkOoYIH3475N4nqcueUtYxkCtVvvv/F8qZCkbqggDtnEtwpoyGxOJsoIXSddEUoQ1ZTYmEmUFL5KuiaQIa8psTCTKCl4k3QIiucPl0REu74oMxzbko4bTa77exrGkGK5PUTu6xKPo2gY9zpg5RBKQWjv6DLwC8PkUtdpjxeJEIjy9Pq09e9KFqVYGluPPPA9w9sXD2d0ljpojjHoX8LwPpSdy/MGDPR8ul/b8M8k74G2vg37r05qZhJeka5zWaqBHu2tnHZqShbOSP5Ms1yleMpLHiWKJ2AB/FFkrk239MtAXYhl/dHm8uzwK84rlFrE5wuXf8YKGM/LS7ykiq27EPjpm3FOZ116+z63X73S8/u06K8LQF36Fu+13PKDnDXyzoL9HF4NeBLfOK/UNevDgG9LVw3Ei/b5vHpPgfa+zjOmhbTTGgdfr9D1O0+/ja9+P43cZdOCzsyRn4PUAD2zH8S7jp5BcXgJ8xH5puxyk1BNQ/PTP038cESydEwEsmrC/7xZtCVx7EhFBSLrDeSC6JbEB6dwfKXSSrefGGAvDFYZ/Do/9LpEuhhtJqBxPUr87ZlzU7GOLR9JHjuXmKSa3ESa3Kz9X5+cYrS43cHaMNz3g6hNN6Hf4/HGE3sUZDtaOtIoxsqQ0nVgPzvDlto+vJ8FSuly+bifr80nsb6LVWY2JTgvNtfGV31mySDpoOQz0Bh5u+8D5u83dIh7/1kfn6hOu7z7j46iHN8dZJIcxXp+ief4KA8+jqRbebR8d15SE4vcN8Oq8GdzON1tRjIun88T+W0xGDi+jCZzvUdzDVq43KpKrk9Ut8t3le1x13uLX2Nf44OwP9HGO5nIz+sQ8HPyKt50rvH/3EaPeG8Q1IomRIrr+3ZlJIiHSTBA2HPwPr3CF97wxpk3oydUKHcZy4uQa4eX4DXquPa5xWpFnLBtY8XhPEuwJgs2Pu9Hjfh46wK02bNz+8JhvTxLYB5vD+B6CYuh4/QHti/zNmbOxDuz8scK+Tr/v9Xjj7e8d2MbdSPPmmPt63oD2Ibwn8d26nLib2jDXcL8TcMZ7uLBvCweKY0NvptFtXhOTCw8f4l/d1ffKzp4BA/Zm2jMoUhVC3OieJH+C7oMtfgi3Oi7vIvI7NotHMLCh5eYREZlppRiw5aZS5ahuMBVbbqpLlObITCSaqy/M3UQiJEoz7AlFcgcc1RD93btC1J7WsOVX4SpERr5QnlAk+QaOoKmAR5eRJruoDgM53kzbYNAf7F2zDbL7aNc5ZhJaTo6Au2ugVgv/o+uUGK5PgdqaftcsshTwspUyTgRLTkK886PaKr4KL39u/hU/zyESymQENN8Dtx69qgT06efv04cpkkBOvgK3X5Dx8sZDW245ccbpjYDfw5f8ghdEGAXcfQZGHQQ/L18DzXOgfxvE5w2A97aMrcgqdpZTJAAGTuHPLgB8jc4mf18+XiCUizsOCeNr+LLo8RsAV6sN8uePQOdtIMbrTwB6wBm/j3AMfDkrxoxZLRnIL5KlKZ+MEHlL5vycOzZ0PPZ1gPBtM3wcAReOEDqtDY2r1+0TiKSDyPt2g3AZerfBaf63Pr2TGC41PUTeJBpN9FZzQ5nnF8mJsxm9fL+a6t0Az/4AcL655xIHvwKdK+DdR6BHy0/44aWIN7H00MZurZmdwsf8t8CDC6BJPx7Th/5gwJnqw1Z/g/BlANROgNats0dYAh55cgC87QDntNS4bzUdw39pttn0NQp645Q2z/Z5FAM5XhWgW80mcOFFp/dHDW/GVWfAXhWoeoUqEl/+PUnuwN2HYvwQzjku9w+5HZtBSQzkWG5KisiGqRQDttxUqhzVDaaE5aa6yVtkMgZMJDKeVKNMJKrLL0veRCLjSTXKRKK6/LLkTSQynlSjTCSqyy9L3kQi40k1ykSiuvyy5E0kMp5Uo0wkqssvS95EIuNJNcpEorr8suRNJDKeVKNMJKrLL0veRCLjSTXKRKK6/LLkTSQynlSjTCSqyy9L3kQi40k1ykSiuvyy5E0kMp5Uo0wkqssvS95EIuNJNcpEorr8suRNJDKeVKNMJKrLL0veRCLjSTXKRKK6/LLkTSQynlSjTCSqyy9L3kQi40k1ykSiuvyy5E0kMp5Uo0wkqssvS95EIuNJNcpEorr8suRNJDKeVKNMJKrLL0veRCLjSTXKRKK6/LLkTSQynlSjTCSqyy9L3kQi40k1ykSiuvyy5E0kMp5Uo0wkqssvS95EIuNJNcpEorr8suRNJDKeVKNMJKrLL0veRCLjSTXKRKK6/LLkTSQynlSjTCSqyy9L3kQi40k1ykSiuvyy5E0kMp5Uo0wkqssvS95EIuNJNcpEorr8suRNJDKeVKNMJKrLL0veRCLjSTXKRKK6/LLkTSQynlSjTCSqyy9L3kQi40k1ykSiuvyy5E0kMp5Uo0wkqssvS95EIuNJNcpEorr8suRNJDKeVKNMJKrLL0veRCLjSTXKRKK6/LLkTSQynlSjTCSqyy9L3kQi40k1ykSiuvyy5E0kMp5Uo0wkqssvS95EIuNJNcpEorr8suRNJDKeVKNMJKrLL0veRCLjSTXKRKK6/LLkTSQynlSjfvzpp59Qq9VUk2DJpzNA+vg/LfqWnFN61IIAAAAASUVORK5CYII=;" vertex="1" parent="1">
          <mxGeometry x="1370" y="1456" width="137" height="194" as="geometry" />
        </mxCell>
        <mxCell id="DroHx0XE8zM4UCk5UBcj-228" value="" style="shape=image;verticalLabelPosition=bottom;labelBackgroundColor=#ffffff;verticalAlign=top;aspect=fixed;imageAspect=0;image=data:image/png,iVBORw0KGgoAAAANSUhEUgAAAIkAAADCCAYAAAB9u+FmAAAKhElEQVR4Ae2dLXAbyRaFz2wt8gAHWKZ6qoqI/AxFbKJAJ2RRaJgNbfKYYdgjNkzYo0EhsWFEbCKYWGDtqjxRySRAptpqSW212jOaOxqPNON7VLWl6e7TP/fcb7tbilIJdnd3Rz9+/ABfdCDKgd3dXQQARt+/f49qZx0dwJs3b/AHfaADSQ4QkiSH2M6dhAwkO8CdJNkj9QpCoh6BZAMISbJH6hWERD0CyQYQkmSP1CsIiXoEkg0gJMkeqVcQEvUIJBtASJI9Uq8gJOoRSDaAkCR7pF5RIkhC1Jot7GynyNn2DlrNGsIUXfKUbu+00EoVQJ6rkY9dIkjkQS2jHCewQEAtE0Neff7Ma+Cyjdu/aaNftkWvaL0lhGQbO60GKmODhuh1Ovg1nLoV1tBsVqfHyxC93oPYRrOTNNBF+8agYo62JjZ6XaDxdK55rZliot+676BjFjO3DmDQbWM8rHg1xRKW7ripNKp46LTRbrfR6QHV5g4m15QQtUYV6HXGbe12DxvVCUrLWu7O1R2EqP5rMlN/MAAqlem8hpFtbIVD3PcNrdvYabrr6ALV4tyLlvGidJAMurOdY/irhwE2EJqb6ThRA/Qet5U+brqDZTx57OPONQZjI5zsUv0BBqigMr1Eh9tbCIf3mDBSQQXeOjq/YDe7x8FL9FA6SJ56G2JjDMnGCj/F9DHZTAwlIba3Qgx6DgjDh1JD4Xv8AiAZ4sH8b7rixPT/38PQHDnTHWzg3nrDVQLrp/T5y6WDpNJoojb94iOsVVGx2/xwiAdUUJ01otnIdidZaPewj/thBdXGFsLBYPbJaHoUPa5jfEcp952kZJ9uhuh177HVbKE6zuAA3bbd5vu46YRoNptojRsH6HZ6qDYWpjpD4xD9+yGqVXPUuNuIv47JJzCz2RXlS720QfMvZ6V1TJmefzlLWcKXDbdkx82yYbpfwD0dY9ibfgn2tIk1AJRA0sdN2703MPdpHCjdp5s0wVH7PA4Qkufx8UWPUjpIWq1W6oT4ffxy0oC+3i8n9Tfty/SRjLsKTWEgWZeJZt485k4ac1H7orZVQOHPUYiLqzHF/Kmu/4ozK67e9PfHSRrb10etwdeYcty4tv8iTZa+dvxVvq8dkkWG+clZpI0yzejty302dVnHtuP67/48bjnu2V+LXZ/RR7X5c+ZdXjsk0gDTGmb1NjGu2bYuaW47RpTOjBfV7s5j+lmN/x41ZlHr1gqJNS6tOaZf1MtNkPvsa22C/Xq3LFmbHSdurqgxkvq4a0ijdfs99/NaIZEG40PhJyUqGXZsX5tUb9rteP68tq99N2PHJdKOYbXue1wfV1Ok58JDYs2OS5htjzM1rp+r90GyZfseNYc7rtWZMW29W2fqo8pR47rrKspzoSF5LhP9BLnm26S6dVme4+aKiiVOm2X+PPquFRJjUpR5NtAoE6OS6tZF9bHjmfdF87m6ZZ/dtfhjxLXFrTnvtfrriyuvFZK4RS2q9w3N28i04/vrM7HYMez7oviK2Lb2b1yNqca8vF5u0mySzLud023312D1fn2asjtGmljdfmnmy0NbiJ3EmrcoYVmC94Gw8/j17hxZkxQ3to3VzGXX4c5rnrPO7Y+XtVwISEwQcYbFBWiTIGmPG9vW+0nxy+4cdl7b120zz0ntRmP7xmltuz/2usr8jeu6nC/JvPyNa0kSte5lrv3ium4DOH+yA4Qk2SP1CkKiHoFkAwhJskfqFYREPQLJBhCSZI/UKwiJegSSDSAkyR6pVxAS9QgkG0BIkj1SryAk6hFINoCQJHukXhFsbm6Ofv/+rd4IGhDtwObmJv6o1WrRraylAwAMH+Pfk4xGIxpCByIdCIKA/wx9pDOsnHOAF9c5O1iIcoCQRLnCujkHCMmcHSxEOUBIolxh3ZwDhGTODhaiHCAkUa6wbs6BJSC5w/n+Ps7v5sZJWbgD9gPgMmW3VcmPAuCoqItblQmzeVJAYuAIEOx/A/4N4NsRgiArLLOFiJ9MAvfPxXIKszuQ4q95vsbx1QjHd+fYr1/j+vAUo9Gn7CtIO8Infjuc1rKs+vQ7yQfg/eEezhpfF+wk5jjZB+4ugSCY/mfKMcu9PAKCBe1ut7mjwB5bMfPMac0gU709K+/OnfUV+Phz41/DcwpIJjvJ6Ood8BPAu08Yja5w/Dpu1ddA/SNwOwLMnw2dAagfPRUbQN7+BG6vgNixnnabq3nrzHN4Dfx3ep/46xD4/HUmvfsGXO8B78xEl0D9BDi7naxvdAF85DE2M2v2lAIS28nAsggOqwNw4ST++BRjutzd5O/z7ICY6dx5DBg//54s4uAvAJ9nF+RvX4C99xMYLw08h5hRfgBcHTuL56N1YAlIbNdl3q+BW6ffyYlTyOPxYMwBvpqd5Q74cg2cOiDs5fZvr+URzNrGXDEke0DdifViegx9yHGb/8/Z5MgZHzWHwIEz/3XXKfAxzoF8IXnrXEbPP862enc1x/8DcJLf9xKv3wF7n4EPX4BDc/xMX/YospdYc0fhR2vrztx7io/Ac/1khYtToG5+12Reh8DI2eqnteMLwtUFELwFGrfOHeFRkPHhNfB+DzgxR427jRwAt2dAvT5mFNibXJ4zzvYSu+f0yzTzUbMOnI7mt/eX6OALj4m/THvhCX6u8PK9k6RepfulmP0Sznl/vD+kHpgdMjiQ03GTYUXsWigHeNwUKh3FXUzBjpviGqV5ZYREc/aFsRMSoVGaZYREc/aFsRMSoVGaZYREc/aFsRMSoVGaZYREc/aFsRMSoVGaZYREc/aFsRMSoVGaZYREc/aFsRMSoVGaZYREc/aFsRMSoVGaZYREc/aFsRMSoVGaZYREc/aFsRMSoVGaZYREc/aFsRMSoVGaZYREc/aFsRMSoVGaZYREc/aFsRMSoVGaZYREc/aFsRMSoVGaZYREc/aFsRMSoVGaZYREc/aFsRMSoVGaZYREc/aFsRMSoVGaZYREc/aFsRMSoVGaZYREc/aFsRMSoVGaZYREc/aFsRMSoVGaZYREc/aFsRMSoVGaZYREc/aFsRMSoVGaZYREc/aFsRMSoVGaZYREc/aFsRMSoVGaZYREc/aFsRMSoVGaZYREc/aFsRMSoVGaZYREc/aFsRMSoVGaZYREc/aFsRMSoVGaZYREc/aFsRMSoVGaZYREc/aFsRMSoVGaZYREc/aFsRMSoVGaZYREc/aFsRMSoVGaZYREc/aFsRMSoVGaZYREc/aFsRMSoVGaZYREc/aFsRMSoVGaZYREc/aFsRMSoVGaZYREc/aFsRMSoVGaZYREc/aFsRMSoVGaZYREc/aFsRMSoVGaZYREc/aFsRMSoVGaZYREc/aFsRMSoVGaZYREc/aFsRMSoVGaZYREc/aFsRMSoVGaZYREc/aFsRMSoVGaZYREc/aFsRMSoVGaZYREc/aFsRMSoVGaZYREc/aFsRMSoVGaZYREc/aFsRMSoVGaZYREc/aFsRMSoVGaZYREc/aFsRMSoVGaZYREc/aFsRMSoVGaZYREc/aFsRMSoVGaZYREc/aFsRMSoVGaZYREc/aFsRMSoVGaZYREc/aFsf/56tUrBEEglFOmzQHDxz9/gM7tgRTfPQAAAABJRU5ErkJggg==;" vertex="1" parent="1">
          <mxGeometry x="1370" y="1710" width="137" height="194" as="geometry" />
        </mxCell>
        <mxCell id="DroHx0XE8zM4UCk5UBcj-244" style="rounded=0;orthogonalLoop=1;jettySize=auto;html=1;entryX=0.5;entryY=0;entryDx=0;entryDy=0;endArrow=block;endFill=0;" edge="1" parent="1" source="DroHx0XE8zM4UCk5UBcj-232" target="DroHx0XE8zM4UCk5UBcj-235">
          <mxGeometry relative="1" as="geometry" />
        </mxCell>
        <mxCell id="DroHx0XE8zM4UCk5UBcj-232" value="" style="shape=image;verticalLabelPosition=bottom;labelBackgroundColor=#ffffff;verticalAlign=top;aspect=fixed;imageAspect=0;image=data:image/png,iVBORw0KGgoAAAANSUhEUgAAAP4AAAEdCAYAAAAsMdrJAAAgAElEQVR4Ae19D5AV1Z3uN1uGiBPUAQYMsRhgZ8AdoMwLoNTwHmCMJgwmy0admFQI2dK9vIomM1tPXj2pWVNarFY9rMoQ0VqmYiJxa2MmJuGtMmOMBph9zKqAK89hIswsMKxBYIBJZMcxmqr76nT36T59bnff0/f/3Pvdqqk+f37/ztf9dZ8+3f2bqsWLFyffeust8EcEiEBlILB48WJUAUju2bOnMkbMURIBIoCbbroJf0YciAARqDwESPzK2+ccMRHgFZ/HABGoRAR4xa/Evc4xVzwCJH7FHwIEoBIRIPErca9zzBWPAIlf8YcAAahEBEj8StzrHHPFI0DiV/whQAAqEQESvxL3Osdc8QiQ+BV/CBCASkSAxK/Evc4xVzwCJH7FHwIEoBIRIPErca9zzBWPAIlf8YcAAahEBC6rxEGX3Jir52LZsjpUK4GNDOzFkXOioRpzly3DFcOyrgiFFm2dOtUgAM+mZ1eXGRsexvt1dagNtD2Cgb1HYIUFYMbC1Wis1e3ailYfBrDXGkQmYwgMgI05QoDEzxGQGZuZsRCrG2stUh6QjMIMLFy9EDPOeSTLxP7Y8AEcODFmq1p+VmNZtdKWcjJwvJw4YResE9J0nD9wANKMF8cM1NaOYWQEqK2dAZxzg/dEWCpZBDjVL+qumYGFDuntq7sM5hyOKFdW2ZrV9twR7B0YQXXdHMzIypCjPKMWtWPncfLkeYzV1ubGZi7iog0jBEh8I5jyJCTIgxGMFOpieW4EI6iFuEBn+5tRW4ux8+cwNnYO58dqUTdXu6/I1gH184oAp/p5hTee8eq5y7DMven230/Hs2QuXdu4Gqsbpbyhz+q5qKsdw/kD9m3EufNjqJs+A9UnTsC5sZAGuS1RBEj8EtoxYycOYK+4vbbuxwsTmH/Bz8xn9YzpqB47jwGH5WPnzmOsbjpmVJ8IWAsws0mpwiJA4hcWb783MfVubLSm3gVZG3NuLQayurWoxozp1UB1NZatrvOPZ0Y1TqSuAvplWCsJBEj8ou6Gczg5XIdljauxEHEe12UQtFihb6yFWOnPivcz5qCuegzD2kq/fZsyBzNOZPckIoORUSUDBEj8DEDLpYo1vT8nnuOr99pIIaj/XjyVeEExVdctg3dRFjp7U6bifru2X/cRYIBRsaiHkYEUO2MnhjFSFz178fsyG0NACGzKAQL8hxo5AJEmiMBEQoD/UGMi7S3GSgRyiACn+jkEs3CmxJt9jSGv1aafrhcuTnoqVQRI/FLdM5FxiTf7slqii7TOzvJHgG/ulf8+5giJQAoCJH4KJGwgAuWPAIlfgvt49erVgVGJdvmnC4Tp6HLp6rodvZ5On/0TAwHe4xdhPwky7d27N61nnXRROqJPtavr6s6ibOmyUfV0fqRumD81ZinLbf4RIPHzj7HPQ7oDXe1XyWJKMOlM1RVtql0po2+DZISdoHapq/uR7eo2KvZ09lU7LOcOARI/d1imtRRFIKEcRZC0xgGjWYSJnbgyuYg7HTZxY6J8NAIkfjQ+BeuVB74kkdyqAehtJldbVT+qLP0HyaS7KqeLQ487yAfbCosAiV8gvKOIJULQyaPXo/RVYql6UTrqsE3khF1dTvWr2gsqS1k1PlUuyL7az3JuESDxc4tnUaxJMklyhQWh9qs6knRheqJdyEg5qSu3up7wE9any7JeHARI/OLgbuRVJapQUOuZECtIR7bJbRBp0/kN0lEHmK5flWW5MAiQ+IXB2diLJKBQUMvGBoogKOLUyS3rcluEsOgyAgESPwKcXHYFkSPMviBL0K+UTwT6+PR60HjUNp4gVDTyX+abe/nHOCMPgjjqXxwjYSeOdDayIV+QriR/Or/sLzwCJH4BMS8EEYIIaDLETPWE7ShdkzFH6ZvETpn4CJD48THLSiMdEUxJIOSCfsJ+3J+pT92u0DPRlWMOitlEX/fLevYIMPVW9hjmxIIkRRRxpYx0GCary0l5dSt1o4gn7UhZVT+oLOVFn6lOkB225RcBkXqLxM8vxrROBEoOAebcK7ldwoCIQGEQ4D1+YXCmFyJQUgiQ+CW1OxgMESgMAiR+YXCmFyJQUgiQ+CW1OxgMESgMAiR+YXCmFyJQUgiQ+CW1OxgMESgMAiR+YXCmFyJQUgiQ+CW1OxgMESgMAiR+YXCmFyJQUgiQ+CW1OxgMESgMAiR+YXCmFyJQUgiQ+CW1OxgMESgMAlVXXXVV8g9/+ENhvNELESACRUfgqquuwp/NnTu36IEwACJABAqHgOC89T1+MpksnFd6IgJEoKgIVFVVgff4Rd0FdE4EioMAiV8c3OmVCBQVARK/qPDTOREoDgIkfnFwp1ciUFQESPyiwk/nRKA4CPBfaBUH96y8ilVZ8SRGboUxtRxlPExOtMuf+pQnTF7KmmwztaHGFOZHjTVMhu2pCJD4qZjkpCXoYDc5kHXn+Tqw9VjC/Ih2dSy6Xrp4VV0hG6Yf5V/3IethtnSfUp5bDwES38MiZ6WwAy/s4NYdh+kLuag+3Y5eV3XVWES76U/VEzqqTd1GUJ+ur+vkoi58BPnOhe1ysZHBPf4Qtq1YgW1DcSAYwqVHq3HxcBydENnD38LvHv0+/hTSnevm8Z3V+N3OXxmbLdQBJ/yIn9zKsqjLPzVoVU5tNylnQlbhT+pl41uOJWgbFbskf5RMJffFIL4gfBWqVuwGFgHYvRFVVXFPAIWH+k8vrYpFXIvoeT6xBB3EJuRQZSSp5AEutvJPoCz7RVno6XU1Bimjt2Wzt1R/mdqR44naZmq70vViTPXr0bo/idahbVjR0Ie+RDuSyR1lh9/kDWP4VIaj0gkWZUYnhtCN+knbQXLCluwPsqH70uthuqovVSdMPsi3KqvaC5JVfQT1x20T9lT/cfXLWT7+FX8D0JJoQkfjLuWKL6byq3Dp7K9w8dvV+J31J+oh0Inp+rcj+lW1s9/H2Uib9m2E7VP4/hbGLX27/ezzB4GDX7ZiOvuSc3/is+m/BYk7tVdDzWdZJ4Ukkdzmw7fwqfsN8iNikH9qvx6btCe3QlaWVT/SVpyt6pfl9AjEIL59xU/uXwv0A1i7A8nkfrTWSycH8d6WR/Cx9jF86vExzPwi8N4WSUIpA0CQ/gdHcGX7PkyZqbQHFodw6YcPAF88bNn81OOb8dHzO32S4zuvx3uzfuH0C79HcNGaqtdjygOivhRYavfPvFUE+ytc/CEw7XEZ51KMdxduzcAXfJYVlSxxTamkErp6PY69MPJmGp9qT9rQ2/R6nHgpi0w+0hEnAJXwHoyT7/HIfNmtmzEZR/An9aovrrTGpAdwthvvn96AKy3CCj+fx9R7NngOz34f7x1ciiu/8Hm3zfJ7+ucYV/26vY6NB74DeY9z2fW347LTb+Mjn8zErQgCS7Loo1DbdeKodV0vk7rqKxN9qRM1HinDbXwE5PEfX9NI4yA+OgPAubKPP/8AgKVGmpbQmbcNVu/FTKMa7/msLsXHfHV/RSz4WbcAbrNyMnHb4hfEwW56oAq5YvzC/OaKqLkck4xVboNsR8Ut9KL6g+xVSlueib8UH7vGg3LyPWO48uwqnP3h9zFZuep6ElrpmutwGd7WGvXqBkx9/ElM1pvD6oe/hbPPL8TUx/fZOmIWsiWdjzBjmbfn+oAU9kwPdN13FLHUEZraV3WyKetx6rZM49b1WM9oqh8O2/gPvAW7P730CMZn3Y7J2n38Zbc+hSvxAM6aPBufuQAfw068py7K/UC5x5/ZjCtmKf1hoZ0+GjpzGH/xgdC+MHNR7ZKA6WSi+k371ANfklJtM7VjIiftm8iWgsxEi7fQmMVY3Esf2uR7NuOjLfaqvnVVDbyqi0W3X2DywS/DXWUPNf15TG1/FHj+evtJwZa3cWX7o+79OSBsHcYVh5x+ufqvPIe37+EfsJ4MWP6ufxJTl+50nz6898lHzWcLoXH6O0zI79fIrCb8SF9iK36yHmTRlAxBJw9pP8huqbWZjrPU4i5kPOJGM5n9ThWPzq7HR81jmHp9IcMvL18q4cL2iX5Q63WJiNou7YbZFDpSRuoHyeoyUlbd6npqHFJOtaPLS5mordTPRDfKbqX0CfzyfI9fKVDmZpwmB7Iuo9dlJGq7Wpb9+jZXMiZ2TXzpdtR6tvqqrUotF5n44oWfLzsv3KTugsu+eBj2s/fUPrYQASKQOQI5mupnHgA1iQARKCwCYqqf08W9woZPb0SACGSKAImfKXLUIwITGIGyJr5c/dX3j2iXf0F9elucepTPOHYoSwTyiUCRF/eyG5ogmckKr07GKB3Rp9rVdfWIo2ypsrpdtS+oHOY3zJ8ac5A9thEBFYEJS/x0B7rar5IljFAqKGpZ1RXtql1VTu+Tcro/tS5tq23SpuyTdWlfratlIS99qu0sE4EgBCYk8dMd4EFEChp8WFsQ6cJkTdqD7Kkxyn59XHo9nS+SPx1C7JcITEjiy+CDtpIsklhyq8rqbZJ4qkzcsrQpt7mwGTcGyhMBUwQmHPEFsaJIpffp9Sh9SVoBnqoXpSOB1uVlu9iqdtV2tWziQ5UPK4s4cmUrzAfbJz4CGa7q24k3N/b0YKO7Qq4n3nSSc7r9G9Hj4NWzsQpVG2VNNNqyK+Kl7s05+oI0KoHDHAhiyT9dJoh00q6+DdLV7cq62IqfrOu6rBOBOAhkSHzbRWfzFjQO2mTpTvShbasksyByA9oWdVtEEgf8YEc/mqts8q9ZlwA6d7knAgztRldfE1rWunm84owhrawki04eWU9rQBNQCax2CXuiT/+p/tWylJNxSLuyXdb1reznlghkikBWxE90eym4LDL3H4OVztIicgLdO9a4cdW3tiOBfhwTAmvWIYFO7HLOE0O7u9DX1IJc8l4loE4cte4GmGVBkjeI2DIWfStdynZZ55YI5BuBrIgfGtzgAPpSOhvQ2NSHgUHRsQb2RV8wfwi7u/qQaG+FyfVekESSLMWF1qCSUC1rYjmpirj0P9M4gwJQ41XLQbJqm5DliURFhOUgBPJD/IZGNKV4G8RAXxMaG+yONZs60CSm+87sYJ03OUjRzKZBJ2McW9kQV/iRBJR29G1ULHrcsh6lwz4iYIpAfohfvxYtTZ1oVhbwhrZtQac6nXdktmzoQl9iHeLwXpBAksh0oHHlhH1J3Ex01fikHX2r2xU6qp7en66eTczpbLO/vBDID/EhUnB3I9HZ7K5CN3S1YHC/Op2vx9qWJvT19SGRweU+HflNSRBGNElS090t7Mg/oRtXX/jJVE/omo7XdDyUK28Eyu57fEnkKOJJGblrw2R1OSmvbsN0pUwQIaXddLrShtxmqif1uSUCAgFxHJUd8blriQARiEZAED9PU/1ox+wlAkSguAiQ+MXFn96JQFEQIPGLAjudEoHiIkDiFxd/eicCRUGAxC8K7HRKBIqLAIlfXPzpnQgUBQESvyiw0ykRKC4CMYgvv8EPCXhoG1Yob6+JZ4WB39frciu22V/0KWat7/WrqqC88ev0xozBtW3rWS8uuDF6+QFkPgB/v4w/SDc1Ni/HgJqjwHubz7at+gTSjVPopGIAoWi/hOGOT8KTbh+E4CfsKbZkXPr+G9q2wsmjYD5GZbeyWEIIxCB+RNTiwGlow6Ju5Qu1wQ6grcFPfkuuCy3ON/zizbXBli5s8CXg6MGuziYkEk3olN/tRrh2uwxsN3UMuq/Fdif83xIIOwk1/mQS+1u97wVV3WR3Ap3N8sTgRuAU1mCH/FJvsANNaEKHO94dyjcJ6cfZ1NSEzi0BJ8ZdnUgkEn7HpvvArxVaE7772rZ6ORN8kqZj9CmxUkII5ID4Q9i2pROCGMrn90B9K/Z3J5SDpwcbmzuhfsMvcKhv3e8jGHp2WR/zbNrUYn+9ZwSWoW3Fli9/gNJuVFyzA4L84cQwsGIwzkXt7Uj0dWG3leTAsTm0DVs6E1i3TvVhug9UnTTllnZ0aB9apdFg9wRCIHviR2XPsRJuOMk3ho6hHwmk+x6nZ1cnmlrWol5+veebDYQga2jb07aJgkXzjXIAeHpKSUsmovQYFc3GKfIW9KFLYb6VtET/mtF0HxhFJoUa0LpTfDq9BSa7QGpxOzEQyJ741jgXYb43K9ZG7iTfCEzOoYlaVzOZgsv5eq9rd8oagKYFmNgG0NfW4HxB14CulkEkfVMUWNN37z7ffz+e4jObhhjjFDMTb2bRg61tQMemoI+YDfZB3JjrW9EuUqptSL3diGuK8qWFQI6I71zVA8fmJd8I7FYa9RRc9Wtb0KRPdRX5uEX3Pj1kmu6/x1fvx+N6ipaPNU51ZuHcHgSnKMvNPtAjX7OjG4m+Nm0dRpdifaIhkD3x6+djEWRKLW344kCFcyVSD2BNzK7aKbjQ14YGufLe0IY++Ke6gappbWtaazZZ969bspnDWmNLf+uieXZTjZmPcw02ddgLne7tgW7UdB84ev1W4kPPyNCxfq+SUlqDHc6JcndKHxsmKgLZEx/OgdmspdcWj+2axaLfJmclO1hOPCKyHhv1bEVbn7oCbj8hGOyIWl2WsKexLcXcbT1a29UptNthVkgZm5maJZXBOK2ZT2czmjsTaFeeNHheg8ePlDid2yffar24fUiT89A5Uba1pWZS9GJgaaIhkDT7DSY7miByRyt/TcmOQUe7O6G0CxmlT3Ew2NHkl2vqSAoT3QkkxfO01F93MgEk7a7oGMJsJ5O2XpMbrPCSzi6Stny0TxlvYPyDHckmDYdAOctIajweHE4MXoMALAkHOxmD1Ra2f1yhZFLHyY+LvS/0tqQ1loB9FDBGxRWLJYiA4DATcUy00zTjJQJZIiAWsHMw1c8yCqoTASJQcARI/IJDTodEoPgIkPjF3weMgAgUHAESv+CQ0yERKD4CJH7x9wEjIAIFR4DELzjkdEgEio8AiV/8fcAIiEDBESDxCw45HRKB4iMQg/gh2VvkGPTMOgXNwGOSJSdYxs4yE9Tn/zqPGXZkNiE/LnL3czuxEIhB/IiBmWZ/MciSA6TPTBMWifv1nciAE5Ilx/8FXliWncGIJBSm2WfSj4MZdsL2JNvzjUAOiG+a/cUwS45BZhojULLKkmN/zIL+Y+lzAYQFYzAOZtgJA4/t+UYge+KbZn8xzJLjfnoaJwNPGEpxP9d17difCFuZgNy2eAWzcTDDTjxUKZ0rBLInvhWJQfYXkyw5MTLTZAqASJIZlmVHzdAjPhFuCc54kd51jHEww056OCmRewRyRPzcZH+JlZkmQyz89/j+LDv+NYJFaGvQcgwY+ow1DnVW4tweBJ9vcoOxPgRm2NERqYx69sQ3zf6iHuCB2GaRgSfQnsg/LzIAZZIlB4AVb0hmoTB/VnvccThJNHb1wL090O2bYuzoMcOODiDrOgLZE78kMvDowxIZrvQMQAEyUU3WScM8X6Brihl2XChYKG0EDHOEpMlEU9QMPGlis0YYJBOVZUdm/bHhCcycE5B9JlDOMsEMO4YHGsXyjAAz8JT2CZnREYG8IMAMPHmBlUaJQOkjkIN7/NIfJCMkAkTAjwCJ78eDNSJQEQiQ+BWxmzlIIuBHgMT348EaEagIBEj8itjNHCQR8CNA4vvxYI0IVAQCJH5F7GYOkgj4EYhB/KAsNVXY2KMaDJZhlhsPI/FPQqss0HqwUf5X4JQts9x4iLGUDwRiEN927/+CLQHxmatNbC88/xdwzHLjOze6MJlm8nEVWCACOUMgNvF9npnlxgdHSqWlPSKFV4o0G4hAwRDIjvgizLSf24aNhVluwpBhOxHINwLZEz8gQma5UUCpb0V7og9tG7Zlnr9PMcciEcgFAnkhvv8en1lumOUmF4cqbeQSgeyJzyw31v4YOtYfsV/WYEd3An1tW7E7QopdRKBQCGRHfGa5cfZTD7a29SHR3or6sD23ZpO10NfW1hcmwXYiUDAEYhPfy0RbhaqGLrQM+h/Xicj99/j+x30+/eZOJLr3ozWULcE4iNx0SLSn6NW3tiOBTuwKen5mpesGkFiHNcFmUd+6H8lukWRTycQbMEYhN9jRj2b3+Xsz+jsGsSPMsOWvHq07O9AU4pvNRKCQCFSJNDzJZLKQPumLCBCBIiLADDxFBJ+uiUAxEYg91S9msPRNBIhAbhAg8XODI60QgQmFAIk/oXYXgyUCuUGAxM8NjrRCBCYUAiT+hNpdDJYI5AYBEj83ONIKEZhQCJD4E2p3MVgikBsE4hNfvKbrvrFWhaoV8quzoOw7aiaZoH75Vl9wnz+7D9CzsSp29hpLp0rPFCTA83zqfixoezZCvOjgjc8BXB9/lRyD3CG23RSbwp6LlTOWFF3xvz6ZoUciyW3+EIhHfHHwOq+wirf9xN9gSxc2bBtyI1Qz9HQnOtGsMcD/5Z7/dV9VN9kdnN3HdmSavaYHuzqbkEg0oTPwPV6gqakJnVvkycsdhvUvqxOJhNcgStb427Co2x67hcFgB9DWkJKFyK8YXBO+xYc7QW8YA6ZjDLbNViIQhUAM4vdgY8C79eK99f0hL9uvWZcA+o9l9h16Vtl9nCGLLwebWrBpUwuaOncFEmxRezsSfV3Y7Z27rH+xvaUzgXXrVOiGsG1LJ8TJyfdOfn0r9jtf3gUTWLWhlZmhRwOE1UIhYE78oWPoRwLrIj9EUcO2iYJF88O/WFPFg8oZZ/exjYmPeZpa1qLe+kCnE1uUmYnnbg3WJfrQpTB/aHcX+vSPeYZ2o6uvCS1rA74osuLsxzH15OE5iCg12B/udG5BYGgRmuwiAtkgYE78wQGYfFDqfX3XgK6WQSR9l0f9yz11DSCbYQToDm3Dlk5J1HqsbWlCX9fuwNmHmJl4U27xiS3QsSnoDLcI8wN4b3vvw8BgQBzpmpihJx1C7M8DAubEN3Tu3qeHTH/99/j+7DyGLozErKt2UwvkBbp+bQua9Cm9tKTOLJzbA6knRext1FW9CY0NfmnTGjP0mCJFuVwhYE58lRwm3p3EE8HTaxMDYjFtFzpj3V5Iu3YiT/S1oUE+gWhoQx/8U3opLRbSNnXYC4Du7YHXaZfq52MRQq7qVpz+2UC/Nu9nhh4dUNaLiYA58SU5mlf47kfF4yc9r77DFLS2q1PomMPMJrtPz1a09TWhY1BZfRdPIDrCV9GtGUFnM5o7E2gPXKx0Tg7a+JESp3Nb4VutZ4aemHuf4nlGIAbxYWWosZ9eeRlqGrpasDOQKMGpt42z8wRkvjHFghl6TJGiXKUiwAw8lbrnOe6KRYAZeCp213PglY5ArKl+pYPF8ROBckGAxC+XPclxEIEYCJD4McCiKBEoFwRI/HLZkxwHEYiBAIkfAyyKEoFyQYDEL5c9yXEQgRgIkPgxwKIoESgXBGIQ38tYY2Wmcd6Bt17XtbLVaF/aWZlqvNd7ZSYcT1eVD8lao6As9bW8HpaE7NNfHfay2SiGrHwa9puHfls92Cjf60/Z2rFafvxK1rf7voxEAVl14sbnj5Y1IpB7BGIQ33bu/7rOyaDjfJDjZdsZwrYN4tvWnb5/bOl+uWe9Ny/+6aRK/qjBmWXS8T6tzcRWBhlvYmTkic62ExUv+4hA7hGITfzgEJz/BNvZDHFBHNq2AW19YR+72BYi/7Ot7sQgkw5Ms9mY2NL9B9ZjZuQxjS/QFxuJQG4RyBHxIb7gwU7xaeuWFdgg/ld8d5pv7a2MPmbfsLufykZm0jHLZmNmywDk2Bl5zOIz8EwRIpA1ArGJ7/+6zj9Vt67ifX3oa+pAYAIbJdyerW3oUxJlKF3+YoxMOuLk057oQ9uG1OSZltE4tvxRhNT83+D7hQK+3U8Xn98Aa0QgbwjEJr7/Ht9/Ve/Z2IzORAKJvjZsDcg86aXlqkJzfwcG97emzccXK5OO+BJ4R7flX838K9GLa0vqhW/jZ+SJii/cD3uIQG4RuCxn5pyracfgDrSuA6qaN2Jd0n9iEIt7YRl5g+OQmXT60FDV5hfZPYTWwDwAa7CjO4Gq5q3Y3aGqZGJL1dfKakYePQ+fk5GnW2+3TITFp9lnlQjkEYHYV/zgWLRV/JRV/mCttK0ZZNKxbDr+29qU9KCZ2goN0jQjT4CBoPgCxNhEBPKFQGzi++/x7f8ik7qK71/lNw3eb3sFVmzpBBLtvkeCwlb6JwKOf8VxRll5FP2govifAsnuRWhr8DISyX84Ej2zSY0vyD7biEC+EGAGnnwhS7tEoEQRYAaeEt0xDIsI5BuB2FP9fAdE+0SACOQfARI//xjTAxEoOQRI/JLbJQyICOQfARI//xjTAxEoOQRI/JLbJQyICOQfARI//xjTAxEoOQRI/JLbJQyICOQfgVjv6o/+dhDHR9SgpmDeymtQ4zSJ/ner69A4e5Ldcv4MDg38EbOW1uGTV6h6/vIHp4Zx5OTHfbZsiQ/x7qFhjNc1YN50R+f9ixg4eAHjionJcxSfCNARsiKW4UlYuGQqLpe6uq3qaU6/bWO0VrULWHGOTPHJnB6TxuytHQusuP19fqz8WqwRgcIiEIv4IjSVZBYRes8EEBaAINXAJdQ0NkSSXti8fPZU1Jw8g9Hz16BGElx0nL+I02NTPNJbJxLbZqOUs8g7jAH4SZoWRvek1IBG56QkxnP81CfQODuttisgxueelNzWD62SipV10vxtNZb8xRRXigUiUCwEsprqW4TFJYye18O/hOMHL+DyQFLosqI+BTW1wOjIJV+nVa+tdmYUH+Ld4UvWicdHtCumorFxCsZPXsSoTzuqcgnHrZOSfyZy+eyYJ48oF1pfTe0U4P2P8IHWzioRKAYCWRHfPpAnYbJvGv9HvHvoDD6YUxdwJQwfokWMkTGFvJcwOgJY7ULt/f/E6Ngk1Ex3biNUU9PFyeGP+OB9tTGibBFwin92ESGefZd90sIVH/NuM7I3SgtEIGMEYk/1VU+jwxcwXj0N8xTij588g3FMwqy/CCCoqqyXLfIq0/3zYxgV99xySqKrjxoAAA4rSURBVG/JfxyXK778Jj7EuCB+aL8i/f6HvjUCpcdXHD85jEMnfU1Atb8+OjCIQ26T/z5e1RfT/iVy7cOVZ4EIFAeB2MRXD2a4i2Fe8OIAn4d3ceTgGVyuLPx5EmGlKZg15yKOiOn+9CnWtH9ybZ12hXSu6oHk1mceYX7M29V7dKFlL+759YPv8W0ZV99aT7iI0dneQqjfCmtEoLAIxCa+ezBHxHn57E9i1sgwjsdczLp8+hRMPnkR79YB4yOTUFOnzBqsaXLIVV3MDvBx1CgnhA/eFwtsnv4H7//Rq+uzi4ix5KRr+lTMqh7Gu6emooZX/ZxASiPZIZDdPX6o70n45JJrUDNyBgOn7BXuUFG144pPoKb6Q4z+9iJGq6f4iCwWAGfNmYTRgWG8q97LO08PJs+Z6iwCTkJN7SRtse8STp/8EDV18lFesC1xRY8Vrxp7ZHkSPlkXdwEy0iA7iUBWCMS+4pt7m4J5Sz/CwMFhHL8i6JFXkCWbtBZJGyVJPTmx6r7kijM4dHAQp93mSZi11P/IUMgtxDCO9A66UtZMRVkvcGVUW9ati5glmJ+s/Pf48nGn69YrFHqW4XlmiQikIMAMPCmQsIEIlDcCzMBT3vuXoyMCoQjkcaqv+ryE471nlGf0ap+cHnsLcf5e1ogAEcg1Apzq5xpR2iMCJY4Ap/olvoMYHhHIFwJ5epyXr3BplwgQgVwgQOLnAkXaIAITDAESf4LtMIZLBHKBAImfCxRpgwhMMARiPc47/tANeFH999fJtfjCa9/FPGfQov/AvOfwlfVOJoveh/DkpiHc+LNnsMQwuYX0Uf+/X8etKwPQPPVj/PTO7bggnkeI3/z78NUff8PNAoSofhHP/9ztKAKej1M49I07cOEezaeQ/8Fcx74t89oxVx3Qxi96Rp9Zj58c/xt867tBwSu6LBKBIiIQi/gizmn3esS2DvIbH/KR3x2LIOCm3ajf+rox6YFeDHUvQH0zMLSnF7eu1Mjjnkhex1ecE4mI4aVnVtsnm6j+VXvdeOwTSi9e+saPMbpSOWm4wYcXvPHbJ4IXH7qJJA+Hiz0likBWU/2a9X+DeuzGUK8+ul68dOd21GzVrqC6mF7v3YOhBbdg2V/fgmnde3Dc19+Ll6wTiX/2ULP+GWeGka5fGFuAaXOk0ZW4VZ0pyGbj7WzMu2UB8O8nQ19MMjZFQSJQYASyIj5OiYNeJZOI/iQOfeN+jN73XPBUPWKAx/fsxrRbVqNm9mrUL9iNA8+c8qQtX2tRr00CXIF0/ZbNo3jtzvU4pJh19WMXTuH4r4/a8cbWpQIRKC4CWRH/+I+248KCWzBPuX+/8MT9eO3oAtSvUhpNxnjqxzggpvmWnn01vfDrvd7V9OQJXIiyk64fs7Hkx6/jC81H8VrLDXjyxsxOABeeuANPLr8BTy6/I7NxRo2BfUSgQAjEJr534N+AF/9dW1hz1gC+eh/w2p0PaVP16BGN7vu17yRSs+oWTDv6axzPydXZ8z3vu6/jW6++DjvG+OQX9/hC3/rbWp/DGYQXI0tEIN8IxCa+78APuUeuWf/3uHHBbrz4UMrNf8h47Gkzjm3HT6yr6Q14skWs3B/F0D6H+StvCllPcEym69c82zEexQUlp97osP8sMzo8pGlpVcun34YmwSoRKEkEYhPfbBRiWv0Y6rvvx0/V+/Qw5d4fWdPmG7ucK6lzRf3qvQtwYfuPnJnDSiy7bwGGNvmv0mJV3/YR3e/JOUE4Pu3FPufWwvUlZHpxYPtR1N8TseovFiO1NY7R40fDRsl2IlAyCMR+nGce+Urc+rP78NM778BLddGr+2JRD82PpTz2s54abL8fQ73fxbyVgFjB/yrW4yctN+A1GYj1HN9eT4jqr8Hfo/4bd+DJJxzF5ALf+wWu7vIbpGVMu+85fEVbTLRudaQNwHlc2YuXbrwfQ9a3juLdBk3JtcgCESgNBPhZbmnsB0ZBBAqGAD/LLRjUdEQESguBPE711YEqU2G12Sl7b8MFdLKJCBCBnCPAqX7OIaVBIlDaCHCqX9r7h9ERgbwhkKfHeXmLl4aJABHIAQIkfg5ApAkiMNEQIPEn2h5jvEQgBwiQ+DkAMcXE0T34zA/exHBKBxuIQGkgUKDHeamDPfMvr+Ig5uO2/zYVwDgGnz+Mo7/3y81atRyfifmRn99Cfmq9/+cptI0swS/v+TTq8uOCVolAXhEoGvGDRnXlp6/HysWT7a5Tg3hh36v4T7UtSKkIbSv/8m68UQS/dEkEcoVAPOL/4R30/vM7eM/xrl6RL711GPveHHd6JmPBl65Hw1VAWHvaAcxuwG2rgBf2vYMzixtwTVqFNAIX3sTXdhzC247YbbffjYcX2JXh/b/AX+0bdXpq8J2NX8Y3pwFh7dYVHzfjjb900vn4bNfgO6tq0gTDbiJQXARiEP8i3ugF/sv65ZgCh9CH30HD7Gsx5Q/v4N/evAJL11/vJ2hYu+mYZ0/DLBzD6VMNuCarKf9JPPhL4NHNd1tTc4vQ//Im7l7wadRdeBMP7KtBx+Yvw/dpTVh7Suy/x9O/PASsuh1vrLjaykD04COvADOWpEiygQiUCgIxFvem4jNfvNYivQh+yuxpuPL34xhzR3IBp/2fszs9Ye2uYgEKc/Cwcj9ed908XHduVFl8O46XA7+mDWtXQr5wEi+dm4f/bpFetM/Bw7fLvMOKHItEoIQQiHHF16ftYhTT7KFcdS1Wfgno/edX8QIA9149rD1LAF545lXctn55LCv+abtQdcg57dP4p43A13Y8hc8AuG7V7fgnQeKwdt3r+VH39kHvYp0IlCoC5lf8U4PYZ03nl1uku+1L1+JKdVSC5OtF33x84s3DeENe/cPaVd2w8qkLOI1pmKVN8wXpBfmNf0f34K+s6fzdeGPz3Xhj4xJcpyoLkov2zTejft/P8aC8+oe1q7rTa/y21D6WiUCJImBOfG0AZ/6ft8jn75qMKeJWN+UX1p4iaDeIhcR9F3Dlp6/1rxso4rHIr+j1/l9vkU9pBnA15s3wt9i1sHYx6bka9TiOf9jvPIsUC30/9ycGD7LINiJQTATMp/qzG7B0zqs4+Iyd61YQchacVXzr0ZuSA3fOfNwmrtJh7SEjfu/Nw3jhTdkpngwst54MyBZ1G+uqv+AmdCx8Cm2P2IS8btUS3Cbz94qXbVSiLrwZb4jV/rB2NQirPAcPb1yCr+34OT6zTzTMQ8fGJfiHX6YIsoEIlAwC/Cy3ZHYFAyEChUGAn+UWBmd6IQIlh0DG9/glNxIGRASIgDECJL4xVBQkAuWDAIlfPvuSIyECxgiQ+MZQUZAIlA8CJH757EuOhAgYI0DiG0NFQSJQPgiQ+OWzLzkSImCMAIlvDBUFiUD5IGD+yi6AVx57EHf/Rh38YjzVfSdudppE//dmfxsvtNTaLa/+DHMePofNnfcica2qF1J+pxe3JV5Gv+ye9zns2b4SczGCzvsex7GvP4zH1I/yhP1/nOmTcd7KdSyo8dk2gvsHcH/zs3hO+vVtZ2LRvLPon3MXTt7f6PZYWMBui8YlyC+w6JsKTq5VFohA4RBImv5e3vp3ybU/PeeKH//p9mTdmq7ky06Lr/8/9iXXrvm75P/4V1c8uvCvXcm6NduTO/7DExP2bX/nkjvuDbAldO7dlzxuqdgyanwinrqtRxyD6fodMStufxxJPTZNxjfuZDLpxyUkdm+YLBGBgiIAIJnVVH9uy024A2+hJ+UL2QHcn3gZ1z2oXaFDT2YDuP/ht3DHg/6ZwdyWe73ZQ6hueMfN/3UxcPI8ToSIpOt31Zbfiac+exaPPDtgNb3y7Mvo/+xNobOYcFxciywQgaIikBXx8c55vI2ZmO+bxoup7bN4+5vf9k/Lo4Zp2VmMNeo0PkreqG8Enf/4FjBnOuYGyqfr9yvdfNfnsOg3R/DKO7343m9mYvNd3rTfLwkE45IixQYiUDQEYt3j61FaV755n8PjCvH7n34W/ZiJzf/Luc/XlYLq75z17uuD+mO09T/9OOY8bSuI++iTcr3BsZGuP9TVtSvxt599EHcn3gI+exdeUMas6wTh8tzDDyprCOrag67NOhHIPwKxia8SB+7imxeoINvj6MJNiZ/hz5WFP08ivyV30cxaWNyLV1q8xUfhOV1/VHT2Vf8s/lZZ5JPy6XC5w/i2R1rklgjkD4HYU33rKtr9ME6KP2vFPTW4uS0t2DzvLdz9mH1PnCqhtSxfGLJW4Jd7+9SIr+HEqXO+uq+yfLUVw/e6/DquTLp+V9CsYIKLmSVKEYH8IxCb+GYh1SKx/S7c8ZtncVsY8XyGGnHvN2fiuYefQOc7XseJricc/VrcsnIm+p/ei1fc7gE88fRZ3PF18bgv6FeLxNcXazqqXLp+VZZlIlBeCMSe6psPvxGPdX4OtyUex/2z06/uixX8PXgCNyUexCPSiXUrYa8VuP3ND8pee9oetSBozSSeRc+rd+LmILl0/a6n7Av+e3zlliN707RABGIjwNRbsSGjAhGY2Agw9dbE3n+MnghkjEAep/pqTFGvxHLaqyLFMhEoBAKc6hcCZfogAiWEAKf6JbQzGAoRKCQCeXqcV8gh0BcRIAJxESDx4yJGeSJQBgiQ+GWwEzkEIhAXARI/LmKUJwJlgACJXwY7kUMgAnERIPHjIkZ5IlAGCJD4ZbATOQQiEBcBEj8uYpQnAmWAAIlfBjuRQyACcREg8eMiRnkiUAYIkPhlsBM5BCIQFwESPy5ilCcCZYAAiV8GO5FDIAJxESDx4yJGeSJQBgiQ+GWwEzkEIhAXARI/LmKUJwJlgMBlV199NURGDv6IABGoDAQE5/8/DZWjZrUvPvkAAAAASUVORK5CYII=;" vertex="1" parent="1">
          <mxGeometry x="806" y="760" width="254" height="285" as="geometry" />
        </mxCell>
        <mxCell id="DroHx0XE8zM4UCk5UBcj-241" style="rounded=0;orthogonalLoop=1;jettySize=auto;html=1;endArrow=block;endFill=0;" edge="1" parent="1" source="DroHx0XE8zM4UCk5UBcj-233" target="DroHx0XE8zM4UCk5UBcj-232">
          <mxGeometry relative="1" as="geometry" />
        </mxCell>
        <mxCell id="DroHx0XE8zM4UCk5UBcj-242" style="edgeStyle=orthogonalEdgeStyle;rounded=0;orthogonalLoop=1;jettySize=auto;html=1;entryX=1;entryY=0.75;entryDx=0;entryDy=0;endArrow=block;endFill=0;" edge="1" parent="1" source="DroHx0XE8zM4UCk5UBcj-233" target="DroHx0XE8zM4UCk5UBcj-234">
          <mxGeometry relative="1" as="geometry" />
        </mxCell>
        <mxCell id="DroHx0XE8zM4UCk5UBcj-243" style="edgeStyle=orthogonalEdgeStyle;rounded=0;orthogonalLoop=1;jettySize=auto;html=1;entryX=1.005;entryY=0.65;entryDx=0;entryDy=0;entryPerimeter=0;endArrow=block;endFill=0;" edge="1" parent="1" source="DroHx0XE8zM4UCk5UBcj-233" target="DroHx0XE8zM4UCk5UBcj-237">
          <mxGeometry relative="1" as="geometry" />
        </mxCell>
        <mxCell id="DroHx0XE8zM4UCk5UBcj-233" value="" style="shape=image;verticalLabelPosition=bottom;labelBackgroundColor=#ffffff;verticalAlign=top;aspect=fixed;imageAspect=0;image=data:image/png,iVBORw0KGgoAAAANSUhEUgAAARkAAAEjCAYAAAAG8XXcAAAgAElEQVR4Ae19S2xcx7nm1xcaSebDNm1SkpNAlCnSuKLl8czY2jSDC2UmuAGpjYEJuPUmaC7JjXZaaqdNc8lGNt4SCaCNmrhBJjECqzeSkgiRqUBN0ZKQ2JJIiYkp6uEY6MF/zqk+darrvPrBfn0NEKce/6u+0/Wxqk7335kPPvig8pe//AV8EQEiQASajcAHH3yADIDK73//+2bbpj0iQASIAH7yk5/g34gDESACRKCVCJBkWokubRMBIsCVDN8DRIAItBYBrmRaiy+tE4G+R4Ak0/dvAQJABFqLAEmmtfjSOhHoewRIMn3/FiAARKC1CJBkWosvrROBvkeAJNP3bwECQARaiwBJprX40joR6HsESDJ9/xYgAESgtQiQZFqLL60Tgb5HgCTT928BAkAEWosASaa1+NI6Eeh7BEgyff8WIABEoLUIHGiteVqvC4HBd3HmzDgGNeWt9c/x5WNpGMS7Z85g4L6qa0IhxcF3z+DM+HOsf/4lHBNVOYsti++9+9dw7as9T8uiIz1H3sfZ8ee4du0rKEmYtvbue/2ujdFt3S7gxDm6HZAZ10EA4MYCB4Ng35ZlfNWBstBGBEgybQTf6lom6/QYhFSuVRnhCN4/+z6OPDZJwmqhpnHvq/vYGp/G2BHgcdWmEMMJjA9uYV212Xw7RHEGZxAkhBonZoNjawD3r32Oax7rCIlMv/sY174yhcPrPrnqMi7z6OR35P2zmH7/CB67TKwLs9xmBLhdavMNCLo/gvc9ggnOlcf4smYVEtSMrj3G1hYwJiyjvY6MjUE6XI4ZxLvjY85KIeB77ytcW9/C4PgJBLU1QzVFNY5rqC6AZBXyVUqiqrEb3vBYBjgwGFj9hUuzZz8RIMnsJ9pxvo6MYQxb2FIrizj5FP3OJBwb04jiCFyO8ZwNHsHo4B62H1c3O771x1vYwgAGja2LL2CUBgcx0KJxGJ68qkuQeL7nb9XsgmxtAwLcLrUB9KQu3bMUNbMbPHMQopjWtkxCaHJGEiC059izcIwb76AsFJBoFg8OJFpRDI6fwdlxA4297UDD2PRZnJ1WTUEMdH3ZOn2uL5uUCq9tR4Ak0/ZbEB6AbC8+l/ML53wjXC5Zz2Pcuz+OM97BjGyV9ravGZzhrVasRLMnC4WmvvQzFTHsHvwGXdjPZFyZqr6Dzwkc+aq+M6ugR9aajQC3S81GtBF7zrZkzDmgbcRMmO7e423sjY3j3UHZKhlbo709PIe3WjENONu44CpnwNg7DQ4O+FotHofvyCs9vof7e2MYf1et+mok2NBGBEgybQS/1rWsNvYgW4T3k5+y1poJa9l7jO29QYxOj2NsbxvB4xfl+wwCc1WeLk3LgfA974B4D4+394yD4CM4MT6Irfvq8bXdlrNSCRgPCzRt+x6+up/2cDqtD8rXiwC3S/Ui1yI9Z4v0WD4no59FuJ8P0Y9PgmcVe7h/Lfgkxx6eSxDjQgjr5lbJffrz+d77OHvmLPyjErH9ee1TIpzBmbNnoY5LnK2LFqDzJElkdFvO52Rkz5V8xREcp/85mZrxmWdONQJsaBcC/HG3diFPv0SgDxDgj7v1wU3mEIlAuxHgdqndd6Ap/uUTwdMYC7FVfQoT0s9mItBKBEgyrUR332zLJ4K1A5F980tHRCAeAT5diseIEkSACDSAAEmmAfCoSgSIQDwCJJl4jHpC4uzZs9ZxSLv6MwXCdEy5pPVm20vql3LtRYBnMu3Fv2neZQJ//vnnsfbMiR6lI326XVPXdBZly5SNq+t+42TZ39kIkGQ6+/4kii5uQur9OhHEkYbpXNeVPt2uKRtm29Zu2hVb0hZl3/THeuciQJLp3HuTKLK4iWib1IkMe0I2Akiib9OLi9W0S6IxEenOOkmmO+9boqjVpFZEo666stlmIwddPk3ZtC26Zlsz/aWJjbL7hwBJZv+wbronmbBRk9TsM+tR+joZ6HpROuYAdT3pS6OrbImNevSUPq/tR4Ak0/570JERKILQycYWqN6fREeX1+0pXb2N5d5AgCTTG/cx8SjMSa7X65noNh1bm/iRdnVNHDAFux4BkkzX38L4AeiTXi/HazZHIopYovqa451W2o0ASabdd6AB/2lWBjKZba9Wk47pV485CcEkkbGNi22dgwA/8ds596LlkcgE1//SODTJIoluGEHoRJPEDmW6GwGSTHffv+o5RyuHEUYWYT5F3qYjbeqliEbVbVebDZsc2zobAZJMZ9+fRNHFTdikk1UnAd2x2E/zEnlTxxaDitvm1yafJgbKdg4CTL/ZOfei6ZGoyWtOeN2RklFtYbKmnJLXr1G6YX26Psu9h4Ck3yTJ9N595YiIQMcgwBy/HXMrGAgR6F0EeCbTu/eWIyMCHYEASaYjbgODIAK9iwBJpnfvLUdGBDoCAZJMR9wGBkEEehcBkkzv3luOjAh0BAIkmY64DQyCCPQuAiSZ3r23HBkR6AgESDIdcRsYBBHoXQRIMr17bzkyItARCJBkOuI2MAgi0LsIkGR6995yZESgIxAgyXTEbWAQRKB3Eci88cYblX/+85+9O0KOjAgQgbYh8MYbb+Df3n333bYFQMdEgAj0NgLCL04+mUql0tsj5eiIABFoCwKZTAY8k2kL9HRKBPoHAZJM/9xrjpQItAUBkkxbYKdTItA/CJBk+udec6REoC0IkGTaAjudEoH+QYAk0z/3miMlAm1BgCTTFtjplAj0DwJ1kMwGlmdmsLzRCEjf4ZsbZWxuN2Jjv3S7Kdb9woR+iEByBFKQjJBLBpmZK8BpAFcWkMk0SjbJA6UkESAC3YlACpKZxOLVCiqfAauFEpbWP0GlchWLk905cEZNBIjA/iBwILkbWclMYQl55HNZzE9fRiZzEfmyjWhki/ENcOotvLj+EDuOk4P4wcfjeGfA4nH7IW6svwrv91R2bpexiWP46NSw1yJ+7mNnbBzTxw8CcOtf7ykfw5j4j2MYcapu34vxKUyMev3i9/5BvP/RWzgsTc+fYv36E7zwukemNVnsYvMPYWOJ8it6T/HaiUP4+t4uAD0mzxEvRKCHEUhBMu5KZhFCNqvA+RVUFqOQ+Q5fX3+KH3w8hYkB4OWD+/jy+kMcrk56TzchwYj0yNgwsL6HnVPDLnE8f4advYMYOaURzMAxfPSRS0KOzz881IgmKt5dbF5/ApwYx0cOYe1i88ZTvBwdcpR21v2xOGR3fxfveGS3c/s+vjb93njqkxe+w9f3DmHiP6Y8wouKg31EoLcQSLFdUgMXsrGtXlS/fx2Z9lcuh4+/hRG8wsvnfr+zckiwgqlqjA5iBLvY8Q6MX27v4sXgMEZkdeQQzjAmqqscwOqzaswobO9hB8N4xyEY6RvGhFrhCMFpY3HI7vm/8FLEnj/FN1sH8YNxtbry/O7tYkcb68i0WlEZflklAj2OQIqVTDOQ+A4vZOJ5W6ade08AHEzx330YI2MPsbm1C4wews7WdxgZV1ud76rbHD/SQ3htMOjT77OUBg/iNUtzfJOs2sr4OiBYr62AEVaIQNcjsM8kcxCvaWcycubxg+f38eXtpxjRVg1RqI6Mv43Xru9hZ/xf2NkbxjvqfGVAJvV3huorvNgL+jQEgtU9l6ic85lgT0yN5ywxALG7jxGoY7uUHK2d9fv4xtsyvHzwFDtqa6OZOHz8HfwAT/DlbTkUTfAaGMLI4C6+ub2LF2OyffJeXvumZifo8yAODwA7sgqSlxzyrms+va3YNw8UUXlnMp750IuKp6oXKskOItCXCLR0JTMyLU+XyrjhQCv/7b2tTQDqg3jno2N48YeHWB885D0lCggYlYMYGTuIr+/JVsk/B5Ftl7JzY+uhqzP4tnb4CoycOoaRPzyE2z+MielhbN5X5ocx8fG/sH79Pm7ckzb3adjhmtWRkldX8TsO3FB6XrvhW0nzSgT6DYEWZcazPC7uN2Q5XiJABMDMeHwTEAEi0HIEWrpdSh+9/oG3Wu3XTqgP3dX2sYUIEIHORKBF26XOHCyjIgJEYH8R4HZpf/GmNyLQlwi09BF2XyLKQRMBIhBAgCQTgIMVIkAEmo0ASabZiNIeESACAQRIMgE4WCECRKDZCJBkmo0o7REBIhBAgCQTgIMVIkAEmo1AYpJZW8ggs7Cm+Xdz/s5UM4p7OYAzGeejxJnMAnRpbCxjptqXgW9qDQuSK3hZcgaLrqGneWSRCBCB7kMgMcnMfpIDCpd94ti4gtVSFvPn3CS/awtTWDpdRKVScf7K+VuYm1mG+6MGa1j4FPis2pdF4aLqE9BKWFoCik7/Cma7D0dGTASIQAQClWSvYiUHVHJFV7qcz1bgVypZZCv5sm5J5M02r7+cr2SRq7imgnZ1CywTASLQ3QgAqCReyQCzOJ/PonBZNkEbuLJaQu4Tfc1RwtKU2irJdQ4Fjdk2lme87VAGmakllLQ+FokAEehdBFKQDDB5bh5Z2TI5W6UcAhyDnLfdcbdL7rbJywW8toCppdN+fzmPbO9iypERASKgIZCKZDB5DvPZAuZkJZL7xD878dovVg+BNQ+W4tolrmQssLCJCPQkAulIBpM4N++uQYJbJfkFgzLmV6f8LZE8KVIHv7MrKOYKmPOeLl2cziPXk3ByUESACJgIpE/1sLaAzJw8CeJTIBNM1okAEQgiIB9LSZ20au1yAcgV/a1S0CZrRIAIEIEAAilJZg0ux+hPlQL2WCECRIAIBBBIv10KqLNCBIgAEQhHgJnxwrFhDxEgAk1CIOXTpSZ5pRkiQAT6BgGSTN/cag6UCLQHAZJMe3CnVyLQNwh0P8nI53bUh/765rZxoESgexBoO8k4eWpIEt3zjmGkRCAlAik/J5PSegLx2ZUKKgnkKEIEiEB3IpBiJSOZ72awvCGZ7FRKB6nrA4/KjmfPgBeWcc/NkmfJlBfIsDeD5Tu6f5aJABHoNARSkIyELjljLmK6rLLfAUtTfrrM6Ox4nn5kBjwhKUuGvWpKzg0sf7oE5MteBr4LWF/Ss9Z0GryMhwgQgZQkI19b8nLEAJhcvIAcbuGOrGY2lnGxkEX+vP+VA6e/tIor2monV4z4YqWXp6a4Ytio+pCUnzlcWHRTfkoirZUiv8/NtzER6GQEUpNM7WBKWC+r1ujseEoq9Fpet2TMm8J01vNh7Q+1xg4iQAQ6AIEmkEwW01NqJBHZ8ZRI1HVq2pIxr4z1kufD2h9lkH1EgAi0G4HUJFOY8w97N5YvopCdh/ODBSmz41kHrjLv+b+XgqCP93AaBVQz8Mkh8BzPZKxYspEIdAgCqUkmV7yAdS9huJO39+oi3BOSmOx4iQYsNorIFeaqGfamVudRrvqYxUo5L6fNbv/UOi4wX3AiZClEBNqFQIpUD+6Tn/ULFWjnsu2Km36JABHoAgSY6qELbhJDJALdjkDq7VK3D5jxEwEisL8IpNgu7W9g9EYEiED3I8DtUvffQ46ACHQ8AtwudfwtYoBEoLsRaPu3sLsbvs6LXpan8hPBtlc9fXE6Nj+2NjMm065Zt9lgW3ciQJLpzvsWiLoZE1RIwLRj1gNOvYpJHjYZsZPmZZNP4ieND8ruHwIkmf3DuqWe9Impl23kYQaiy+tlkVP1Zk5yZVNdVTxSV37UVY9ByfHaXQiQZLrrftVEq09M6TTrNQohDeakNushanU1i20zTrNel2EqdSQCqQ5+nQRT1YRVZkIpM2FVkv4MZrysV9G2feyUnPb1Jq+zEf823QyCPpLIxMWpJ/xSib/UVfLy2H0ojHzrfkknA7+VJSLQOQikIhkJO1tNGFVBOX8Lc9WEUu6g9P5iroC54ExFrugmvJLJIX9Xq7lh4m0D8jO5WeRyWRQur1lRbJb/SjGHwpxPgsqZbj9MJjzOWax4464437nKIu8lAKtU/Dw7URipONRVVgD6n7SbdSUbdTV1zHqUbr19UT6i+ur1R732IJCaZPQw3aRVBYTMd8x+kgNu3YGWs0pXjyxbba9ddr71ff78PLKFy7DTjG+2Ef+YXYGQSGnpUrifMJmUcfoRpy8pslZXsaDKck36MnXMepgdnQzCymG6UT6i+sLssb0zEWiIZLBxB7eg55PRB7mB5YsF4PR73re09b4EZYvttcsFZOfPYTJRWokG/UuIs58gh3ASdUZhkUkXZwIsOlhEJ4Owclj4OimFybC9+xFoiGTWLi2hpPLJeFiUVBqGzBRW58uoGF/Zli2I/+by8wObUNbY9tJ7zrvJa3BuPovS6pWaVVKz/JvxJK4njDPKXlKMlA0fT/dRsVlXclFXU8esR+nW26eTkmljP/ybPllvDQKpScafxBnM3cpruV7cAKtnFiFbjeB5g38OIdpRtjeurAYIbfLcPLJG/mCx0Yj/ZkCcNM4oX1EYhempCSv9ejlMXm9X8uqq29DbdJ1Wl5VfufLV3QikJpnqJJYDzGoyKQsIs+eRz2pZ7CwiZlO47Q1cWS0JC2FKHXROLaGEElb1LOW6wTr86+pOWc5WkMMnfl7zGhEEZOqIs9Zi01s6baLKKkVe5mpFtTcdABpsKwKpSSZ5tJNYvBBzcJrU2NolLJX0JzHqJ1myEQezDfr3Untm8+cRyjGmTF1xJgWh+XL6JNfL4kmv6+VmRKGvUsyy+Oo0UmzGmPvZRgtJxn5wGjxvqH1EbLsZcpCK3AVoT7sdMesTKN2A5VA2yr++XctMrWK+HHzELqajZOqOU48ZcB6d6xM76nMyhmq1KvpxL3OCq7roqbJ5NW3qcYaVTR2pm/GZdZsO27oTAXknVuSNxFdvICCT1byf+gQ2+2yjttloplyYfbM9bdy2GNnWXgTkHpJk2nsP6J0I9DQCQjKt3S71NHwcHBEgAkkQIMkkQYkyRIAI1I0ASaZu6KhIBIhAEgRIMklQogwRIAJ1I8B8MgmhM598JFSLFEtiU2SSvswnR6Z9s57ULuWIQCMIkGQSoicTWJ+kUZNfn+w2Ob1fd6/b19vD5HUZmx+93yzb5JP4Me2wTgTiECDJxCEU0h82IeMmr60/xEVDzcqPuipjUlexq6v0mXJKnlci0CgCLT2TcbLYaUmrzHqq4NcWkJlZrvnWdSobDQrrkzKtqbhJrE/+tLZt8ipWuao/kVPtNh22EYFWIJCKZDaWZ5DRSKMVATXDZrfEqcbabIJRdnklAp2AALdLCe6CvgppxUqgFTbVsPTYVZu6RvUpGV6JQKMIJFzJuAmup5ZK8u09Z/9e/dKefBNZpV/ImMm3w8Or3Tq5Pux2Z7B8x7Bl9RsRZ02S7vCEWYanwHZD9ckEtf2p/rirmuBJbNhkzLYwf2qrZCOyqL4we2wnAvUgIF+QTPQq57MVyQTuv4qVXDZfKXsNTr9WL+YQkA/Ui7kKkKtUrZXzlSyylbxjrFzJZ1HJupVKpVKs5IAKqraj/dbGWZF0vYFYzFj9MYWXvC+TOgJ6OVzD+eZpQF7XU2V1tdmJ6tPlbXLSZv4pHVPerCs5XolAIwjI+yrhSiaMu2axoiWucrPVraMcJq63G2kYnIxyKp3DxhWslnK4UM3tMIuVYk7TTunXS4mZP+9nhnHSRFgy62lOeqIYtVrRV0M9MVgOoiMRaJBkAOeQVW0dnGx1Scc5i/N59dMmbka5nEpBV15HKcZMer8lLE3pW5w5FGJ87Fe3EIFM+P1+RRHQfsdCf72LQGMks7aAqaXTKKrHpM5vCSUHy1n5yE+beCsXxTGYmkY2ykxdfnN+nCreytWaRFhRblVfGkKQiay/zLre18yyitFcraj2ZvqiLSIQhUB6kon4HSXnFwaivJl93k+bzMkKKPeJn+Zy8j2chpYf2EtzaaqrutWvHmein1BR1qKvMknjiMKcyErHbFee4vqVXJqrvkoxy8pfGnuUJQL1IpCKZNwzFzeZt/MUaHYFzq9Eetuli9N56Ccn8UFNOj9tInLVrZKjNIuVch5QP68ytY4L+iopxm9NnJjE4tUy5lengk+E6vhwXxzBRI1ZdE2i0Se8rV/siUzcn82vzZdNjm1EoJUItD8znnySdw4oaj/T2soBN9O2OYl124qMREaV9X4pR/Up2SQyNlthema71NUrLE7VzysRSIuAvL/aTjLyeZk5FGt+BC7tYChPBIhA5yEgJNPmT/yuwfkhgqL/aLnzYGJERIAINIJA21cyjQRPXSJABDobAVnJpDr47ezhMDoiQAQ6EQGSTCfeFcZEBHoIgTafyfQQkl0yFFm+pnmKlFa+URjS+rPJ29rMuEQm6cvEy7Rv1pPa7Rc5kkwX3umwN3VYe9wQRc98mRNL9dfrQ+nHXcVvoz6S2ggbox6jDRu93yzb5E0/jY7P9NnpdZJMp98hI76oN2jSyWWYdKr6RLBNFJtOo21RfsL69DhN/6aOWY/SNW2F1ZVNdVVyUlf21VX6TDlpk35dXtno1StJpovubJo3pu3NrYaq+vTJIH1x9uP6lf00VzOGKF0Vt4pVyaq4dFuqTck062ojiHp82ew0K8ZOs5P+4NdIFuXn3TWSTnkjdb4tXf34visjN0X/c76ioJAJtQ/IB/cCsvJp4cwMljdEOcq2vS+YSTSJjArSjUXGELSxhgVjbP44JUmW3UdgTL6LukpqosnV9idGVXsaBzIOZTuNXpRsmD3xZXvp8voY9HbR02MNs2Wzz7bWIJCOZGRST61ivuy/gcvzq/jUneWJI8wVfX15g1xVeWPS2Pe+NJkrBr9JHWobQDZfrk4wyWJVmDNIK6EMIB8izCKXU6kq1NBnsaImt/NdqyzyVaxWql8AjYpRWTKv+sQx+8LqzZxg5kQO85m2XWI0/8SG2ZZ0LCLXqlj1senx6e1m7GafXpc4k45L1+u2cort0hoW5gqSGC+QHmFy8SquOqN2lhMNjD/Ovm56DQtTSzhdrGCl3g8Lz66gUgQyc5ewtugTgO4FYTJrl1HIzqN8Hrg1dRlrK7NVAgno72NFf7OqSabexKqeNhxlU111/Xpt6jZU2bQl/mxtSl5dVVxKXq8rGdOOaperktfbkpZ1u6adqL6k9ntJLvlKZuMObiGHas6XZqOQ2H4ZyzNzuJUv108wKnYjO59qDlwtMmuXC8jOn8NkE1NIBHzWUZE3tv7mrsNEjYqyp19b4afGccoGiUkRjR6fitskAWVeyUZdlax5FZvqz+xjPYhAcpJJkK1OTJdUegbvJjjJx4M+nW2KukGZjJfQO7H9OSyVspg/N2lYdauyBaqxbZWss9FL5en6d1NVlFavpPo9qJbHqA1NTTStqeOK/v1y750EaGvTA5d+fWx62ezT9ZpV1onJtKnHbvb1Yz05ySREJ3DuUamgnK/NcRc8kwjZqoT4E/tuqhn7rw00YjvEZaDZyUWcnYfiODd3zSqupNgt1hOjvKnlzduuV5z/RmLTJ6yU5WVr08eu5PQ2KZsEY9ZN+VbU9dij7Lcjtqh4WtWXnGQs24amBpXC/uTiZ8hnC5gLPtpJH46crcRtAQMybi5ilNzEXfImyTh5jUtYTcMy6SNtqYY5Yc16EueiI3i082VOWrPejNjUGOWq/sSuam+Gj16zkZxk4CX+nlOPjF0o5BF1cx7BprEvme6KyBXm6vftPZ3K5s+HH9qaMmuXnK2a/8TIPQeR1Vpp6RLWWvzuaGQi6xPCFqb0R9mP61c265lsKjZ1FVuqrK7KftRVJ0fRixpPlJ2oPrEZ9qd8RumrvjSySqdbrylIBpAnSe5WxWfxqdV5fKYeQSdEIXgm4T9GTmffT9GpL2jCbEtogfMi71F89fG5F3uUjBz4Qv1sizZW5+dVUMDlhCwTFaNm1lqMmjjqjStX86VPDLNPr9vsK7siZ+tX+tJXz0uPTdmwtSW1nTRekYv7s/kUHf1l1vU+W1nk1Tht/b3WJmjJbzf12rj6bjzmGzfJG1/dd1NXBy+qT5drZjmNT11WyvJS41Ix6TJRbapPv5q6Zl3Jmu1SVy8zHtXeD1fBgSTTD3eaYyQCbUJASCbVdqlNcdItESACXYwASaaLbx5DJwLdgABJphvuEmMkAl2MAEmmi28eQycC3YAASaYb7lIdH/bSn26kGWK9eml8ULa/EEjxLez+AmY/RysTu57HnDZCCLNTr4/9xIG+ehMBrmQ64L4KMdgII0looqv+kshThgjsNwJcyew34jH+oshG9ZmrlbhVSlx/TEjsJgINIZBqJSPpL+UN6/8FvwkdnR4zQZyhqTfdtJUzRga+7kntGT92RRxqVWJexYJqi7fmS5BgfCxYag8CqUhGQtRTOZTztzCn8sGY8YekxzTFqvU0qTerSrWFYBqFzkrtWRutvUWIoVkvRV7Nskc7RCAtAqlJRncQ/sXAtOkxVerNYL5eJ7Vnyi9f6vH55TT208bue6mWnLSduUTfzPZXhT6xCDE0QjRKV7etytUYLQWRadS3xSyb+hyBhkgGTsrMLKandBTrSI+ZOPWm7idFObH9OmIPCyNhfpx6tkBhLlW7Wr3o11b4Uf54JQJRCDREMmuXllDSssSJo9JSdHpMazCJU29OaedBGfRcak8NHEUQWhOLRKArEUhNMnq+lblbeZSvLkLPthuXHrMRlPTzIJmEvZbasxFswnQFJ7V9CpORdrVVknJSnSh77CMCCoHUJBOY6AbBKKOp02Mm3Foo+6mvKeynjj0smEDazjChxtrN1Y5Zb8w6tYlAcxBITTLJ3KZNj5km9WayCIJSaeynjT3oyamZaTstIkmb4g5s1QokbLUS1y9xKBk9Jq5mdDRYbgSBFpGMhGRPjxkWbLrUm2FWYPzcSmel9gyLWk1yG1HIZFd/YfrSbiMFZTesX9p1GdO+zaYpwzoRiEOAmfHiEGpxvznJbURjhiCTX16mri4X1ad05aps6bpmWcWURNbUZb2/EZD3Dkmmv98DHD0RaCkCQjIt3C7psa9hIfB1BP2rCf6WRtdgmQgQgd5AgCuZ3riPHAUR6EgE9nEl04JQRzIAAA9aSURBVJHjZ1BEgAjsAwL7tF3ah5HQBREgAh2JAEmmI28LgyICvYMASaZ37iVHQgQ6EgGSTEfeFgZFBHoHgRQk42ancz5coz2OdrLVScIpM3mVk+VuBiqZXXRWPdf2QsQP1it9m4zqs2bOsygo+WBX1GN2NwOgoxdUAsxsfpnaR/LKX9L4euftxZEQAaT/nIw189zseeSzBcxVJ+AGlj9dAvKfQc85pX+5MjKrXs2dWcPlQha5XBaFy3YmymaziZJEAWG2ZrGiPsJfziOLLPJl9ZH+FczWxATAyea3hNNFJVdBpZwHlqZgEkry+GyO2EYEuheBFCuZqEFOYvGzPLKFOQjPbCx/iqVSDhd0hjHUw7PqGYJSlW80Z+dx/vw8soXLsNLM/AWD6Cx2ktoKUQ02b2D5YsFJR7qiM9DkIq4WLVnxksYXdMIaEeh6BJpEMgAmF/FZPovCxRl8ulRCrhjy319BZs2qpzqD17XLBWTnz2Fy8hzmswVcVHuwgNiUR3QXq1u0QLdXSWbLpmm0bVzBaimL+XN6Nh1PxkktcQt3NnSdZPHpGiwTgV5AIDXJFOb0rwQEf63AWZ2USihl8ziv/3e3IGXLqmcRc848LhbUZJ7EufksSqtXEJi/SnFyERdyJSx9umzv31hGYlvKZuT1NN6zcIyrUsJ62VCOi88QZ5UI9AICqUkmeCYTXK2sLcyhkMshV1rCJcueJi6rng3QjSurgRSfk+fmkS2t4oqVZYDZlaLj/1PLaietLVs8wTZztaL3mrmP3b6o+HRtlolAryDQvB9381YJ+fIKFj8BMnML+KQSJCE5+L0acU5TC+oGrqyWgFIJU5mlYPeVDSxabc1ipZhDZu4SruR1lXps6fpGefI9nIa3WjFXM05WvNMomu2OibD4DPusEoEeQSD1SsY+buNpUs3TJrtWbOvaJSyV9Kc87lMcye1bWrpkPwAWo57/paWS76JeW74Fo2TPtuc80p6TA+Hz9idSYfEZ1lklAr2CQGqSCZ7JuJ8JqX2aFHzalBSsoO0ZzFwsALkLgcfgYiv+yZTnX3MsB7712dKMGEXJ5lcpnsbSlHZONbWK+bL2o3KGjlutjc8qxkYi0AMIMNVDD9xEDoEIdCoCTPXQqXeGcRGBHkIg9Xaph8bOoRABIrAPCJBk9gFkuiAC/YwASaaf7z7HTgT2AQGSzD6ATBdEoJ8RIMn0893n2InAPiBAktkHkOmCCPQzAk0kmX/gweYv8dfdboCzm2LtBjwZIxEIR6CJJBPupF96nm//Gl/8/V6/DJfjJAKJECDJJIKJQkSACNSLQIpvYcsW4/8BP/wIzzd/i23H4wiOT/xfHD9kcb/7O3zxt53wfk/lyd9/idv4KX78wxNei/j5FZ68/nP8z9E3Abj1B6+UjwmcOvW/8bZTdfuej/0C/z7s9Yvfrbfwvyb+Bwak6dWf8afN69jzukd/pMniHv56O2wsUX5F7wYGxkbwYGsTwAgGD+1gz4nxt/jiW2Bw7Oc4/upXEWNDAjyjYvAGxAsR6HAEUpCMjGQHDzZv4PjEL/DjQ4BsD/64+TsMVie9N9qEBCPSb78+AfxtE09+eMIljlf38OTVCN4e1gjm0E/x4wmXhByft3+nEU0Uwvfw183rwNjP8WOHsKT+Zzwfdm1t/80fi0N22/dw3CO7J3//FR6Yfjf/7JOXYLE1glOnfuERnofHq498wtyNHlscnvExRI2dfUSgMxBIvV0a/ZG/chkY/QijUP/BvQHJyiHBCqY6/OEJjGITW96B8fPdu9g7dBKjsjpyCGcCp6qrHMDqs2rMKOxuYhsTOO4QjPSdwL+rFQ4AfSwO2b36B56L2Ks/48G3Izg+qlZXnt9Xd7FdXVGJvlpRGX5V1Ta21z8KrPz0GAJjSxiDcsUrEehUBFKuZGzD2MHz7wB4W6btrevO9sHdztjkzbYTGHsduP3tPWD4TWx/u4PRMW+r893T6jbH13oTA4eCPv0+S+nQW3jN0hzfJKu2X+JBQHAExwP1uMoJHB8bwR8DY/OJy67tje2g9DYjBrsXthKB/UKgCSQzggFnQrghy5nH8Ve/xh///meMaquGqAG9PfoxBjc38WT0LTx5NYHj6nzl4FsYxFND9R94/iro0xAIVl89xQvAPZ8J9sTU9LOfGNGI7oHhkxjcsowtVEcfW3NiCHXFDiKwDwik3i5t/+3XUIewz7dvYFttbbRgB0b/D47jOv6Y9HHuoRN4+9AmHvz9LvZen6ieccBrv63ZCfp8E4OHgG1ZKcjL2arJQaz38rYrD7b/4TV4ZzKqP+yq4qnqhQla2tWWS3WpMcjhsz42rz8Uz0ZiUL55JQIdgEDqlczoj+Tp0i/xhRO8/Kf1tjaBwbyJ4xM/xfPbv8WfDqmnRAEBo/ImRl+XJzWyVdK3E74deWLjvA59rB2+Am//8KcYve0+0QEmcOpHE7i9pczLGczH+NPmr/CF0+Y+DRuAIh0lZ17F78+Bqp7Xb/g2tdxVy3X88fZ15+mS+3RMG9vr+thc7XA864vBjIl1ItBuBFJkxrM8Lm539N3i33naBuOJGPHsltvHOOtHgJnx6sculeaTbzcBy1YplREKE4EuRSD1din9OPUPvNVqy4fW3G1FbV9vtNzD1rfyuLt2q9Qb4+MoiEA0Aim2S9GG2EsEiAARMBHgdslEhHUiQASajkDqR9hNj4AGiQAR6GkESDI9fXs5OCLQfgRIMu2/B4yACPQ0AiSZnr69HBwRaD8CqR5hv7z5X9h5pAd9DCP/+SEOe03Svzs0g7GTQ27Lo5v45uYzDGVnMOw16dp6Odr2M+yWruLZM11D923rBw6cdGOJtu3bVHKHP/wZRo767YDNflL/sMQO1PrQ/bFMBHoHgVQkI8NWE1fK39+9iq3f3AwQTRWaZ3exdfOhM5niCEbpxNnW+x1CuHkU73x4TKlHTlxd1x73Q7x4NITDR4GXDx8CR327yoFuI7l/lxl1XTjk+1/Y8khQ2eeVCPQiAg1tlw6cPInDkMlpQvMQO6UNHKhZEZhy4fVw267O4WPHgL09fB9uIrTHavvRI7wcOobhk8dwQMqh2o37x9EPHXL8/u7dWD8xYbCbCHQ8Ag2RDJ7JJB/CgUF9nLK1uInvT84YWw5dJkHZalvpPcPu3YfA4CBSL8XEhMW2rF4OHD2KA0NHcXjoIXbvBvZmyrF3bdC/WDl6NISgDVesEoEuR6CuOarG/PLuBr4fmsRr2nnL93dv4hmGMPTftUalkOJqt30V39x1jcj24x119uPZlS3MN1Uf+plJtdEp1Nh+dhe7slXy7L12dAjPHj3C9yeHAiQm26xm+A9GwxoR6G0EUpOMPtEwNImx7MnARJTJP4Kb2CrdxH/TDoWTwJjEtnOo7Jxp3MXLk/6hs9iPOkyNsv39o4f4fuhYlSwPHD2GA3cf4sWzk4ED6+q5Sh3+k4yfMkSgFxFITTLViRaBxoGTH2Lo0VXsGAezESpOVxLbjuDRkxgauorduyerq4/6bT/Di0fPgGcb2PrNRsDMy0fPMDxkWZHV4T9gWCrOuc+xxraUNUbZQAQ6D4HGzmRCxzOE4eyHOPzoJrYizzZCDcR0DDkHtE05OH10F8+eDWEo+zO885/+n6yYwu036N978uYeQMcMld1EoMsRSL2SST7eYxjJ7mGrdBU7Q+bnTpJbCZV0Dk5v4sWjD53HziIXPJMJPm4Ps+M+rv4wsC0SWYcA7gbtB2wk9u9qBbZrcmaV/VmNz4B9VohAjyDAVA89ciM5DCLQiQgw1UMn3hXGRAR6DIEWbpd0pB5i5zc3Qz94lvjAVzfJMhEgAl2BALdLXXGbGCQR6E4EuF3qzvvGqIlAVyHQokfYXYUBgyUCRKCFCJBkWgguTRMBIgCQZPguIAJEoKUINJFkNrA8k8HCWnPjXVvIINNso9UQWxNz1Txabd/3xBIR6FQEmkgynTpExkUEiEA7ESDJtBN9+iYCfYBACpKRpf8MljfWsJDJQJ5/ZzJSD0FpbSG6X1dzZJVN7xq6RXK3IK5/kV2Av0OT2GawvCy+tb5Y+1FjivIng4jr1waaBhNNjUUi0M0IpCAZGWYJS1MXMV2uoFKpoJwHlqb0Se5BIZNp7hby5atYnIyDZw0LjqyymQVyRVRWZi2KMqGnsHS66Ph3Y7iFuQDRlLC0BBQrYm8Fs4i3X5gLG1Ocv7h+bQipMNH0WCQCXY5ASpKR+e8Tx+TiBeRwC3f01cydZcwkJhhZCNzBLZzGex4ZTb53Grh1B7rJKsYbV7BayqGoEZAthlxRyMV7JbAfOqY4f3H9Koa0mCg9XolADyCQmmRqx1zCetlvLSwtoeRX40uT7+G0RlRrlwvA6fdgXQCV1y22pzCdDcYQcJrGflXRsxfnL67fs5cak2ocLBCB7kegCSSTxfSUD0Su6G2jPl22r0Z8UbfkrDRkG+aexcwVgiuVgPjUNLKBBqmUsV4KxhAQSWO/qujZi/MX1+/ZS41JNQ4WiEBvIFBJ9ipX8llUgGwlX3Y1yvlsBdl8xa26/bmi9HmybiXafDFXQYRcMQetv9ZuMIZiJQdUAuYi7Scbkx5f0F9cPG5/akyiEWMvEegaBADhDMgZapKXmjDuRHaVcxWHUxx11a9suXJZxUiq2XJ1iMQNRgLSiKtSCZKMKOv+g7KqL0AyoiFEZbUvMWcr+WK+kq3262OK8xfXXz8mFpjYRAS6DgFv3qUlmeaOM7gycG0LKSQhpySRtNp+khgoQwT6FQEhmSacyTS2Zyyvl4yD3g3cudWYTV271fZ1XywTASJQi8A+kIz+QTfvg3bVD/NlcHG6iPytOe/Dc9I/hdX5Mq7Gf8CmdjSWltmVckvtW1yyiQgQAQ0BZsbTwGCRCBCB5iLAzHjNxZPWiAARsCCwD9sli1c2EQEi0DcIkGT65lZzoESgPQiQZNqDO70Sgb5BgCTTN7eaAyUC7UGAJNMe3OmVCPQNAiSZvrnVHCgRaA8CJJn24E6vRKBvECDJ9M2t5kCJQHsQIMm0B3d6JQJ9gwBJpm9uNQdKBNqDAEmmPbjTKxHoGwRIMn1zqzlQItAeBEgy7cGdXolA3yBAkumbW82BEoH2IECSaQ/u9EoE+gYBkkzf3GoOlAi0BwGSTHtwp1ci0DcIkGT65lZzoESgPQiQZNqDO70Sgb5BgCTTN7eaAyUC7UGAJNMe3OmVCPQNAgfefPNN5zeP+mbEHCgRIAL7hoDwy/8H6QYyOUDvjuoAAAAASUVORK5CYII=;" vertex="1" parent="1">
          <mxGeometry x="440" y="760" width="281" height="291" as="geometry" />
        </mxCell>
        <mxCell id="DroHx0XE8zM4UCk5UBcj-234" value="" style="shape=image;verticalLabelPosition=bottom;labelBackgroundColor=#ffffff;verticalAlign=top;aspect=fixed;imageAspect=0;image=data:image/png,iVBORw0KGgoAAAANSUhEUgAAAM4AAAB4CAYAAAC6jM2sAAAMvklEQVR4Ae2dP2zbRhvGHxUuEIQq0gCVkkyKYfkblAaetMiLu7Sws2Ty2k0Z7SWbx2xd5NHaunrKYhvpUi/W4sltkqG24GqKIwUIiohphgD6cCSPpKg7mUe7zsl6DAQk79737r3f3aP7Y4vJPXz4cPDnn3+CPyRAAukIPHz4EDkAg99//z2dB61IgATwww8/4CtyIAESMCdA4ZgzowcJcMbhGCCBLAQ442ShRp+pJ0DhTP0QIIAsBCicLNToM/UEKJypHwIEkIUAhZOFGn2mngCFM/VDgACyEKBwslCjz9QToHCmfggQQBYCFE4WavSZegIUztQPAQLIQoDCyUKNPlNPgMKZ+iFAAFkIzGRxmlqf4gMsVQph83uv9/GqKx4dzFarKDlAlBaaAdLP7eDw8BRuLGv01i/rZkeWHViIMkofI39ZZpAd1RvFEi/b7Rzi8BRhnFFeD6/3X8FrRpTIu3MIUDjnAAqznVlUK4WYMIp4UJ2F042E4LouCqXhNOFfLBTQ6/VQuBmWdrGbFLFEQopX5XgPvoh8+RYfLKHyoIiu/wkQN+b9GAJcqo2BM5rl4mM4XXTxKjF7fOx00HO+Q9Efn767M4tSoYdeb7S0i6WMjyVt2V0R2E0H8ZDT+k6zHYWTtvfdLt65DkrVKma1o6yLXs/BdzHlOMXv4PR6l7sUShVLmoY5mC0VID4Nws+DNG60AZdqqQeBi9PDfbhiaVNdQgkuOoeHOE2MOPEJXqncR/FU7BuKuF8COoddwIn2Rqmr1BqeH0uhsoSliixgeB/jlKpYKvl5Ytm2n2yEdONVS4DC0aJRZ3Rf7XuzhzNbRbVaBZLi6fbQq1RQKAJdFFBw3+FQiEs7S6nrSZM6Lhb1HscvNdzjeAcMUuRpaqSNJMClmiRheHVPX6PjOmJ7kPjp4u+Oi0Kh6B0KuO+6mZZBN53hgh1Hf7KgjyURWvKx+zc6bgEl/doz6cHngACFk3IoeDNMfIAV76PkxDfoUUFu9x3cQgWVQg8d42WQi+47F07pPophkWLJ56DX8U/wTGIJi1DeuDjt9BJ1KQ2ZmCDApVoCiO5RfKq/q0Z7A2j2OJ6/t3kvwfmY7VDAPT3EIaqoLi1BblO85VXwy5Y0sQzvcQB/eaZoXXxpyV/mKACpk/hCQjUXppKAlgBfSKhFwwwSGE+AS7XxfP6D3CIeLFWgO5wOT7z+g5pZ5OURoHAuj2XKkrp4tc/NREpY1prxVM3armFgNhOgcGzuHcZmLQEKx9KuWVpayhzZRXwzVzpljtzjGHa4GJT7+/tKL5MBqytDFizyx9Ul7S56vYo6Lhqjjf4UjkGvpBlkSUGofERa8keVJmxU6fE6VPlp/GT9VyVQWd91uVI4KXtSDND4gE3pZmSWpvykUFQ+prFSPEbd5BlTOObMrPNIikkEmExTCcy6hkxQQBROis4y+QRPDljVIE5RpZFJUhQm8cqKOOtIEumuFE46Tqmt0gxilbhEBbp0XeXj7HV5yfh0ZTN9PAEKZzyfK81NM6jjglDZi3yRLq9X2oApqozCueTOjg9sWbQqTeaZXlVikWWME8u4POnPa3oCFE4KViaf4MmBrRqwlykkGX6yzHjMqhikn7ymsZG2vIL/6/R1GAS6QR8Xz3Vop01t4J/cpOwNOQh15rrBq7OPp2f1FX4qX5Emf86LW9ipypD+vKoJUDhqLsrUNINQ6fgfJYp4xL/4j0oEMu64oKSPyl7m8aonwD2Ono0yJzlQhdG4wRe3v4qBG68v3gDT9Lgv70cJ8J0Do0yYQgJjCfCdA2PxMJME9AS4x9GzYQ4JaAlQOFo0zCABPQEKR8+GOSSgJUDhaNEwgwT0BCgcPRvmkICWAIWjRcMMEtAToHD0bJhDAloCFI4WDTNIQE+AwtGzYQ4JaAlQOFo0zCABPQEKR8+GOSSgJUDhaNEwgwT0BHK3bt0a/PPPP3oL5pAACQwRuHXrFr6anZ0dSuQDCZDAeAJCM973cQaDwXhL5pIACYQEcrkcX9YR0uANCRgQ4OGAASyakoAkQOFIErySgAEBCscAFk1JQBKgcCQJXknAgACFYwCLpiQgCVA4kgSvJGBAIINwTrC5uIjNE4NabDF9e4Q3rTY+2xIP45hYAgbCEYLJIbe4A3wPYOcJcjm7BPTp6AWFMbFDcbICN//LgZNNLM6vo1XfxWBrebJaK2acdh6F2hz47t/J6jqbohV/OWAwfsSMM491NNCo17BaeY5c7hkaxwdYKwPot9FrnYTLoBsLP+H2nT4+tA7weU7cB01PDN7P7QP02v0gM498bRHf5MWj79uXWbiL2z8u4IZneYb3v7UxM5dHv30GBHk4eoH3WMC9hbt+eUMx5ZGf8woO6uKFBLITMBBOGWsHA6xBCGgbeLqFwZqs+AzvWyfA3CLueYNTPLfx+Y5Ui7RLXPttvG/ncfvHxUAQUf6nowP0nQXcq/ki8ATWasdmiz76nu9Poe+nyN0X3h+JmH47AvJC5fwhgYsRMNjjyIqEgIJZRia9fYtPuItvwk/0u7idejl0hn/fyoKCa7+ND2/FDBHMHABm5uZwo3+Gf8MZCLixIGeghL947L/Fp34iJjkTKcyZRAImBAxmnHOKzedN1n1+Yfk5FGpAr/UCbzxxLKIQiq+PfusFYjoBkEfqxZbbD5eN50TObBIwJnB5wun7A9W4QCGeH+cAiH3LAd7nf8JtR7QjvqcxbhfgCCEPyy5DKXQhASWBDEs1RTl37uAGzvAh3OQHexzk8bUDfDoTG/jgAOEouB8pJo8ZOZ3k7+BGPl7eiPH5CXkHM/GYxEGBtu7zi6MFCcQJGE8QcefoXuxpXPRaB3jTFqn+6ZgofEbsQ347whuxMRezyMJdvPdsAIgTtvhgvrOAe955Qh7f1BaBsLygpnw5djgQ1a6+S8Yknsv48IfamqkkYELA/Pc4JqXTlgSuIQF+A/QadiqbdDUELmePczWxshYSsIYAhWNNVzCQSSJA4UxSbzFWawhQONZ0BQOZJAIUziT1FmO1hgCFY01XMJBJIkDhTFJvMVZrCBgIx/8G6JO9ROx7T5Bb3ET4TWrxnMuF/yL74BuksTxht+h9B1uV9wTJqhI1h497T/z6/LLCZJxsLiIXBRBmSPvRrCiO0TwAsm1heyP7eJuTcYQV8+baEDAQToo2i2+HrjRR3x1AvI96MNgFnsVEBcTyfJsD71twftm1xnHgN8BuvYkV5ehVx1Gr1dBa/yWF2PbwvFlDvV5D87lamqKsZiJuUeve8ybq9fpIAFF7R9s0YsyEa0HgcoXjIamhMi/ZLGPrYA1Zvjq2/LgOvPwrmslkkbrr6gYatRRi23uOZm0VT5+uotZ8rhTa9xsbqLe2sRNOowBONvGsWcfjx7oAmD5NBC5XOOVHWK21sD5/0Zd4nGDzWRP4/n8GopvH2q8N1JrPxr6BR8watdVHKHuxNvFM+bqeZTyut7AdU87JzjZa9ceYsLcsTNNYvtK2Xq5w4H+9ercuxCP2HaMCaq5E+59cbngf01qfD/ZG89hePTZ/GUh5DRui7p+Hl4chUW/WqGH1kZgDy3i0WkNre0c5q4kZL1r67eGXdaDxVC2bcW0K6+bNtSJwycLx2Sxv+Wv94wZGZp/h/cDW0Cd4uMfZjQ9aM97LW7uot9bxs2Im8WaN2io83QjpPFpFLbkkk9UtP0YdTXjboGB5J/2kibyOa5O04fV6ETAWzsu/4gt/4OSvl1oi5bVf0ai18PpYa6LOWH7q7VfUyyi1S5S6jK1AeDtRotikYGe7BbTWMS9P9sRrrjC8JItclvG04R8ghMu7KJN3U07AQDjB0mbo5EosYVqob/gHAOL4d+godu8XrLfihwVpaZextpF91kEgvPX1VlRhEEvj2J8N/VO/AY4b+tM4b0ZqrmClWcdG7PQvKpR300rAQDhAee0Ax42XWJGf2LkVvGwcQ76XUMwwq9tyn5JDbuVl9N61gPDwfkD+HkeBP75UUmSPTyr7BwUxIzFroL7hvwMull5e24iWZLF079Y7QBBn6OMPBVK3KVk+nyeWAL8BOrFdx8C/FAF+A/RLkWe9E0/AaKn2ZVq7hyfh0jB+lK3+M5svEyNrnTYCXKpNW4+zvRcmwKXahRGygGklMAFLtWntGrbbZgIUjs29w9isJUDhWNs1DMxmAhSOzb3D2KwlQOFY2zUMzGYCFI7NvcPYrCVA4VjbNQzMZgIUjs29w9isJUDhWNs1DMxmAhSOzb3D2KwlQOFY2zUMzGYCFI7NvcPYrCVA4VjbNQzMZgIUjs29w9isJUDhWNs1DMxmAhSOzb3D2KwlMPPtt996b8+0NkIGRgKWERCa+T/Q/1gWbglgkwAAAABJRU5ErkJggg==;" vertex="1" parent="1">
          <mxGeometry x="134" y="760" width="206" height="120" as="geometry" />
        </mxCell>
        <mxCell id="DroHx0XE8zM4UCk5UBcj-245" style="edgeStyle=none;rounded=0;orthogonalLoop=1;jettySize=auto;html=1;entryX=0.5;entryY=0;entryDx=0;entryDy=0;endArrow=block;endFill=0;" edge="1" parent="1" source="DroHx0XE8zM4UCk5UBcj-235" target="DroHx0XE8zM4UCk5UBcj-236">
          <mxGeometry relative="1" as="geometry" />
        </mxCell>
        <mxCell id="DroHx0XE8zM4UCk5UBcj-235" value="" style="shape=image;verticalLabelPosition=bottom;labelBackgroundColor=#ffffff;verticalAlign=top;aspect=fixed;imageAspect=0;image=data:image/png,iVBORw0KGgoAAAANSUhEUgAAAPUAAAE8CAYAAAAYIfetAAAgAElEQVR4Ae19a2wk13Xmx0C2ViIykmeGdFZ2Qo3ClgTOGE5kTbxuKrG8DuwdjoQdW2sCFhBMgBjNIEDMNuD5IYPJj4CRfwiImzIQZDpSkkkA/yBW9gTyNNfG2pKyYsf2+AnP0NI0Mw/JEiKSeo1BybIN1OJU1ek6dfvWq7u62ew+BRTvved9v7qn7q3q7suR97znPc6Pf/xj6KEIKAK7H4H3vOc9GAHgPPHEE7u/N9oDRUARwIc+9CH8muKgCCgCg4WAJvVgXU/tjSKgM7WOAUVg0BDQmXrQrqj2Z+gR0KQe+iGgAAwaAprUg3ZFtT9Dj4Am9dAPAQVg0BDQpB60K6r9GXoENKmHfggoAIOGgCb1oF1R7c/QI6BJPfRDQAEYNAQ0qQftimp/hh4BTeqhHwIKwKAhoEk9aFdU+zP0CGhSD/0QUAAGDYFrBq1DmfozegCHD09gVChtrj2J8xtEGMWBw4dx/RVuC6Gkqml3+wrOnr2EbaE3fvBuTI0Bgb8QE3cT0z8CGS+m/VtncfZSYG30wGEc3r/V9MG2WZ9Kz0ZCn8y4AWxfCXyZflz7vs4bTdw8ry2ypu2cMZmQF9GIW+IwDPXhTerxg27i0GA/6yYxXe5xHLz7IMY3zqNJyjoKXLvX48rZJ3HWzzsa4FMHNkQijmNsbBubm8DY2DiwIbzR4J8aE8k+joOHD2B0I3xTSApLJmOSrMu34eEm4mEchpfY2xtb2J7Yj/HRS2jeU0avd2+Ko0Y/Rq8fxfbWmncj6wEmwY0vVW8HWmhIl9/jOBhKHL7GGzj/ZAcJTTcF1+7ZYNDTrHEpmO28BBrD2PYWLl/ewvbYGMbZfbPcxhvNiXgD541ZvimWW2UUBybG3FnZW6X4hrcv4ezaJkYnbvZi3N7A1vYo9o8H0+L42Bi2NzeNfng3ra0N6sRuxSQ3cHtuaDiTenwMY9jEppggc0F+dBTXp7DrJsLWBrbdJBnDxIEgSeAnzsThw5DkXOKLMjI6jv2j2/CS0BDa2MQmrseoG+I2Nra2QbOwd/jJe3kTb2AMNFm7h4vvG9imnN6tmPhd2Y3F8C6/xdVyn/+aD2WbWGt3tvaXosJ0a3X0ACbGtrHlr80pSSb2j2P0Ei+vt3Hp7JPYpmfuw3djAtu4cjY8849OHMbdE4bp7a0QISyTpk9+EoascGMUbh5vA9vbbwATtLrYwAYlLK04tjcwujmFCTfztzE6ej2wecV7hOkRJmNTd+PuKY43TX9ZdvBKTWp/efzkJVop0nN2dy/y6Ph+jG5vYc1fXlufUwFsnH/STQr3hnP4MCAS23xe9l5KheM2ZcJcW8ufjZvLfikjHgdo5p6acmfl7dH9GH3jivvcTEvwqQm6OW1gfP8oNq+kXwblgYk+UwfXaziTWgxM+Y4qgKXNWqLdUXfA05L0sDnVjo/iUvPtU+B/+9Iaruw/3JwpA06Ote1tvIEJuw9/Kc03IWADm/6sTMvwTX6Gcfs+gfFxYP/oJpo5vVsxyRHeXpsazmdqbODylW3Qku0gPwfmgjzbDT8PuzMpPSCP34yJUVpOP4knnwzOs1e2my+jmrIcj68TvDhjRp6lPW74b+K3r1wOfRqwsbmJ0f1TmBiT7yVoNh/F/on9GN3cFPJ2281+9i0meeLbW1vDOVPzknuDPqeWz2Le57Jy4Rh+Vmt9vjUvl/umG4ddu83HXvcz2W2MH3Q/mA69GSf97UtXsDnhLWk3Lq1h67B8Zk72acaQ1Lb26dJZPLl9EHe7z/FswbsBtSwgePbd3hKfvXsv0SYmWpfevcAk3Kfw5+vcm2EpdTP/YbnS2s+hQEA38x+Ky6ydHDYEhnb53d6Fpm+cTSH4AmfYSvY3zmF9bSkCeSCgSZ0JRfrGmXzizqSswopATxAY0rffPcFWnSgCO4KAJvWOwK5OFYHuIaBJnQO2d999t9UK0fk0BaJ0TLl221nsZ5GleKLko+hxfSAdecbJKi8dAvpMnQInGnT0ZZGkwxzUcTrEk3ZNXdNXnC1TNmvbjCVJP6s82YvqX9p+SayS4ht2viZ1wghIGkySLwdo1CCOcid1SUbaNXVstk19U4fbNt04Xha7cbImL65/HI8sST+rjtQfpromdczVThpEcQkSY7bJMgd6k5FQMfU4Di5ZndumvNlm+aSS7bFcXDvOB+mZfBuN/XBJOmnkWH5YS03qNq88Dy4q6eBSmjNp5kCWsnnUpX2OL43dtLLSPttNqxsnn9UG29LSjoAmtR2XxBnBHOBmO26gEo8PqRenw/JUSjlZlzJZ6hSDacdsZ7EXJUs26eCS5SQGTIsqbbFGyQ4rXd9+78CVp4GZZiDT4OdThskDW9KobiaLyY9rR9mM08nK435z37lNdjqJPWscgy6vM3WOV9gcmLLNAzmLuzgd4pF9KWOjRfkzdaPkmC77wjQuo3gyNlPW5GWJnW1paUdAk9qOS2qqHJyyntpAh4JZk5Pd2ZIoLn4bj31zybZtpZn4Zpt10thiWS3tCGhS23FxZ8C0AyxqgNoSIcJdZjLHZvrO4pNk2Y4MwEaT/Hbqtrhsfsz+mL5sOqbMsLf1mTqnEUCDVp5ZzCYN5DhbnJhxMt3gyeTKEkNUX5lOtvToDAFN6hj8sgzWGDOxLJkcsYKC2Y6OUA9VzSRKY9smkwYrmx4H06k+29ES0KROGAVJgy1uoErTJGc7zKSyyUiazV9WG9KerNtsSz7V42TisIrTYx+d6rOdYS91O6M2RwANUjriEopl2EWUrCnH8rKM0pUyVJe2TB3iMU3KmTZk25TntpQx62w7Spb5pBclY9rUdjoEaDsjTep0WKmUIrArENA9ynbFZdIgFYFsCOgzdTa8VFoR6HsENKn7/hJpgIpANgQ0qbPhpdKKQN8joEnd95dIA1QEsiGgSZ0NL5VWBPoeAU3qvr9EGqAikA0BTepseKm0ItD3CGhS9/0l0gAVgWwIaFJnw0ulFYG+R0CTuu8vkQaoCGRDQJM6G14qrQj0PQKa1H1/iTRARSAbAiM33HCD8/rrr2fTUmlFQBHoSwRuuOEG/NqBAwf6MjgNShFQBLIjQPns/p7acZzs2qqhCCgCfYfAyMiIbmfUd1dFA1IEOkRAX5R1CKCqKwL9hoAmdb9dEY1HEegQAU3qDgFUdUWg3xDQpO63K6LxKAIdIqBJ3SGAqq4I9BsCmtT9dkU0HkWgQwTaSOp1LE1PY2k9i+e3cPpf1vBwJp0s9tPIponBk5n9whpm/2UTLwI4W1vDbO1qGgcqowj0BQIZkpqSeQQj02eAQwDOzGFkJGty90Wfo4NY38SXtvbgxGemsPxHY7gpWlI5ikDfIpAhqScxv+rAOQUsV+sorx2D46xifrJv+9ZeYPuvxbva01QtRaAvEMjw/6lppi6gjAoqpSJmp05jZGQRlQYlNi1bnweOjuO5Uz/F027X3o77j0/i2F5LP9d/itnHfx7NlyqvbOLEqU1c8Wl33TuFT9ONJIoO4MVvr6Nc/4WvYcZxFQ9/oTVGqVP+wiZw27uxPLNHRuLXqa//gS9tMYtm9nfjMPt9eTzQc/uJJh/wfCOpD231LToujlTL4UHAyXY0nEqx6FQaUuvnzlf++bzzib9pOF952aO/8K2G84m/ed75jtv0+Euk03g+JCettNZfd5b+5rzz2W/93Ge97iz984bzgsOlR3Z9uXTHcV7ecD7b9Csttsb4nTPnnU+ceT0QotjYjk8Ny/g2hE6on4bvF771vPPZfz7vuP0meyF+nn1znHCcjhPCJOih1gYcAQBOhuU33+VoGW5fdt91bzAz3/T+cdyFn+OFV1gPwMubOJF2hia19at4Gnsw+/5rfSN78Gn3WZdLj3xT4QZMbL2FF5quruLfI17KyRgP37oHePkt94VYUzWu8spVrNIzt5jBQ/3cey1+E+z7LXznAjD7gT14/uW3XKsvNl7Hldv2uLN6rn17ZRPLz74d9/+3YGXhxrX1Or4j8Y/rm/IGBoEMy+92+vwLPEeDyl+CP13fBPB2TGcxFfGMK5fLnjl/QO8dw0PHgROn1jALYKL423ioeVPI4tgi+8pbzceAgHstfms/93MPPnAbsExJPPkWntu3B8f2voXlf7+KF9+/B9+58Avc9YEg8ZBr336BL51aw5eCwFys7w+1tTEMCHQ5qd+O3xLP1PQ8/L9eXkf5zCZ+L+3bZX8GDr2JXv8pyvX/ghOfmfRmPfcZ1JsN3YtGif2ZMXjPsP+Bh/f5z+GdXtG912ICwo9r7y08txX0k2b/hyiJ972F5/eNAXuvxTSex3deuRbPbe3BB+SLxbz65mIcPNt32k3V390ItLH8ju7w04+v47S/3Hvx2xt4ev8N+D2R1KR50/t/E/djE+U0n/1O7sFduIrlb3MiXcXD/ufHMoqz3wpepEk6QLNomNJRa+8eTO+/iodE7C39pJi3Xsf/vvBz/OY+emy4Fu/a9ws8962reJqX3hREnn3z4wpw6qiXqrzLEch1pr7rXnr77S17AZo5bJ/1Xotjf/RuPPeFn+LEvqSl8R58+vgYTpz6D8zWCWnvTfZNe4ETt63hoS+sufBPFMdwF8+g7htn8WUReostZ8eOLlgQ++yzvqH9Y6iEVh20BP8pHnqWnr09GXf2fvwq7rr33cJ7nn2juH4b+BfGKSo24V6rA4tATjufeB+nPPeBnJa5Awu3dkwR6C4CuvNJd/FV64rAjiCQ6/I7ew/kF0FatXN9c91qXimKwEAikNPyeyCx0U4pArsOAV1+77pLpgErAskI5PqRVrI7lVAEFIFuI6BJ3W2E1b4i0GMENKl7DLi6UwS6jYAmdbcRVvuKQI8RSJ3U60vTGBmZw0pLgN6OKHOSsb6E6ZER0Js4PqdD+x9ZdMjuyhxGppcQ+oGVaavJ92yE7QJunK7MCuaEf47DK6cxTbu4hIIm9wHNrYf0Zd8932GbI+BYWJfbDJkbm+HT67aHUysr8NPK8/GiGA1MouLiOLQcbARSJ/Xk/AJKqOK0TF53RD6Ecr2EY0d8oCgxC2Ucqjmg/9Hlno0KUC40B31qSF1by5htBLYas8s4HrpBRFk7gpPCfxFFVJp2VrG6UAKqi8Fea+tLWKwWUTnBHQGKlUazD43KOcwYN7WS7KPjYFVsA1MsFlEvP2S5CZrxruB0tYhSqYhqC7ieLNmqLho3O8rp01WUSiXTIOLiahFWwsAhkDqpgSM4RnlgDDwaWCgdg5cK61harLrJcDLIDWByHqu1UspBzhivYG6milIt/NvtyfnVUPKwdObyyEnUSnWUH/LuUisPlVEvLURuzxR5U4tyPLuASrGKGesUK5RWTqNanMWJE7MoVk9bbwKHFhZQqi/jjFzCuDehEo4dE7a0qggA2f5B3hEvq8XAo1mGctrP4PUzWK4XMXvU8guKI8dQwjlckAMz7hKsX8A5iBVAnGybvCMnKl4iWWbpFpNuPEVMFVo4EYQC5k+RfbEasEjSTbE4exSTk0cxW6xi0boKoRtqHcsiq9fPLKPevJlaDCtpaBHIMFMDcBNTLMHdWaYCsWIFbTV6qyWnPYTrWGukxLqxBveHWQni9XKh+dxOz5KFchot3+jkPBZKVcwU4mdpknZn8uIs5P2qOhO8M7C+b3Dt11E+3rp0diPwbybeTXASR2eLqC+fCb9T8EOlG2qwnF/BQ2WEHhV8MbdIjEsKa33gEMiW1DiCE5Xg2a85y4RgiZuNs8x0IaORDfncS8/vjUoxUtbGcGdrlFALPS94kvKGMXOugsbqPOT9KvzsetJ/BAl7OXKyhlK9bH0P4M624kYxeXQWRXOZzebkDdVfsssbDItRmSYuKa/1wUIgY1ID7sBzl5TeC57QUnvyVhxCxGxMA9GYxc8Za/H1C+cCdOUgDqg9rYVuGEZCpw/kCE767xPOhJTWcWa5DtTLKPBbdloxILzMDlSCG6r9ZhpIam24Ecic1HCf/epYPr7ovuAJzxb+wJsxNvmnj6Vm6AXaCX8285eaobfDtKSso7TAs6HdFn0sZH5U1PeX8MgJ96VZWT4arNCnBvKNvPeGn1YawTI73DPvhjqDmWoJC+JNe1hKW8OOQPakhp+QdZmAAYz0dtqpHUK5IJ43C97HUvIjH5LzPiZiuRmcqzQgV8GeDH0axjIjKCzP4lSfDOjws2vwOXWABtcmvZdm3PQ/joLlbXvsW3b3hkrra/60QRgU1fRxCSWtDgwC+tPLgbmU2hFFAO5L4zZmaoVOEVAE+hkBTep+vjoamyLQBgKa1G2ApiqKQD8joEndz1dHY1ME2kBAk7oN0FRFEehnBHZ4N9F+hqY7sdFXWembb+0epB91dGI3yqbSdx8CmtQ9vmaUeGkSW5O3xxdmgNxpUnf5YkYlp40uZ1pZlyHa9CRf64qAJnWXx4AtOSkxbfQuh6LmhwQBfVGW4kK72xM1twxKoZCTCCW/eZJpk0ZtPRQBRkC/JspI9LCkJEwzU9vk0tJ62B111UcI0PjIMFPTJnj06yu5oR9txhdsjjcyYvw6K8SjWad18765FWkvvb7cJNDD1IvD+wVXG7EaGxzKXYjCvjw/8XH30VXWUIYSASfd0XAqRThAyam5CtyGU/IITqNSdFCsOA3JZ6bjePwW/aJT8RScWgkO/cKfD7Mdsl8riVhc404RbItjSxtrzSk14/bjFO1wHGybfTktcXP8XAKEW/zJsrIkHfNISzP1tD0cCPjjrHXg2LvvDWaRc16SSoJMtEbFKTYTmC3WnJKReFLdIX1OJlc/SBzPgtSnunFDaRrLGCuHx6URuy2pm65IR8bNNmJKW2LaxG1yaWk2e0obfARofGRYfmdcxVj3GCtgqhixM4rVfD30W+qRkRlUm3LBTiCAt4tIcwPEpkz6irevuf9iyt2BJL2uSioC/YRA95K6MIXW3cIaWKtn2aeshBrv3d0sgy2DvZ1ATmPF3cW0g51HV+ZQKB8KfDUqltj76bJpLIpANALdS2p/y1u57/X6km0LpIjgYrfM9XXYh7sbaPxuIBFerGR351Arp7+I9KaTTj0UAYlA95Iak5hfraFUnWl+rkpbEZk7cspgwnXSb2B2ObwFcPAvZkja21qJap0sveFu7F/FjJ8ki1MVtP7fi3B0vWglfexFfD57EY/62B0I7P7Pqelf88wANce+Re9OXoZ2ZtGkRCabSTI72Wf1vbMIuKs3/23qzkbSgXf6DHkGNThyx8IO7KmqIrCbEaCk3uXf/fb/7U9N/uOu3XxJNHZFoHMEdv/yu3MM1IIiMDAI0EzdxRdlA4OTdkQR2FUIaFLvqsulwSoCyQjs8mfq5A4Oi0Qeb8XT2CCZpCPt2/k0/pJ8ZeVn9RknH8fLGlee8prUeaLZgS0aIFFHUpLw4OIyyg7R42TITxyf7XI8NlmidftI8sHx2eJI20eb7m6haVLvwJUyByUPQi5lSKas5FGd+KyXZsCaMjb7ksa2Tb/UNm3ZZJgmbTKNShtd+jT5xDP5si1tR9mPokfZoRiIx7HIuqSZvneqneMz9Wv4p0cexV8+u1NdIb9pYvBk7njwUdzxyA9xBcC//eujuONfL/cscBoUPIC4lM55oEiarc6DTfLkgJN0WZcyVOeTZLjOpdTjOvnlk2hcpzLqYHuyJFnZ5rq0IWlUlwf5M2mST3XWl2UcXeqzffbBJevLUurtdH34Zupnf4CHN25B5XMfwh/46FNi77aDB5wtbhp8cXzSkQOU2lJe1k37pp7Jj2uTXfMwaWnsSx1ZJ9tp9M0YbG2yG2VL+uR6nLzNfjdpw5fUhOb4OzDRTVS7aJsHEQ04rtvcST4PzqiBZ9JZl/XIfpwvm3+iSX1b2/QbZcdGN22TTDsx2mwTjTFgPrelX46fS5bd6TJDUtOy9ZvAx+7AxZPfwFfdyN+BT899HH+8z9KNZ5/AHY+9Gs2XKi//EPef/B6e8Wn33Pcn+KvbAETRAVxZ/TI+9tSrvoYZx2X85YOtMUqdjz34PeDgh/H9/3mzjMSvU18fw8MbzApmdtfG1h2BnttPiJnf8w3uA5sQpRx8WQeEHFSybrMj+eSe2qYcx8KlCDMky7Zs+swjXZPPNGlX1m1+iS9tSnmzbvNnyrTbjsKL6WQ3Kv52feall3I7iFedf/z7R5zf/evHnH/c8lQuP/2Y87t//U3nKbfp8f/iGcdxnvlmSC7ewSXnL/76EeeTT7/qi11y/uLvf+BcdrgUvly64zhbP3A+2fQrrbfG+NTpR5zfPX0pEKLY2I5PDcv4NoROqJ+G78tPf9P55N8/4rj9JnsGP3DcWvPGrkdPU2+1EFCkfkCNrqWRt8kQLemM9hpw2DaXAcdek3Jp6tIKySedUl7WpS+iy7asS52drFNMmV+U3XNfMDNPTN+Be/AqLr4s7i9bP8T9aWdoUnv2Er6KW/Cn0zf6Rm7GX33qdzABLj3yxO234PaNV90XWx7lIv5vxEs5GeMf3H4LsPma0PPdRBUvX8bX6ZlbzOChfu67EZNg36/hiZ8Af/r7t2B96zXX4pVnLuKZgweaz+tRbjqh0+xgnmTPpKWdRVjOLKNmS6LzSX65HiVv9pX8RMlyDKZOJ20ZH/u10aQPioNj4dLkU1vKSf5O1jMsv6PCfBUXtwD4S/CvPvU9AO/AR6LEbfSIZ1y5XPbUbvGKfb+DL80B9598FHcAuP2D9+FLzZuCzUEG2tarzceAQOtG3DLO/bwZf3gQ+DtK4ttew8WxA/jj/a/h7/7fZVyZvhlP/ORV3PP7tiV9YM1W48FGg4TqXDJd6thoLC/loupZZG02SF8eZlvyzLopK/uaFJfJN9umr07ajHGUDxl3J366oZt5pm4N4h24ZX9Apefhr3wQePgr3sdFASemFpqBfblnn8DHnnoHKp/7E3yfzrn34XZpghLb5X0Yk089lt9HafvfEfbj+nwNFzeCftLs/8xPLuPKs5ewvv9GYN/N+Agu4omXSe4W/CG9D0h50KBp50jSS+K345N0aDDLM4pms99OgpAO63Gicck+uK8mnfl5lOyDbXGbSj6Zt9Nl5qT+6mNfxj/5y+0rq9/HV8dvwYeMF2UT0/8dn8b38LE0n/3edgD34CL+btVbvgKX8Zf+58cSnH97OniRJukAzaJhSkctStDxiyiL2Fv6STFvXMSjz7yKSUpqimHsVVx8+hK+mmLpzYOAk4PjJbptYBLdPEjORjflzHaUD1PO1iZd8yQ5k0ZteTDf7JuUi+oP0U099sn0KF0ZQyd1ipN9SJ9kk9p8duIjT93My+977qO3396yF6C3wvT8ax434o8/9WFcfPAbuH9/0tL4ZvzV3Ptw/8nHcMdTZMd7kz2xD6gcfBTlBy+6xm//4Pvc53e34b5x9uhum95iZ5gdXZ3IP0Hsd5z3hcbfh6+4z/msREvwb6B8np69PRrN3uXHLuKe+z7EQpElDwwpwANH0tqtZ7EVJ2vy2o07rR7JkU86bDqMhxkXy9vorNNJyXFxyf46sdlNXULQf6mX5Mb7mOfi7/sfNyWJKz81AlGDkQc4GeJBLmlpHbCuKR/ll+TYD+ty27QR12ZdUybOrylrtuN0TV5eMZt2KSab7aj+mn3oZpviyjxTdzOgYbUdNRhsdButXdzibJk8s92uT9LrxFacrskz2+3GbLNjo7VrP2+9HiS1/CJIa/i5vrluNa8URWDoEMiw/B46bLTDisCuQ4CW35nffu+6XmrAisCQIaBJPWQXXLs7+Aj04Jl694Noe/tp9sr2NtSU4XY/v2ThGLXcvQhoUkdcuzSJLFXTJmqW5Jf2ta4IpEVAl98pkKKE1WRMAZSK9AUCOSb1OpamRzC30hf96iiIrLM0yac5OwpKlRWBlAjo8jslUDxb25bZNlpKsyqmCOSOQI4zde6x7YjBuFmaE3tHAlOnikBKBDIkNS2vp7G0voK55nKT2hGe6F/MjsTwpdr6EqabNuUS3lvSB0vbOQSre4pjGktL5IeWv8TLGKOMwf8+r5x1ya55RCV2EKN9KW7a0bYi0C0EMiQ1hVBHubCIqYb3c7NGBSgXZKL5Ybr/M/ocKo1VzE8mhb6CuUIZqDTc7wQ7Tg1YXMK6m6AFlA/VfLqDRuUcZtzkZZt1lMv0v6kpHv7/1CljZBN+SUkpE9pgh5pRiU102xlS1oYi0AMEUm6p1HAqRTilmhSvOSUUnUqDaD6/UnGKTZqUjajXSg5QckJmXXNkx6RLf1Q340mKMSIGC9n/9ZqFYyfFyUuerNstKVURaB8BGl8ZZ2rbLaaOtUZAr5bLqAfNdLXiFAqmZGPNYqeAqWLYn6lmb7ejE1iyLcMDrtYUgf5CIIekLmJKZGSpRstkoHycltApj/oaxH3BUypModii3sBaPeyvRcRKyKZjLsWjltumq6jnalNO24pANxHInNTVmeDl1/rSIqrFWRw1npsn50+hgjIKaT60PnIMJVSx2HzjtoK56SWsTx7FbLGKGWEjyp8JUJoYTR1umwnN9DSJbXueZhrb0VIR6DYCmT+nLtUWsFYYgfdeuISaMw8jpwFMYn61hrWRGUxPNbAa+7bsCE42KpguFDBSpu4W3RdsZJNtjFR9GIoVNFZt/sIwpYsxrEMtXmZz2SrhyVCimoeNZspoWxHoBQIZfk9NHxcVsLbg4OSRXoTWjo/uxxg1kydFK28UegNIQkv57SJA4yzzTN2us0HRazch29UbFNy0H71DIPMzdfbQ5JdVWr+YMd18ls5uWTUUAUWgFYEMy+9WZaUoAopAfyFAy+8ezNT91WmNRhEYdAQ0qQf9Cmv/hg4BfVG2yy55u2/fZTfT2CCZpCPty784W2ltUCxp4k6KeRj4mtQ9vsqdDHAe1FzGhR4nQ4kUx2e7nHA2WaKZh43GMmyL23El28miE2dv2Hia1F284jw42QUPUi6ZTqUpK3nMZz0qSZ7bpiy1TRmbfWu16E8AABxSSURBVEnLYsvmj33aeNKPjU80KRMXS5S+0gMEcnym9n77LL7VGXgZ0hoNTh6gXEoo5ECWdLNOcqY+tZP0pQzV+ST7XOfS9Eltss+nrW3TaZcWFQf7576a7Xb9DbJejkndvzCtL01jZJfebWgQ04C3HUTnwW7jE83UlfbidDnJ4kqbT7JpniRn0uJ8m3Y5Bu6P2SdTftjbuvzu0xHAg54GMNdtoUo+D3aS57rUMemsK2XjfElbsi71iW62Tb8kY/qRba6bdqRPrUcjkGGmzrhVUMfbGVmW82STfsHl9se2nZFJm8b09AgK5TpQnXEHEn2DbWVuxJi5PV/et9vS9NOTp8HnnZbdX8TsROHyQI2+FGEODWge1FxParMFkjP9cduLl+P2XnYxj/TZl6yn9cv+2yltftuxozrI+uWTlFsF5bKdUZrLE7GdUXOLo1WsrtLvu4tAydsWiX4xduRYCaieDvY7Wz+D5XoRs83fkMb3c2XOss1S82YTxG0O1IDT/RonIicsx2Iro6KRNwCSMdtRep3SOeZO7QyrfoaZ2oOoVAv2HZucX0AJ53BB7oZwYQnTM2n3JwOwchpVlLDQ/HnmEZxM8fNKvmClGu9NxhTK31ZawAXg/4b7tL+L4fqZZdRLC6H91CL7ub6ExWoRlRPBT9VcHOrLOCNxCDlsryGTiOtkieuyTOOB5FlflnwDMG3IGwDxzLYp32mb4yM/XCeb3E+z3qm/QdXPnNStQIS3CsptO6NWRzlSjuBEpYiqm9XrOLNcR+lYkKR2R7KfNJMHS9iRkRnwT77tugGVE4gGqhy8TA8kw0lEfJbhuiylHtfZB7ezlpxMVNJhtrPayyLPfSUd7qdZz2JvmGRzSOrwVkG5bWfU5asweXQWRVqCu0vvEhJzGrKftDlE8BGRN+iCFYwtdE4MGy+OlqSXxI+zHcfjROKSZLnOZZx+Vh71g+yah41GMlF0U38Y25mTOs1WQblsZ4RJ3HqIHn15jUzL+rTzoeVSnrsQ3jONt0sqlFEvHYM5T0f209cLtl+y+PJJNFB5sMpByDRTk+jmQXo2uilntqN8mHK2NumaJ8mZNGpnPdiGqSfxMXnazo5Ayv1Ieftdb2teulmGt/ZlPpvz5Ire/sFMtJcN2g6Y7NHJWw6TqOGLthMuVhx3R2Kf17plsbltMO1eHNiX8TQqRddn2Ab3w/AdityT8eL1427GFRJsaXiTTECWbVkPJNzpq9mUMrLeFPArJk+2uW6Wpg3ZZllJS1vPohsnG8dLG8ugyxFGdKulfqa4FdDHOP2+nVGKbkgR9y09/TMA+WKte/2kWcqGtZzxmC9pMuS4OuuaMlF+SY79sC63TRtxbdaNkonzb+rEycbxTDvD2iaMhvrLJyunq+5HXebSu1sDImrw2+g2WrtxxdkyeWa7XZ9SL4vNONk4nvQ37PXMz9TZAevX7YxW4OZ08huy7F1WDUVgBxHIsPzewSjVtSKgCKRCgJbfPZipU8WiQoqAIpATAprUOQGpZhSBfkFAk7qNK0FLHNtBdD5NfpSOKZfUNu2Y7ST9TvhZfcXJx/E6iVF1MdxvvzsdAObAjHs7SzySZxlT14yF5Ux61naSH7aXxp/ZB9bVsr8QGOqPtNq5FDIxZSKkTR72KXWJJu2yjFnaZJISzfRj2mTfndKj/HDMjA/HK/1G6dpiUloyAjkuv9fxs8+P4pUfJTtNlPjRn+GFzz+MXyUK5iPw5qlRvHDqa4nGeGAmCkYI7NTgpbjjzohw3VUFxSxPkpVtrps2yJ/kUZ0PrnPJdC3zQSDHpM4noHas/OrrH0yVlGzbTeKMNw0epGzDTBKi22gs32lp+pf2KDmIH3UQP+6M0muXHhcrY0S2OWYu2/WnemEEhnL5fd3xbbwrjENiy5xVzHbSQGYHUi9Oh+WpTCNHdk05aqc9WFbGl1bXlONYmM5taZtj5ZJltewcgQwzNS2vP4ifvfQ1vPLno3jBPakdEQQtof88hi/VXnoYL8Xa9Jb2nk/y/Wd409X36C89/l3gux93Y3rp6/5OBSGb4ceCtMttGWIndRrMckBH2aIBzifL8KBnelRJ8pw8rMt+zZJlTTq18zrYFpdkl2K3lXn5VDseAhmSmhS+i6uLD+JtC9t41xe38c57gauLnGACUkroR85jz8JT+PV3Crq1uo6f/cMDwL0/cm2+64ufwy8fPxWSfPPUe3H1pi/7fPJ7Hq+4y+dJ/PoD1L4TuNPjv/Mj9O/qv4ZX/gHY90WO8068Wcv/GV0mGAVstkOdSNGQScbinBTMIzrXuWRZ5sk21TmZTDq34/iyTyxno7GtqJL7QXyu2+KP0ld6egQyJjVw3aeCRL3mI5/DdTiPX8nZmmbI1AkN4KUa3njxOPa4yUiBfxR7P3U86MFLD+Pqd+/Env/x0SbN9fviY3hT+m1yfRsPfLr5ed01770P17z4DH4ZkmmvwQOStHlQ2sr2rHdHi+LjhGQP3KZS9on5XJp9I7qNxvJUctJzXfIkTcqZMtpuH4Ecnqm/i1/+JwB/Rn7z8QcA3Jk+ov98JsVbblohjOJqyOqdeFuoHW7QyzN3Wd4kixtFk9ZehRPC1I5LDlO2122KTSaw2c4zHsZB+pP2u+lb+hnWeg5JfSfe9hsBfNd9aht7XvogXvqHh3GdmC0DCaP2G7fjGjxjEM3mcez94t/iOpMc1f7Rn+Glxw9i7xef8nRo9bCY5CPKmJ3OA5e5UYnOfFlGDXYpY6u3q0e2bLq9Si7TN7U5Ju6niSfTtcyOQObl95uPBC+/fvX1B/HmTffhOuO5+ZqPPIo9eAAvpfjsF++8DW/DKVyVL7geEc/U75zB9TcJflQfX3w2csZ/8/88EMmLMtctujnA0/ppV4/sx+lyYqeNI6sc++aS9DmBqeQzq12Vj0Ygc1Jf96nP4ZeL3ttvdza0zsb0AuvLuO67H0fzbXRkDB/F3oXPA4+/13ujvvgM9ix8vvk8DJCtH+H67/l8fksuPmf2npkfcN+gu/7e+7fYe+ep5lv6q//18+ln+cg4PYYcnHGiJGc7eEDbeFG0tD5NfdJLo0sxsaxpo9M22+aS/OjRXQQI4dTbGf3s8+/FL2e2sfe93Q2qH63zYIxLSpbh+KNkTTmWlyXrkizXJZ/qbCeKHyVP9CQdtm3aiGvbbNrit9m26cb5Up4dAcI2h2dqu/FBo6YZdGlkCJe0ckmyWewk2TKvV1bbpj63bXZsNJbXsnMEepDU9GWVj/tfFmkN+Jp7fwTvs+VWnlIUAUUgOwIZlt/ZjauGIqAI9BYBWn5nflHW2xDVmyKgCGRFQJM6K2Iqrwj0OQI9eKbucwR2eXi2t8u2LqWVs+naaFH2iJ720BdmaZHKJqdJnQ2vXStNCRSViHGd4iTNop8mWdlunG/ltYeAJnV7uPVEyzbwO00Ym03qjLQrZSSd6sSTtJ4AoU4yIZDjMzX9D6oRzPn/pDJTFKYw/Y+r6aXwf6k0ZXJsr8yNYCSXwHMMyk80SiA+2TolFp9Ek3VqszyXNhrzuGTbUlbStL57EMgxqXeu0+tL05mS0k3iHt408kaGE5FKOridtx9pj24c7EvSbXW+ycSVNj2l5YPAUC6/j5x03P8/mw+E3bNCScGJK+vd8xh89ZR9kF86KI60MXDMbMNWsl0bT2mdIZBhpqbl9TSW1uU/vKN2RAC0hB6J4Uu19SVMN5eU01i6IJlU95b2NBC8cw7eKt+jF8p1oDrj8qY5oJDN8GNBZ8vtqFg4zjiMsmHIiWSi0U5CBNgxhl5p2iaffBJP1k1ZbfcnAhmSmjpQR7mwiKmGd+EbFaBc4AQTHXT/7/M5VBqrmKfdhWKPdSwdLwOVhj+AFrBWroY0VuYKKB+qNQdYo3IOM+7yeRLzqw4alaL7L2lpAK66Dlcwdxw45Q9Q4lcX83hGp6S0xDIiMUjCKIkf6rrbZ0pI6hsfVM+a2JycsmR7ttJmX8ZAOnyjsOkrbecQyJjUlDtBok7OL6CEc7ggZ+sLS5ieSZvQNAmfwXK9hIVm9h/ByVopQGR9CYvVIiongv8i7fqtL+OM9BtoADiCk6vz4PvJ5NFZFOtraIRk2mj4sdZOGrEYGCRhlMS3RWZLMptc3jT2ywnMJfnhG4Tpk2XiSlNH2/khkDmpW13XsSaypVouo94qFE1prKWQp9lNLhtnEJ7LW827L894uV7IGFOrOY9ijbWAqWIYg1b19vmUGOYMSfZttFa/3myaVpb1pU/S5TbV+WRZW8kycaVNT2n5IJBDUhcxVQiCKdVoOQyUj6dc7hamUAzUI2ol1MSA8gZLsGJoUVqZQ6F8KNBpVFL4aLHSSrDG2sBaPYxBq2Kn/OBFVavtfCmcwNIq4a3H7kEgc1JXZ4KXX+tLi6gWZ3GU17l+vyfnT6GCMgppPvudvBWHUMWifME1I+bhyaOYLQp+FLbnLkR+rr3yUE4ztR/LjOiXDYMkjJL43EVbgjEvTdmOviZwGmT7X4Z2PklxNJxKEU6pVnNKcD8RcoCSU2tqMp8Jnlyx0mBCdNmoOEVpk9rFihNoerZp1dk8JV/os79aKZAtVipOScTq8kpB5GY7OlDiyP7DgYzDYQykjA2jKH7g2VthB+2oWpRcFF3aSZKJ40fxiJ72lLFoPR8ECPsMv6f23vyuLTgQ74n6/5bV0wiTMEripw+WZmE+zNk1aYZmXVOP7XEZZyeKF0Vnm1ymlWN5LdMhQLgO5ZdP0sHT31JxCRnHo14l8bnncXJRvCg62+QyrRzLa5kegczP1OlNs6T8sop8g+3Vm18WYfEdLXdTrDsKlDrvYwQyLL/7uBcamiKgCLgI0PK7BzO1oq0IKAK9RECTupdoqy9FoAcIaFLnBDIte8zDRjNlqG2Ts9FsukpTBEwE9O23iUgX25So5ltfTl4uyT3LSBqHxTxua6kImAjoTG0i0sM2JzknKpV0Mp1CMXk9DE9d7VIEckxq+mJF+HfLeWAS/u1zd3wEcWa3TwnIM6qsBza9mkxU5nHCUpuTWdoiumxznfW1VARsCOjy24ZKRhonJJemui2hWUbyZJITX/JYXktFIAkBTeokhHLgm8kqTfKNgGXM2Vi2WUbqa10RMBHIsPympWncVj2G6SzbGbmyxrfNxC+hDMsA5De/gl+NeXLeEpqSwTvlriQkkcQX3rL0QahRlZMxiIPjaX1LzonNJqjNCSzrzNdSEYhDIENSk5mUW/Fk2s5oBXPuTim8RZK/NVHMr0aqM1FbKlHCxm03lMQXUGXqg9DzqzIpicTJyXSiceIz31f1b0Ze8vNNgXlaKgJJCGRM6m5sZ3QB53AIt/q/yZ689RAQ89to6lDkdkBJ2w0l8RmtrFsysV7GkhJcJjar8w2A2rLOfC0VgTgEMid1q7HwVj2ZtzNyN0kI9jlbOV0FDt3a3F+s1Z+N4seQtN1QEt83nbkPtpAELSp5SYR4dMjklrOzrAuTWlUEIhHIIanDW/Vk3s5onWbqYA+ymWoJcmO/yMhDDD+GpO2Gkvi+zcx98PVkYobCS2iQHic3icrZWdYTzChbEWgikHLLBd59pOjwZiaNSlHs/MG7fpA5X1bsLhLppFZyECMX3pUkXQzSni3GJL4XToY+eBnZ0kUvP92p2OVx2xRkOpVJp6mrbUVAIuCPH5oY0hyctFFb8TCfbXlyvL0QU22l3HrIDUpsEdSa1EWnUjO2PwoZlfGZ2w2RYBy//T5Q3ObBCSrpppzZJlmTZralPa0rAhIBGisZfk/tvTnOezsj2sq3sDyLhtinm75FtjjV8Dfmb64o+rpiLqEpWBvN7ESUDNOppMPLdVNb24pAGAEaLzk8U4eNZm011urGi7F1XDiX1crOy9uSzkYzI42SYTqVXDd1ta0I2BDoQVLLL4oEX8CgOwqdi1M1VM55/wfLoxWwPLu7ZmkbsEpTBHYKgQzL750KUf0qAopAWgT6YvmdNliVUwQUgXQI9GD5nS4QlVIEFIF8ENCkTokjLWuyHjYdGy2rXZVXBOIQ0KSOQ0fw6A20JqQARKt9i4D+njri0kQlsI2uHzlFgKjkHUGgSzO195vl2J9Et9Hd8NZGbRjIoMKfD8uS1GWb6zazlPzEp4PqfJpt203CZk9pikBaBHSmTotUB3Kc3GRCJnsHJlVVEYhEoEszdaS/oWBEzb5M53IowNBO9hyBNpOaltf9sLWRt8ynJPFOuXURfZNtGktLc2Fe5q2Tsl0TikPOzNm0VVoR6ByBNpOaHO/01kbeD0zKh2rN59xG5RxmRmRi11EuAzX3+9MncYT2NsuwdVJws/BuGtRrG01ehqiElslOMtTWQxHoBgIdJHXMtkIcadZtgdwNE1JubZRya6JSjZLZP7LYt7wUIyuUkPJk01oqAv2CQEdJ3dqJHm5tlHJrolCMuWydFLKYqiFnaVbQ2ZqR0DJvBHJ++926tdGJC9MoHF/CUfF76chO+FsbVQsjKLtCJdSc5jwbVnO3JloL09DAWj0cQ0ggi/2QYvsNTmi53OY6JzaVeigCeSHQ0UxdnQn23F5fWkS1OIuj/q6gHODk/ClUUEYhzYfWNPuWgmdkxxFLZzbI5eRRzBarmBF2o2JgFWSx31TqrMIJS2VUvTMPqq0IhBHoKKlLtQWsFbyXSIXyIdSss/Ek5ldrKFVnML20HvZuto6cRA3yt9UjGJlegl0rsEszH53mDiqmeWSy36KtBEVg1yAgtzhKWTf38kqpliAW3iTQE6Y9ytLsc5Zg2mWntU/vw7Kepn/vnZpJbd1/rFVCKYpA+wjQuOtops77ttXtrY3S2uelcpbSxIKX2mnpppy2FYF2EehxUu/s1kZHTjZ066R2R4rq7RoEdDujXXOpNFBFIBkBerfU45k6OSiVUAQUgc4Q0KTuDD/VVgT6DgFN6r67JK0B8ZdVWjnRFJuOjWZasMnYaKYetW1yNppNV2n5IZDzN8ryC0wtBQjQm3RKjqg36oFkb2q2WDh5uaRIOF5J4wiZx20t80NAkzo/LHOzZEsCMm6j90NyUFwch63ONC5zA0oNWRHIcfm9G7cw6k7MAdLt2acEMU+yadI4kQJ/Xk0mD9X5JC7XuWRd2ZZ15nNJPNOvbFNd6lOdDllynW1qmS8COlPni2ffWZMJR8kk22awnJBcmvw4fckzfUieaVPb+SOgSZ0/pjtqkRLIdjC9kwQzk1X64RsBy7A/lpFtlmGelvkikGH5TUvJQd3CSH7TLfjlmQe1t4SmQemdcmcVkkjiiwvmbqVk2hf8DqsUX94Jw8kY9J9xaL15cGJzN6jN8cg687XsHgIpvz3u/YgDKDqVhqfi/kACJafmNsWPPGolR8rFO6B/Am/YLHkWSa/1n87DgeCHY+B/KM8xuRZi7KfrU7Q/Xz8ynnYx8X74QY/RcWcUrt7jd8DltlkGEsEPTWwyNppN16SRnu2UclrPFwHCO8NM7d1VSrVVzPu/mZ6cX0AJ53BB/jZyF25hFNmnpC2Tkvh8I86KiZdF7iwnZziuc8nmd7qkeHhGl7HIOGVdymg9fwQyJ3VrCIO4hZHfp6Qtk5L4PljVchn1VuB6QrEtyaOSMCmgOD3i0SGTm5fsTJe8JF/Kbx+BHJI6vH1QqeagUQHKx6M2NzCC9bcYKvubLcxUS6idjNvCyNBPuYVRKvtN036f3C2TmkS/IrZMSuL7GpkxMV222eaEtiVXXIK2m3zsj8MlH5zsss58LbuHQMpFfcTzZ7HieI/Y4vnRaX3WjHRCz9/imdSUS/VM3YzBe6YOmYu1n65PMr7wRgut/bTxvXhaZc2+xrW9FXmcRMCLko2iB5rBs7WNxvpcShmqM53KpNPU1XY+CPi40800zeENylKNX0bRhZMvpJjPtjy5NLuWuIkrB0IzSc0XZWRb+ocDIcu8UFLzyzarfYq56FRqFafY5Ms+JflL4rePCaPIJScMt+PKKNkourRlkyGaSU9qk800MtK31jtHwL9WWZO6c8fSQnhm8zg7sYWRjGkn6/5FSZzppJwZr5lMzI+iM59Km4yNJnWi9CSdbKSxY9rVdjYECOMcnqk7ey5Iu8VQu166bb/duKL0+NkzS2na8nLTpAY/sGjlBBSbro0WaHi1KBmmU8l1U1fb+SLQg6SWX+wIvrjAL28Wp2pd3WJItzDKd8Cotf5HQLcz6v9rpBEqAqkRoMmyBzN16nhUUBFQBHJAQJM6BxDVhCLQTwgMdVK3+yULvoD8XoDbWctO/HeimzVOld9dCOhPL42vNpqXT76xNRMpjsd2pAzTuCQe2YyTYdko31F01tNy+BDQpPavuS2xzIQhUZsc080Elfqybg6zKJ7py2yzHaZH2WE5LYcDgS4tv9vbxqd9yLP7owTgZGjHbzsJRP7Snu3EpDqKACGgM7U/DrIkKd8QuCQTst6toSVj7OSG1K341G5/IDCUSS2Tgy6DTJCk5JR81pM0ssf2mS99MC/q8rMOl1LOpJl+ic/2TVlpR+uDjUCby29a7nZna6P1pWl3YNLgHBmRW/+k2TZIfntN6gYX0UyEgJNco0SxJYtJi5IjD8wzS+YlRxFImH7Zho0eaGlt0BFoM6kJljrKhUVMNbyB7v6GumDu3wWA9uWaOYdKI9gxJRLU9SUcp39e33z2ZB1K6ALKh2rNpGhUzmFmJOyvOpMcjzngvZtH8PVVis1G45hNXlybdZJKsmHGZdORvogv27Ju01Xa8CDQQVIDkdsAMX5tbOMDVHF6hQ34ZcptgxLjMcxSk5KJT8lmmi3ZJI/5Npq0F1VPm9C2WG2+o/wofXgQ6CipW2HqdGujeaw2Kjg3482c00v+5mcptw1KiqeVH1BkclGyUDvPQ86ksk4+ZFvW8/SvtoYHgZyTusOtjQj3yXmsurNnDYfKBczRrJ1y26DWyxaOp5XfHkUmHtXpsNGkdXMm5zbJcN0spT7XpR/WlTGQDT2GG4GOkro6E7yMWl9aRLU4i6P+TqMM6+T8KVRQRsHNTqamKQuYKvpyk0cxW6xiRtiw+UsTj80zJYWZDNTmZDF1bMlno5l67bY5Do6TfbE9jpVKPRSBjj7SKtUWsEYbBro4llBz5mHkNE29mF+tYW1kBtNTDazy/sI27N2XatWAU6rBcfcgDGyMMLtYQWNV+iuiUpvFcmEE5dh4AvNU40QJU71WvyRLUhzcBy5tfVHa8CDQ5u+pvbfRawsOojb+7HcIoxIgis79IX7aI27mlHbi5NiXLS62IfVtNLah5eAjQNe/o5l6N0MkE0H2I4rOMkl8lksqs9qxyaelJcWi/MFCoKNn6uxQyC+HBJ8N092Fzubb7uyGVUMRUAR8BNpcfit+ioAi0I8I0OTY45m6H2HQmBSBwUJAk3qwrqf2RhHQmVrHgCIwaAjoTD1oV1T7M/QIaFIP/RBQAAYNAU3qQbui2p+hR0CTeuiHgAIwaAhoUg/aFdX+DD0CmtRDPwQUgEFDQJN60K6o9mfoEdCkHvohoAAMGgKa1IN2RbU/Q4+AJvXQDwEFYNAQ0KQetCuq/Rl6BDSph34IKACDhoAm9aBdUe3P0COgST30Q0ABGDQENKkH7Ypqf4YeAU3qoR8CCsCgIaBJPWhXVPsz9AhoUg/9EFAABg0BTepBu6Lan6FHQJN66IeAAjBoCFxz4403Rv4juEHrrPZHERh0BCif/z/bqGlvxt8gCwAAAABJRU5ErkJggg==;" vertex="1" parent="1">
          <mxGeometry x="810.5" y="1120" width="245" height="316" as="geometry" />
        </mxCell>
        <mxCell id="DroHx0XE8zM4UCk5UBcj-236" value="" style="shape=image;verticalLabelPosition=bottom;labelBackgroundColor=#ffffff;verticalAlign=top;aspect=fixed;imageAspect=0;image=data:image/png,iVBORw0KGgoAAAANSUhEUgAAAM4AAACXCAYAAABdnmT7AAAX0klEQVR4Ae1dTWwcx5X+GOSkPkiCOXMdUZDWAmkBsQxeKDim1kEAyQLWXgMG7JOBBFROMS+5BHEOhu1LLpRPliwhySUHA4oVQJaAxdqishYvhH8ArxhpKfDnOjMG5cPo2ovX3W/6dU11d3XPkDM98xoYVNWr91dfvdddXZwaTp0+fdr//vvvoZcioAi4IXD69GlMAfDv3r3rJqFcioAigHPnzuEnioMioAgUR0ATpzhmKqEI6BNHY0ARKIOAPnHKoKYyE4+AJs7Eh4ACUAYBTZwyqKnMxCOgiTPxIaAAlEFAE6cMaioz8Qho4kx8CCgAZRDQxCmDmspMPAKaOBMfAgpAGQQ0ccqgpjITj4AmzsSHgAJQBgFNnDKoqczEI6CJM/EhoACUQeCnZYSqJeNhZn4eDU963cLG6gM0A5KtH2htrOJByCAF0+veDObnG+ia6exifX0bHSFRn1vEbC1Fd30Oi9QZXbH90L/p9jrWt2Nt3sw85qfbXRusm+WpDHWE8od2U8Zj+g2gsxvbMu0E+iOZpwZGVl7p0BjVJyBxwtmKgyEMpNm5OpoiM+J+AEEQL2LeiwMoc84D/kPYXV/FehTbFESzM00R7HXUah20WkCtVgeaIispEGdrIlnrmJufgddMJl6mD0bA5/EG/VGyUoKtsztBUsxjHuHYO802Oo1p1L1tdPPWOxTcIDxjHN4hD532RuJm4eRHBZkmcKnWQbPdAQ558dPBnLjmA6xutOA1jqFu9vW065gLgn49DiwK4m0j6eo11Dpt7Oy00anVLHo7eNp9oDTxwHha9Zjtm+BhplELni7i/kGOY12OvdNEu+Nhut59lqJeq6HTahnjCG8M7WZ3EH17OMoKJjBxPNSn6c7YzL4zNltooQa6qWZenodDaKHFd+wU5iDYyGYQiDU0ZuJARBScjfl5SHKKqsGQvTqmvQ6sgR6M/RC8wMXwRkNPk/CKEmSnhacSH7ox4Ck6k5E3mJilmteYx2KDY66D3Y0BzXC0bGHN1tKbQaPWQTtax9ETrzFdh7fNS7EOttdX0aF3oPlFNNDB7nryCZb0P7LSaSfMJXnke1yCTTSyAt2jhzLo7tLpPAUa9JRsokk3CnpydprwWrNoBNnVgecdAlq70XujMDGm1YlJnJ53mPl5wAjO/Zpjrz4Nr9MG56r1vQFA88FqEHjBS7bhX8J/AOGLeNJjkyfZa2tFTxXrPUQsHekJNDsbPH073jS8p7vB05qWa7MNugE0g6d4azfnsWtzoaK0CVyqUYTSMiy6o6ZNXLD0yF+ChbqylnTh0hBeA/OLi1ikT7D7lnxvkG50tjew28nxTwqUqXc6eJqGQc+yqxlsahzyPNCSrcXrUsLRm0a9Tss+B6zK+DmiMpOZOEFgiDuqOTnRLldnd8dh6dHEzm4Htdnk+0nwRKAXlvoxNDxaeq1idTX+rO92upsPXV72I5KJNwu4Y5Cl3W+kjL3ZasGbnkWjJhOEMPQw3ZiG12o5YDVI/4era2KWasn1f/g3ju72Ki19zHeg9dXELlnWNAU7aJjHfPB+EnEGf8fpoD4X/OGmR1dnexetRrj8aW5voD1vvIMNeBlZm13E4iyPInqH2l7HamcOi9Lv4P3KMnZernXaYlMl3DhoNDxM0jKNUNQfJORY0lIRcERAf5DQEShlUwRMBCZmqWYO3L1dx9ziLOIvwyQli+9kJeW1VU0ENHFy562JB6uTs82aC4cyBAhM5q6aTr4i0CcCmjh9Aqjik4mALtX6nHf6gyb9faafy0UH8eRd/fph6nexyTKDts16R7Uc28RxCUaalKzgyAsGtsFl1iRn8ZCdrH7Wy/7YeInmcuXxsQ3WZbaZLss0nTY/pVyV62OZOGkTZk4wBwWXciJNXtlHdWmD5GXb5KW2yWPTL2k2n1ivqYvpZin1sQ9Sb57Ppr6ibVc/i+odBf6xS5ysYOCgSeNJo5sTZeNzCRLJw76Qbps+0ybzSTrJZV1sw6bfRsvSVbZPjrmsjlGUG7vE2W+QswLOJUg4mNlPqU/WuZ9LU47pRUuywZesE81mw+Rh2UkvxypxsgKv34nmAOLkSNMn+zkQ0/wy6SzLcmSD7abZs9GlvGt/mp08XS4+2sZl86tKtLFKnDzgZXCYQZsnKwNI1m16ZD/ptQUO+8KltC91si5JI968ttSXVjd1pPEpvReBiUqctCDshWXwFNM2t22WKKBtl0k32zYZpe0PAhOVOP1CmBaoNnpWYrAfJEd8ZpkmK+ksI3VxfZClbWyD1F9VXWOVODIIXSeEg5EDkUumSz02GvNLvrR6EV6bDpKXl9mWfWbdtG22TX5u28bMfVzm+eFqi/VVoRyrxCkCeNnJzJPL6y/io+Q1A9jFDvHQJWVlnfpYj0mXtrXei8DYJQ4FAAeDOVxbIBFPFr8ZUFn6TXuynWZD8qTV2W+z30aX/sq6lJW+lB2P1JdVl7ay+KrWN3aJQxOQFgy2QBrkxBbRlcVr9g3Sb1N3Fl7UR/xlL5utsrpGTW6ij06nTawMFg5aSXOdRJY1+dPsEh/bYVlumzqy2ixr8uTZNeWy+KVuVz4pU+U6HZ2e6MSp8uSp78NDQH9zYHjYq+WKI6AH2So+ger+cBDQxBkO7mq14gho4lR8AtX94SCgiTMc3NVqxRHQxKn4BKr7w0FAE2c4uKvViiOgiVPxCVT3h4OAJs5wcFerFUdAE6fiE6juDwcBTZzh4K5WK46AJk7FJ1DdHw4CmjjDwV2tVhyBqcOHD/s//vhjxYeh7isCB4fA4cOH8ZOZmZmDs6iWFIExQIByJjiP4/v+GAxHh6AIHAwCU1NT0Hecg8FarYwZApo4YzahOpyDQUAT52BwVitjhoAmzphNqA7nYBDQxDkYnNXKmCGgiTNmE6rDORgENHEOBme1MmYIlEicx7h89iwuPy6CxBP85dp1/PFREZlB87r4EPKc+fA6zlz7DrsA/vmP6zjzj51BO6P6Ko5AgcShhJnC1NnPgecAfH4JU1NFE2jE0Xr0LT5qHsfK73+Fb379MzRG3F11b3gIFEicE3jnvg//r8CnV9ewvPEqfP8+3jkxPOf3xXL9qCbMvgA7XkoL/Og6PXFOYhkrWFlawBuzNzE19T5WNil5aInzJfDaGWxd+QK3AoyO4reX/hNvP2MB7NFdnLmxl94vRX74Dm9d+RoPI9rF13+F954FkEYHsHv/73jt3l4kYfqxgz9+2OujlHntw6+BuZfxzX8ck55EdRrrDXzU5C56Qp3Dz9lu+0wsF4wT3X4gtA0eA6vQspII+MWuTX9lYcFf2ZRSe/6fP7nmP//BDf/P7ZC+89UN//kPvvTvBc2w/92Hvu8//DLBJ7X01rf9dz+45r/51V7Ute2/+8m3/o7PZUgObAV03/fb3/pvdu1Kjb0+3rt5zX/+5nbMRL6xnoia5Il0CJnEOA3bO1996b/5yTU/GDfpM/pjw1qrEgIA/AJLNb4p0JLNvkS7+Hr8hGmcPYOL2MPWDywHoP0d3nJ90pDYo23cwnH85uyRSMkxvBe8e3AZkhunjuNUcy94mQ8pW/jvlI0I6ePPTx0HWk+EXGQmrfhhB/9F70DiSZQY5zNHcAJs+wnu/gv4zYvH8bj9JNC4+3ALD+dmgqdTmgmlVwOBAku1MgPaw1YbQLRcu3XvawBH8csiqlLeOeTSKlR3PCye+Rn+dgl468p1nAFw6qXX8bdu4hUxbOFt73WXjHHvERyv8ziP4RdzwMeUKM8+wVZtBm9PP8HH/7OD3bPHcPdfe7j4om35F2vTWjUQKPHEKTKwozg+HfPT+8lnLwEffRZu9cY9GbXEkyTie3QXr907Gu5+0Q7YpRdwSqqg5CH671/GiXs3BrcNPn00aSew+QRbzXic9BR7+K8d7D7axuPpI8Azx/BLbOHuD8R3HL+g9zO9Ko/AQBPn1o2/4y/R0mz3/je4VT+Oc8bmQOPsv+O3+Bqvufxt5NkZXMQWPr4fLnWCl+vo7ysS+X9+FW8eSDpAT4Mkpa8WJUF9C8vC955xks/NLVx/uIcTlDjkQ20PW19t45Yu0/qCf5SEB7pUu/g67aqFSySAdptsfws5grd//TK2PvwCb03nLaOO4b1LL+CtKzdw5h7BFu6QNZ4BVuauY/nDrQDLUy+9ELxPBY1gJyukB23aHRvYXT72/cyDQDtQfwGfJf7mQ8u1L7D8gN6FQh56Ci3f2MLF189FQlpUHYEBnQANt2i3Xoy2iquOivqvCGQgoCdAM8DRLkUgC4GBLtWyDNn75B8jezkGuiPWq14pikBpBAa0VCttXwUVgcohoEu1yk2ZOjwqCAx0O3pUBqV+KAL7jcCQ33H2e3iD10+P6X5/h85FB/HkXS5+uNhKs9OPbJrOcaFPXOJkBWReIHIgcZkVBFk8ZCern/WyPzZeorlcrrZMXTabJs8kt8c6cczg4kDkUk68ySv7qC4DySUYTR6bfkmz+cQ+mLqYbpZSn2uftGvKm21Tp5Q1+8a9PaB3nOh06BSdEL2MQqeq9xFhmlieXC6lubzAYF7iM+WpnScveajOH9LLdS7ZlixJP3+IzvU0u6yLS5sd7uNS2nPhT5Mz9Yx7ezDb0XcuYeoCcNu/gvMRYo8vn8XJjT/Av8KU4UFJgUYTTpdLXXoq+SWd63n9zMel5Jd17h9kWVR/Ef4ivIMc0yjoorEPbqm2MIuTozCqAflA4NBFCcd1m2rZb0tOKWMGG8uyHPFm2ZK6ZF3KS3o/9TQ/9sNWP34OU9b98N3mir8A0K07+Czd9v3NlYVuO6AvrfgrCzEP0RZWNv3bS/BBAt2LTpKGfb7Pp0pv+0td/eYp05CfbQNLvtTWVSsqMW/oD3URja+0OvfbSilj62eayUftrA/LcWmT5z4qzX7Zx/Ui9kydNv2SJutsb1LKCNc4kLIHHgY1JUF43faXFlb8oHV7yQfXo94goWSiEI8M9iAJOTk4KbjNCRknh5l4gX7DZpr/cpJd6ml6iC7ls/i4z4XfxkO0vA/bSCtteonXhW7jkTRZT7M/rnQaOz3p3MZnBr6UckkcP0w8zqVkYoWJw32hauKPEimRZGxY9DMppZRjdKmzmgig3ACWOlmWS9nHdbNkXlkyD9Py2swnS1OG+1zoNh5Jk3XWOykljb3Yrlpf7zHn8buVBVy9eQfAY3z+6RqWXs3bOFjDxiavYtewfDLeZZqauoCr3FWgDG+48SYBr+WZLlURzfxQv0mzyRKf+U4jdbvUSZ4/rE+2s3T0a9u0R/r0ihEoljhrG+jGcazDuXbilTewcPUm7jz+HJ+uLSE3b7CA2e6OwxJu9wSy/UdDbA6Vnfg8ubx+my8uNDM5ScZGc9FVhse0xe0yusZRxj1xzr+KJVzF+93fvr2DS3l/s/nf/0v+TefEK3hj4SounFzG2tKr3a1rBvbqhfiXQR9ffh9XF97AK/SDh5FcbJslsksKavqYk840U9qWBCRro5uyZjvNhslna5Os+SE+k0Zt20V08luv/UXAfWma2FWLX+R9yzuOL3jjDQV+6YeffJ/hd5zwPYhuromNhMBD3kAQL82OmwNygOGNO6bItqzHHMmXackj65Kf6mafbHPdLE0dss28kmaru/Cl8aTRy9qxyY0DjXAazB9AiyS25Y+l9M5DvxK68Qcf+/n30rQ7sbxz851a0lyHx7Imf5pd4mM7LMttU0dWW8py3cbPutN4svxkfayD2ml6mHdcS8JgcH8AdUTpzs2rwNLtnmWao3hfbGkTbaPbaGWNZ+ky+8x2EZt5sv32ky95Oor4W2XeA06cOwjzJm83rcqQqu+TgMDBL9UmAVUd41gjQEs19121sYZCB6cIFENAE6cYXsqtCAQIHPA7jqJeFAGXna48nS46iCfvStsYSNOfRs+zU4V+TZx9nqWsgEwLRHaJA49LptvKLB6yk9XP+tgfGy/Ril6udllvmg32i/lGodTEGeAsmBPPE86lNGXyyj6qUz/LUSnbJi+1TR6bfklj3S66bDxMk35xXdohPtlmu5LGuriP26aspA+7PqB3nNE8Ol0aXPojbd7XiSzKaeJ58rmUbLZgkf1cJz5Tntp58pKH6vwhvVznkm3JkvTzh+hcz7MrdXCd7ciS+6hkulkvY0vqPaj6YBLnzp+wvBZ9CfP+O6Cvl925lPz9ATpKPXWJvhmtVxYCFDgUVLaL6HmBZcpKfVmyHMhZpekT66NS2jH5xrE9uKWaceTg/BU/PO0zjqjtw5g4CPOSQ/ZTna60oDXpLMtyLFt0OCzPpU0PjydLt+lfFu8o9rl/7058cZOetvRFzd6j0+GB5vjEZu+XM+MvfZp98YlP+3Fq6pcy4oumNAqLf+HgpIzlC6QJuQV/ZcU80ZojHyFImMgPkcNVSciQVo/ErYWUsTJERJOP2lkfU5dNXvKY/Vl9WbymnPSR+mTbrEvZYdYjv2hl4HKF31yOgz776HScOKHu5InPkGbl6X7jmYOVk4nb8Terk8en0/yL5MTXscNkT+pNjIuCruuH3/N7CUm7vdgRsHy51JnXVkp5W79Jc+G38RAt72PaonZRXayDbck2122lzY6N7yBoke/xJGcaLXh02poUInjDp4PxxAiOVzMtDPikyELyBz+kT7IuBxI8TThJuEMcu7b1y2MSQT/7ZJFnkijlJLvUWTSakNwAljpZlkvZx3WzZF5ZMg/T8trERzzmh+lZpc2GaY95uMzrZ76DKMmXYpsDxntM/+vOwRyH7vph829zA2tdBq6cxOxCdCzb2s98XJb3M4yv+D2E1/5MZwtUEs38ZNGlLNX7fWcgef6wPtk27Zm+Upv4y15syyzL6ttPuWKJ0+fR6d6B9Hccukefzb+Ts1joYdzExlp0LNvabwoU97NsAOXJ5fWbnru2zSQgORstTx/J0MV+mmWWvGmP21kyw+pzT5wyR6fNUcmj1CWPQ5squ+00//i4ttgKTx7L/jc8J4+EP76MsxfEz4AU8JOChD7mhDOt62tU4aCSdJK10SWPrZ5mw8Zr0kjW/BCPSaN22sW83E/joMssuZ9LU47pVSjdl4Xm7lP3J9bMXajeF2q54xW/iMcv/IRx8Om+lBd8x6FRpPkX/TRVr41o6Am5Jf82tbt+BIp7fmRRbh5kARjGTswh27IecyRfuCWPrEt+qpt9ss11szR1yDbzSppZJx7+yD6WTSuZl/upLevcL8u8fsm733XyhW4hZKcKCV45H+luasNW3rm5X9JcB8qyJn+aXeJjOyzLbVNHVptl03hs9tlOnqyps6ycqWeQbfJJE2eQiKquiUCAEsf9HWciINFBKgJuCGjiuOGkXIpAAgFNnAQc2lAE3BDQxHHDSbkUgQQCmjgJOLShCLghoInjhpNyKQIJBAaUOGN2AjQBkTYUgV4EBpM4egK0F1mljDUCegJ0rKdXB7efCLh/tSfxna5ROwHK322T/yrEOEdj8T8cPMkSr5TNOW2aOIlK39kyz/y4w6qc1UKAvqZGCenoddoJS5++0Zk4MUkKcw+ypfF0v1zJXwDlgOR22glQ7o+TJemDOLEafB90QfjMsq62UsbX9d0RUmWrJALFEifthGWYJSIIQyySQRv9NkHyOKe/wP8ctwufOJkZ3dGTIhknQC38toTumgqePslEcbYVyMYJGo04/me/XSNaGUcEKHGKbQ7YTlj2tYgsf7KyjNngJ6r47An9O8UySroyB+t716xWRgKBYoljO2HZ1zCKn6wsbe7OJZxcfi7+B7ybK5aToUW0H6DvRdxS3gNBwD1x0k5YFnFzP0+AFvGDfjDxT308cQqcCi3olrJXBAH3xMF5XNlcAZZPRkdq38fsX8Nf7XQZa/Cv2teWcXJqCmeD/1x9Au/c38Qbn7K+6PhuiZ+edbGP81dwe+kqLkRLtfdnV7DkJGhjOmDfbS4obagI6EG2ocKvxquIgB5kq+Ksqc8jgUCBpdpI+KtOKAIjgYAmzkhMgzpRNQQ0cao2Y+rvSCCgiTMS06BOVA0BTZyqzZj6OxIIaOKMxDSoE1VDQBOnajOm/o4EApo4IzEN6kTVENDEqdqMqb8jgYAmzkhMgzpRNQQ0cao2Y+rvSCCgiTMS06BOVA2Bnx45cqT7P1Oq5rz6qwgMAwHKmf8HCvUBcsQhvx4AAAAASUVORK5CYII=;" vertex="1" parent="1">
          <mxGeometry x="830" y="1481" width="206" height="151" as="geometry" />
        </mxCell>
        <mxCell id="DroHx0XE8zM4UCk5UBcj-237" value="" style="shape=image;verticalLabelPosition=bottom;labelBackgroundColor=#ffffff;verticalAlign=top;aspect=fixed;imageAspect=0;image=data:image/png,iVBORw0KGgoAAAANSUhEUgAAAM4AAAB4CAYAAAC6jM2sAAARYUlEQVR4Ae1dT2wTxxr/uaoaPa+ABOxcQHGSJlUJIL33qC8Oh/Q9LgkXpIdy7aUyx+SSW47cuIQjFpdeIypxgVz62hzAl1CKVEiqJg1JBBfbFApaP6WXPH2zO96Z8e56d+PQOP4sod2Z+f7Nb77f/Evtpi5cuLD3888/gz+MACMQDYELFy4gBWDvhx9+iKbBUowAI4Avv/wSHzEOjAAjEB8BJk58zFiDEeAVh3OAEUiCAK84SVBjna5HgInT9SnAACRBgImTBDXW6XoEmDhdnwIMQBIEmDhJUGOdrkeAidP1KcAAJEGAiZMENdbpegSYOF2fAgxAEgSYOElQY52uR4CJ0/UpwAAkQYCJkwQ11ul6BJg4XZ8CDEASBD5OonQ4dCwM5fPIWWo0VawuP0dFVPm1A9XVZTx3BFTFpndrKI98rq7YkyKO3fS2YscaQj6fgxqKvb2ClRe2q+SjQy395zCRq2Nl5QWkJExb9rbb7tjI1FS7gIgzU9NkdEwAJxaE4NWPcxNjyMouak8btm3Bqq9iWQGu/9wExuDUiXdNufU46PhoDjui0MHEcfD1BsBJrLFz/agoA+y1u4k6NoG8pSef30jZL7ZRzY0h2w9UVKL1DyJnVbEq6yj5x7KCkCuyTiR/Hnm09qP5FrbS2F5ZxorLJCLG2FAFKy80ydCC/+Tg0FrFQyS8i9fzZTd4EXsGtZUVNHgv4sphyKo4ddYQclkb240OS3I6QQsyT5wDGpNY9AkrtGOHqPEIbdVsVGo2kLa0mV/DuvIcy6tVWLlB9GsNfoUKqlUgS8xRPv3ZLKjBSTMLQ7msmNEVrgL2C6xE9iON9+OcIKCSsCBTMcknzUV4VqiDYXhJG5XnWK1ayA06WPQP5mBVtz1iSTn3KSYdZMWkYzQdmeIRIo6F/owFu1bxtj1+w1SpohpxUEViZbMKyfrh8EbOzv3IWDZqlcZGy/Mo/KRhqfs3r7X5zbKQRhVVuWo1S7S5xiE96nY4Xq7XytY2bMJCrjZbIYGKvthk+sh+On6rZuXymMjJ8bGxvdrG0aLkH1O2a/1ZZOnMoeVMHXagS4smdETKTCsdvFLK7gHQ++s22DVFAsiOTWBiTFap5w1dn7Zty439mJQPeNovsF2dwFgetO9qbCX9pMWKZG9DHYqwmPxsHPa6jieOumcXh+18HlD35/sagQq2tnPIuwcd2qbZtRWDB+6q4kue9s+6Wn+JSHSJkdE76X/GcWQa+uLcMoj+F/IyRbfhV6JVJ5dNY1vblzqSGqEbFxqelbCYPKnOeet44mhQuytE6CxPqwaUw71moLlgV2qw83QwBtJZGzV5aidR20YdOf9VRfipa7NuWuzbPIZZVhpA3XFqrm7NobS3prKF7VweuSELlairTkgEDUKGyBylpiN0xqFbMyJFyCxPN0ZjdJjfcg/3EYbSrqBmW8iM5ZC1a9CPM7Qi2ciO5QWxGtaa/DgXF/qlRD8Gcxaq2/Iq2t+WWFGItW3/2HixHfWipO3OO95gx6842hZBbL+XtdsevZ2uUPX21iPoJH2OknzV3KY5t17L9jlM5CfQOGqh2Y+4HUMe+Qn6+4fzEbO0cl5qyKi2xLaHVqno5NHPE/Kq2KenH3CV84/JW319ojvUVfyDhId6eDi4w4gA/yDhYRwVjqkjEOj4rVpylMP+MxO5vencrURyXFgzCgJdTJwKGv+ZSRSkWIYRUBA4WrdqSsf4lRE4SASYOAeJLts+sggwcRIM7cTEhK8W1ct/pkCQjikXtdxue+T3IGxG7U+nyXXxGSd4qCiBlpeXgwXcFjPRwnSoTbVr6prOTFuqrilL5aD2ID+mfT+bYXaD5LulnoljjHRQAkoxtV1NvqAElXrmU9WlNtWuKUtlkg+SCaqXdvx8ybZWzzC/rXSPcjsTRxndVglI7fv5mAkcxZbpUy0HvcfxQzZayTN5mkeKidOMiW+NTDCZrPKpCpt1rRJS1Q16N22ocURNaDOuIF9cHx0BJo6LlUzIIOjMBDbLYfpq4qp6YTp+cfjJtyKP9Oen6+cjqK6VnyC9o1rPt2ofYGQp6WQCh7mj5Jb/TLmwxJdJbepw+eAQ4BVnH9hSMqsftRyFKKouvfvpSJtmm1/ZJJfUlX7MsmlDyvGzNQJMnNYYaRJqsqnvmlAbC0E+TJKQS1NWLZvyJonaGHJXmGLiuMNMSWYmV1AGBCWdmqhBunHrg3yRnaC2g4rjIOzGxeOwyDNxEo6EmURBSexnnmRNfT85qvOTk/ryGaQr68Pk/OxLPX4GI8CXAwo2lESUZAf5CUviKH5V/Q8RL8Wk+owSYzfIMHGMUW6VjFGTiOT8PklneLLn51vGG+TPT8cvrqC6/eoH2e30ev7qdMQRlIkZlvhSRpoMkjXlpLz6lLpSVpZVGfPdlKWyqWfKkA1ZR++mvOmDywB9dZqJw5nACMREgH9zICZgLM4ISAT4jCOR4CcjEAMBJk4MsFiUEZAIMHEkEvxkBGIgwMSJARaLMgISASaORIKfjEAMBJg4McBiUUZAIsDEkUjwkxGIgQATJwZYLMoISASYOBIJfjICMRBg4sQAi0UZAYkAE0ciwU9GIAYCTJwYYLEoIyARSJ04cWLvjz/+kGV+MgKMQAsETpw4gY+GhoZaiHEzI8AIqAgQZ8T3cfb29tR6fmcEGIEQBFKpFPiMEwIQNzECQQgwcYKQ4XpGIAQBJk4IONzECAQhwMQJQobrGYEQBJg4IeBwEyMQhAATJwgZrmcEQhBg4oSAw02MQBACCYizgVvj47i1EWTSr/4tdjbv4Jf3fm2Hra6TYj1s2HVPPDGIQ4RJITV+HzgP4P51pFJxCdQ9wJo9rde+xcNXW2Y1lzsUgRjEGcHMoz3sfQMslsqYXb2Kvb1HmBnp0J5z2IzAPhCI8b/5oBVnFLNYwEKxgOmxe0ilbmBhnchD25v/Aqcvor75HWoioD4MDP8HAz0+0b3/Hg9fvglud1Vev7qDNVzGpdODbg35uYvXx6/hH5leAE55Z1f6GMbZs//CKVF02urZr/H5Mbed/FZP4p/Df0eaqnaf4qfNx7Dd5swZRRZb+GUtqC9hfknvR6SzfdipbgLog9XzBraI8Ts8fAdY2WsY2L0b0jdEwDMsBrdD/DgwBGIQx1lxZkAEWgTmbmNvRo3rDXY2f8TA8Ne41APQ1uTJ5vewGonsykYkDUmfOj4MvNzE69ODDhl2t/B6tw+njimk6bmMS8MOsYTPte8V8qjxme9b+GXzMZC9hkuChFR+ivoxx1btpdcXQeDaFgZcAr9+dRc7pt/Npx4h8QY71T6cPfu1S2IXj92L3iTwPrxvIBsheLaOwewvl9uJQIytmnRLBPLfomXOeCtMOnMRGciZ1tWlGT7CSiM94dgwMthE1b1UqL//DXbPp8jQKiZINIyzjdUI8PXZMGa8vN9EDcMYEKShtkF8LlciAGpfBIF336JOYrtPsfOuDwMZuQq6fnd/Q62x8pG+XPkMv7Lo17fjF7UVWo1B61vEGKQrfrYfgRgrThLnb1D/E4C7XatVH4uti7OVimJvENnjwNq7LeBYL2rv3iCTdbdZf/7e2GJ5lnqR7tF9em0+bz0n8Tef6tZVtBrcwY4m2IcBrdyqMIiBbB+eaH3zyOiv7fbtE2ptRwz+Xri2NQIHTJw+pMUgO4HQGWJg91s8efUUGWV2DwvzVOYLWJubeJ05ide7wxiQ55VPTsLC74bqW9R3dZ+GgF7c/R3/A5zzjt7SoqSepVqIhjSnj30Kq+rTt0AdtW/tiSHQFTeEIpBgqxZsr/byW8iDer32I2pyW6WopDP/xgAe40nUq9meQZzq2cTOq99gHx9unBng1q8pdnSfvbB6gBrN6PQR20Q6rLsfd6u0U3vrVrhnHNke9JTxNPSCBH3q5XZPNsk+0AWF2je3PRDP/cQgffNzXwi0dcXJnKFbtTt4KEKiGdHdVmkh9mJg+DLqa9/hpx55O6YJGIVeZI7TDRVt09StjGeHbqrEp+cL5YAOnDp9GZk15yYLGMbZM8NYq0rzdKb5Aj9t3sVDUefcAqYhiSTlzCf5vQY09Nx2w7ep5awuj/Fk7bG4VXNuBZW+HVf75mgH45ksBjMmLidHoE3fAPW5+k0eU3dpiltGGDeBjOdhTgL+BughGJ3X7zYBn23aIQiNQwhBoK1btRA/AU3qHxmbRegPhc6WprntaNRsofqOrq6bt2lHo39Htxdt2qodXYC4Z4yAiQBv1UxEuMwIRESgrdfREX2yGCPQ8QgwcTp+CLkDfwUCTJy/AnX22fEIMHE6fgi5A38FApGJs3FrHKnUdSw1Rel8M/S62rBxC+OpFOj2Qf4b175r7aNDdpeuIzV+C9q3sk1bjXbHhm4XEHEKmSVcV/zLOJznOMbp26xa0OTeqxPvmr7ad8e3bjMFGYvUlWUJmYjN8Ol028Gpucnz09zm4kUxGpgExSXj4Of+EYhMnJGZeRRRwj2VIGLUb2K2XMTVSTcYSv7RWZx/sAf6TWrxb30BmB1tJFbksIWtRUyve7bWpxfxlUbCIGuTuK34L6CAhYadR3g0XwRKN7zfTti4hRulAhbmZEeAwsJ6ow/rC88wZUwcRbWPe3t4pHwdtlAooDx702eiMeNdwr1SAcViAaUmcB1ZslW6YUwoxJt7JRSLRdMgwuJqEuaKRAhEJg4wiauUa8bg0uCheBVOum3g1o2SSLjbXv4BIzN49KAYMZFkP5ZwfaqE4gP9uz8jM4+0BJXSsZ+Tt/GgWMbsTWcmWLo5i3JxPvCr4IETR5Dj6XksFEqY8l0qFKWleygVpjE3N41C6Z4v0c7Pz6NYXsR9dSkWRC/i6lXFFr9+MARiEAeYdJijDC7NlsQblyUb97FYLmD6is8PEUxeRRHP8Ks6+GHd3PgVz6CsZGGyCdsm5xacZPVZbZpMingKGBttagmoGMXMN2RfWdV8JGniKUxfwcjIFUwXSrjhu5rSpFXGosKcjfuLKDcmLB/DXHWgCMQiDkTyK9s1MVsuQNndgH4C5zMf3ji9KGN1PWJ/1ldRjiBanh1tnKNobz86G0XLNTwyg/liCVOj4asNSYsVqTANdU4oTXlnON/zn7BfxuxXzdssEYFLWGeiGcGV6QLKi/f1M54bKk1a3tZvCTdnoW0rXTHxaBmXKszviRCIRxxMYm7B24s3ZkvNddiqEmfG1owGFtRzCJ2n1hcKgbJ+DWLVQREPtL2lI6mScurZAtYfzUCdE/SzxG13u6p7mbz9AMXyrO+5TKwaChlHrkyjYG7JpDl10nK3dyqJpRg9o8SlyvN7fARiEgcQgyu2H86hVtuWjXyG8whYVWiwjdXombFv2/j1mdcDNVG82g/6ppHSIE30QCZx2z3f3deUNnB/sQyUZzEqb+9o5YO+JfNUvEnLf8LyJPnt4BGITRyIvXgZi1/dEIdafdZzB3fK+KFCulKeokuDOXdWdrcl2q0TbT/KKM7LWd3fFl3pmte8Bw/TPj1MzomLgll1G7lEt5HqTZ9zc0grprcl0/06k9YUpkpFzCs3eLoUlz4EAvGJAzfpy2qSe6HSrdfeg/OYHVX2/6POlbJ6XUtyzhWvlJvCs4V1qDsmR4ZusqVMCqOL0/jmkCSNfpbw/o7joSHfRpyLAll0r5Lhc4sXensnJi3ai8lbTMWg8ho9LkWJX2MhwF8riAUXCzMCEJdRCVYcho4RYASYOJwDjEACBJg4CUBjFUaAicM5wAgkQICJkwA0VmEEmDicA4xAAgSYOAlAYxVGgInDOcAIJECAiZMANFZhBJg4nAOMQAIEmDgJQGMVRoCJwznACCRAgImTADRWYQSYOJwDjEACBJg4CUBjFUaAicM5wAgkQICJkwA0VmEEmDicA4xAAgSYOAlAYxVGgInDOcAIJEDg497eXvHjAwl0WYUR6EoEiDP/BwP8Sjd0D3wtAAAAAElFTkSuQmCC;" vertex="1" parent="1">
          <mxGeometry x="134" y="946" width="206" height="120" as="geometry" />
        </mxCell>
      </root>
    </mxGraphModel>
  </diagram>
</mxfile>
